<svg width="20" height="22" viewBox="0 0 20 22" fill="none" xmlns="http://www.w3.org/2000/svg">
<path d="M13.5881 14.5375L10.0351 11.0005L2.29314 19.1805C1.50214 20.0305 2.44614 21.3605 3.53114 20.9105L13.1471 16.8145C13.3579 16.725 13.5435 16.585 13.6875 16.4069C13.8315 16.2288 13.9296 16.018 13.973 15.7931C14.0165 15.5682 14.004 15.3361 13.9367 15.1172C13.8694 14.8983 13.7494 14.6992 13.5871 14.5375H13.5881Z" stroke="#5C5C5C" stroke-width="2" stroke-linecap="round" stroke-linejoin="round"/>
<path d="M6.41223 7.46455L9.96523 11.0005L17.7072 2.82055C18.4982 1.97055 17.5542 0.640546 16.4692 1.09055L6.85323 5.18855C6.64243 5.27812 6.45686 5.41811 6.31285 5.59622C6.16884 5.77433 6.0708 5.98509 6.02735 6.20997C5.98389 6.43485 5.99635 6.66696 6.06364 6.8859C6.13093 7.10484 6.25097 7.30389 6.41323 7.46555L6.41223 7.46455Z" stroke="#5C5C5C" stroke-width="2" stroke-linecap="round" stroke-linejoin="round"/>
</svg>
