<svg width="1099" height="280" viewBox="0 0 1099 280" fill="none" xmlns="http://www.w3.org/2000/svg">
<mask id="path-1-inside-1_54_4218" fill="white">
<path d="M61.0556 42H91.5833V56H61.0556V42Z"/>
<path d="M549.5 42H580.028V56H549.5V42Z"/>
<path d="M305.278 42H335.806V56H305.278V42Z"/>
<path d="M793.722 42H824.25V56H793.722V42Z"/>
<path d="M61.0556 154H91.5833V168H61.0556V154Z"/>
<path d="M549.5 154H580.028V168H549.5V154Z"/>
<path d="M305.278 154H335.806V168H305.278V154Z"/>
<path d="M793.722 154H824.25V168H793.722V154Z"/>
<path d="M61.0556 98H91.5833V112H61.0556V98Z"/>
<path d="M549.5 98H580.028V112H549.5V98Z"/>
<path d="M305.278 98H335.806V112H305.278V98Z"/>
<path d="M793.722 98H824.25V112H793.722V98Z"/>
<path d="M61.0556 210H91.5833V224H61.0556V210Z"/>
<path d="M61.0556 266H91.5833V280H61.0556V266Z"/>
<path d="M549.5 210H580.028V224H549.5V210Z"/>
<path d="M549.5 266H580.028V280H549.5V266Z"/>
<path d="M305.278 210H335.806V224H305.278V210Z"/>
<path d="M305.278 266H335.806V280H305.278V266Z"/>
<path d="M793.722 210H824.25V224H793.722V210Z"/>
<path d="M793.722 266H824.25V280H793.722V266Z"/>
<path d="M183.167 42H213.694V56H183.167V42Z"/>
<path d="M671.611 42H702.139V56H671.611V42Z"/>
<path d="M427.389 42H457.917V56H427.389V42Z"/>
<path d="M915.833 42H946.361V56H915.833V42Z"/>
<path d="M1007.42 42H1037.94V56H1007.42V42Z"/>
<path d="M183.167 154H213.694V168H183.167V154Z"/>
<path d="M671.611 154H702.139V168H671.611V154Z"/>
<path d="M427.389 154H457.917V168H427.389V154Z"/>
<path d="M915.833 154H946.361V168H915.833V154Z"/>
<path d="M1007.42 154H1037.94V168H1007.42V154Z"/>
<path d="M183.167 98H213.694V112H183.167V98Z"/>
<path d="M671.611 98H702.139V112H671.611V98Z"/>
<path d="M427.389 98H457.917V112H427.389V98Z"/>
<path d="M915.833 98H946.361V112H915.833V98Z"/>
<path d="M1007.42 98H1037.94V112H1007.42V98Z"/>
<path d="M183.167 210H213.694V224H183.167V210Z"/>
<path d="M183.167 266H213.694V280H183.167V266Z"/>
<path d="M671.611 210H702.139V224H671.611V210Z"/>
<path d="M671.611 266H702.139V280H671.611V266Z"/>
<path d="M427.389 210H457.917V224H427.389V210Z"/>
<path d="M427.389 266H457.917V280H427.389V266Z"/>
<path d="M915.833 210H946.361V224H915.833V210Z"/>
<path d="M915.833 266H946.361V280H915.833V266Z"/>
<path d="M1007.42 210H1037.94V224H1007.42V210Z"/>
<path d="M1007.42 266H1037.94V280H1007.42V266Z"/>
<path d="M0 42H30.5278V56H0V42Z"/>
<path d="M488.444 42H518.972V56H488.444V42Z"/>
<path d="M244.222 42H274.75V56H244.222V42Z"/>
<path d="M732.667 42H763.194V56H732.667V42Z"/>
<path d="M0 154H30.5278V168H0V154Z"/>
<path d="M488.444 154H518.972V168H488.444V154Z"/>
<path d="M244.222 154H274.75V168H244.222V154Z"/>
<path d="M732.667 154H763.194V168H732.667V154Z"/>
<path d="M0 98H30.5278V112H0V98Z"/>
<path d="M488.444 98H518.972V112H488.444V98Z"/>
<path d="M244.222 98H274.75V112H244.222V98Z"/>
<path d="M732.667 98H763.194V112H732.667V98Z"/>
<path d="M0 210H30.5278V224H0V210Z"/>
<path d="M0 266H30.5278V280H0V266Z"/>
<path d="M488.444 210H518.972V224H488.444V210Z"/>
<path d="M488.444 266H518.972V280H488.444V266Z"/>
<path d="M244.222 210H274.75V224H244.222V210Z"/>
<path d="M244.222 266H274.75V280H244.222V266Z"/>
<path d="M732.667 210H763.194V224H732.667V210Z"/>
<path d="M732.667 266H763.194V280H732.667V266Z"/>
<path d="M122.111 42H152.639V56H122.111V42Z"/>
<path d="M610.556 42H641.083V56H610.556V42Z"/>
<path d="M366.333 42H396.861V56H366.333V42Z"/>
<path d="M854.778 42H885.306V56H854.778V42Z"/>
<path d="M122.111 154H152.639V168H122.111V154Z"/>
<path d="M610.556 154H641.083V168H610.556V154Z"/>
<path d="M366.333 154H396.861V168H366.333V154Z"/>
<path d="M854.778 154H885.306V168H854.778V154Z"/>
<path d="M122.111 98H152.639V112H122.111V98Z"/>
<path d="M610.556 98H641.083V112H610.556V98Z"/>
<path d="M366.333 98H396.861V112H366.333V98Z"/>
<path d="M854.778 98H885.306V112H854.778V98Z"/>
<path d="M122.111 210H152.639V224H122.111V210Z"/>
<path d="M122.111 266H152.639V280H122.111V266Z"/>
<path d="M610.556 210H641.083V224H610.556V210Z"/>
<path d="M610.556 266H641.083V280H610.556V266Z"/>
<path d="M366.333 210H396.861V224H366.333V210Z"/>
<path d="M366.333 266H396.861V280H366.333V266Z"/>
<path d="M854.778 210H885.306V224H854.778V210Z"/>
<path d="M854.778 266H885.306V280H854.778V266Z"/>
<path d="M0 14H30.5278V28H0V14Z"/>
<path d="M488.444 14H518.972V28H488.444V14Z"/>
<path d="M244.222 14H274.75V28H244.222V14Z"/>
<path d="M732.667 14H763.194V28H732.667V14Z"/>
<path d="M0 126H30.5278V140H0V126Z"/>
<path d="M488.444 126H518.972V140H488.444V126Z"/>
<path d="M244.222 126H274.75V140H244.222V126Z"/>
<path d="M732.667 126H763.194V140H732.667V126Z"/>
<path d="M0 70H30.5278V84H0V70Z"/>
<path d="M488.444 70H518.972V84H488.444V70Z"/>
<path d="M244.222 70H274.75V84H244.222V70Z"/>
<path d="M732.667 70H763.194V84H732.667V70Z"/>
<path d="M0 182H30.5278V196H0V182Z"/>
<path d="M0 238H30.5278V252H0V238Z"/>
<path d="M488.444 182H518.972V196H488.444V182Z"/>
<path d="M488.444 238H518.972V252H488.444V238Z"/>
<path d="M244.222 182H274.75V196H244.222V182Z"/>
<path d="M244.222 238H274.75V252H244.222V238Z"/>
<path d="M732.667 182H763.194V196H732.667V182Z"/>
<path d="M732.667 238H763.194V252H732.667V238Z"/>
<path d="M122.111 14H152.639V28H122.111V14Z"/>
<path d="M610.556 14H641.083V28H610.556V14Z"/>
<path d="M366.333 14H396.861V28H366.333V14Z"/>
<path d="M854.778 14H885.306V28H854.778V14Z"/>
<path d="M122.111 126H152.639V140H122.111V126Z"/>
<path d="M610.556 126H641.083V140H610.556V126Z"/>
<path d="M366.333 126H396.861V140H366.333V126Z"/>
<path d="M854.778 126H885.306V140H854.778V126Z"/>
<path d="M122.111 70H152.639V84H122.111V70Z"/>
<path d="M610.556 70H641.083V84H610.556V70Z"/>
<path d="M366.333 70H396.861V84H366.333V70Z"/>
<path d="M854.778 70H885.306V84H854.778V70Z"/>
<path d="M122.111 182H152.639V196H122.111V182Z"/>
<path d="M122.111 238H152.639V252H122.111V238Z"/>
<path d="M610.556 182H641.083V196H610.556V182Z"/>
<path d="M610.556 238H641.083V252H610.556V238Z"/>
<path d="M366.333 182H396.861V196H366.333V182Z"/>
<path d="M366.333 238H396.861V252H366.333V238Z"/>
<path d="M854.778 182H885.306V196H854.778V182Z"/>
<path d="M854.778 238H885.306V252H854.778V238Z"/>
<path d="M61.0556 14H91.5833V28H61.0556V14Z"/>
<path d="M549.5 14H580.028V28H549.5V14Z"/>
<path d="M305.278 14H335.806V28H305.278V14Z"/>
<path d="M793.722 14H824.25V28H793.722V14Z"/>
<path d="M61.0556 126H91.5833V140H61.0556V126Z"/>
<path d="M549.5 126H580.028V140H549.5V126Z"/>
<path d="M305.278 126H335.806V140H305.278V126Z"/>
<path d="M793.722 126H824.25V140H793.722V126Z"/>
<path d="M61.0556 70H91.5833V84H61.0556V70Z"/>
<path d="M549.5 70H580.028V84H549.5V70Z"/>
<path d="M305.278 70H335.806V84H305.278V70Z"/>
<path d="M793.722 70H824.25V84H793.722V70Z"/>
<path d="M61.0556 182H91.5833V196H61.0556V182Z"/>
<path d="M61.0556 238H91.5833V252H61.0556V238Z"/>
<path d="M549.5 182H580.028V196H549.5V182Z"/>
<path d="M549.5 238H580.028V252H549.5V238Z"/>
<path d="M305.278 182H335.806V196H305.278V182Z"/>
<path d="M305.278 238H335.806V252H305.278V238Z"/>
<path d="M793.722 182H824.25V196H793.722V182Z"/>
<path d="M793.722 238H824.25V252H793.722V238Z"/>
<path d="M183.167 14H213.694V28H183.167V14Z"/>
<path d="M671.611 14H702.139V28H671.611V14Z"/>
<path d="M427.389 14H457.917V28H427.389V14Z"/>
<path d="M915.833 14H946.361V28H915.833V14Z"/>
<path d="M1007.42 14H1037.94V28H1007.42V14Z"/>
<path d="M183.167 126H213.694V140H183.167V126Z"/>
<path d="M671.611 126H702.139V140H671.611V126Z"/>
<path d="M427.389 126H457.917V140H427.389V126Z"/>
<path d="M915.833 126H946.361V140H915.833V126Z"/>
<path d="M1007.42 126H1037.94V140H1007.42V126Z"/>
<path d="M183.167 70H213.694V84H183.167V70Z"/>
<path d="M671.611 70H702.139V84H671.611V70Z"/>
<path d="M427.389 70H457.917V84H427.389V70Z"/>
<path d="M915.833 70H946.361V84H915.833V70Z"/>
<path d="M1007.42 70H1037.94V84H1007.42V70Z"/>
<path d="M183.167 182H213.694V196H183.167V182Z"/>
<path d="M183.167 238H213.694V252H183.167V238Z"/>
<path d="M671.611 182H702.139V196H671.611V182Z"/>
<path d="M671.611 238H702.139V252H671.611V238Z"/>
<path d="M427.389 182H457.917V196H427.389V182Z"/>
<path d="M427.389 238H457.917V252H427.389V238Z"/>
<path d="M915.833 182H946.361V196H915.833V182Z"/>
<path d="M915.833 238H946.361V252H915.833V238Z"/>
<path d="M1007.42 182H1037.94V196H1007.42V182Z"/>
<path d="M1007.42 238H1037.94V252H1007.42V238Z"/>
<path d="M61.0556 28H91.5833V42H61.0556V28Z"/>
<path d="M549.5 28H580.028V42H549.5V28Z"/>
<path d="M305.278 28H335.806V42H305.278V28Z"/>
<path d="M793.722 28H824.25V42H793.722V28Z"/>
<path d="M61.0556 140H91.5833V154H61.0556V140Z"/>
<path d="M549.5 140H580.028V154H549.5V140Z"/>
<path d="M305.278 140H335.806V154H305.278V140Z"/>
<path d="M793.722 140H824.25V154H793.722V140Z"/>
<path d="M61.0556 84H91.5833V98H61.0556V84Z"/>
<path d="M549.5 84H580.028V98H549.5V84Z"/>
<path d="M305.278 84H335.806V98H305.278V84Z"/>
<path d="M793.722 84H824.25V98H793.722V84Z"/>
<path d="M61.0556 196H91.5833V210H61.0556V196Z"/>
<path d="M61.0556 252H91.5833V266H61.0556V252Z"/>
<path d="M549.5 196H580.028V210H549.5V196Z"/>
<path d="M549.5 252H580.028V266H549.5V252Z"/>
<path d="M305.278 196H335.806V210H305.278V196Z"/>
<path d="M305.278 252H335.806V266H305.278V252Z"/>
<path d="M793.722 196H824.25V210H793.722V196Z"/>
<path d="M793.722 252H824.25V266H793.722V252Z"/>
<path d="M183.167 28H213.694V42H183.167V28Z"/>
<path d="M671.611 28H702.139V42H671.611V28Z"/>
<path d="M427.389 28H457.917V42H427.389V28Z"/>
<path d="M915.833 28H946.361V42H915.833V28Z"/>
<path d="M1007.42 28H1037.94V42H1007.42V28Z"/>
<path d="M183.167 140H213.694V154H183.167V140Z"/>
<path d="M671.611 140H702.139V154H671.611V140Z"/>
<path d="M427.389 140H457.917V154H427.389V140Z"/>
<path d="M915.833 140H946.361V154H915.833V140Z"/>
<path d="M1007.42 140H1037.94V154H1007.42V140Z"/>
<path d="M183.167 84H213.694V98H183.167V84Z"/>
<path d="M671.611 84H702.139V98H671.611V84Z"/>
<path d="M427.389 84H457.917V98H427.389V84Z"/>
<path d="M915.833 84H946.361V98H915.833V84Z"/>
<path d="M1007.42 84H1037.94V98H1007.42V84Z"/>
<path d="M183.167 196H213.694V210H183.167V196Z"/>
<path d="M183.167 252H213.694V266H183.167V252Z"/>
<path d="M671.611 196H702.139V210H671.611V196Z"/>
<path d="M671.611 252H702.139V266H671.611V252Z"/>
<path d="M427.389 196H457.917V210H427.389V196Z"/>
<path d="M427.389 252H457.917V266H427.389V252Z"/>
<path d="M915.833 196H946.361V210H915.833V196Z"/>
<path d="M915.833 252H946.361V266H915.833V252Z"/>
<path d="M1007.42 196H1037.94V210H1007.42V196Z"/>
<path d="M1007.42 252H1037.94V266H1007.42V252Z"/>
<path d="M0 28H30.5278V42H0V28Z"/>
<path d="M488.444 28H518.972V42H488.444V28Z"/>
<path d="M244.222 28H274.75V42H244.222V28Z"/>
<path d="M732.667 28H763.194V42H732.667V28Z"/>
<path d="M0 140H30.5278V154H0V140Z"/>
<path d="M488.444 140H518.972V154H488.444V140Z"/>
<path d="M244.222 140H274.75V154H244.222V140Z"/>
<path d="M732.667 140H763.194V154H732.667V140Z"/>
<path d="M0 84H30.5278V98H0V84Z"/>
<path d="M488.444 84H518.972V98H488.444V84Z"/>
<path d="M244.222 84H274.75V98H244.222V84Z"/>
<path d="M732.667 84H763.194V98H732.667V84Z"/>
<path d="M0 196H30.5278V210H0V196Z"/>
<path d="M0 252H30.5278V266H0V252Z"/>
<path d="M488.444 196H518.972V210H488.444V196Z"/>
<path d="M488.444 252H518.972V266H488.444V252Z"/>
<path d="M244.222 196H274.75V210H244.222V196Z"/>
<path d="M244.222 252H274.75V266H244.222V252Z"/>
<path d="M732.667 196H763.194V210H732.667V196Z"/>
<path d="M732.667 252H763.194V266H732.667V252Z"/>
<path d="M122.111 28H152.639V42H122.111V28Z"/>
<path d="M610.556 28H641.083V42H610.556V28Z"/>
<path d="M366.333 28H396.861V42H366.333V28Z"/>
<path d="M854.778 28H885.306V42H854.778V28Z"/>
<path d="M122.111 140H152.639V154H122.111V140Z"/>
<path d="M610.556 140H641.083V154H610.556V140Z"/>
<path d="M366.333 140H396.861V154H366.333V140Z"/>
<path d="M854.778 140H885.306V154H854.778V140Z"/>
<path d="M122.111 84H152.639V98H122.111V84Z"/>
<path d="M610.556 84H641.083V98H610.556V84Z"/>
<path d="M366.333 84H396.861V98H366.333V84Z"/>
<path d="M854.778 84H885.306V98H854.778V84Z"/>
<path d="M122.111 196H152.639V210H122.111V196Z"/>
<path d="M122.111 252H152.639V266H122.111V252Z"/>
<path d="M610.556 196H641.083V210H610.556V196Z"/>
<path d="M610.556 252H641.083V266H610.556V252Z"/>
<path d="M366.333 196H396.861V210H366.333V196Z"/>
<path d="M366.333 252H396.861V266H366.333V252Z"/>
<path d="M854.778 196H885.306V210H854.778V196Z"/>
<path d="M854.778 252H885.306V266H854.778V252Z"/>
<path d="M0 0H30.5278V14H0V0Z"/>
<path d="M488.444 0H518.972V14H488.444V0Z"/>
<path d="M244.222 0H274.75V14H244.222V0Z"/>
<path d="M732.667 0H763.194V14H732.667V0Z"/>
<path d="M0 112H30.5278V126H0V112Z"/>
<path d="M488.444 112H518.972V126H488.444V112Z"/>
<path d="M244.222 112H274.75V126H244.222V112Z"/>
<path d="M732.667 112H763.194V126H732.667V112Z"/>
<path d="M0 56H30.5278V70H0V56Z"/>
<path d="M488.444 56H518.972V70H488.444V56Z"/>
<path d="M244.222 56H274.75V70H244.222V56Z"/>
<path d="M732.667 56H763.194V70H732.667V56Z"/>
<path d="M0 168H30.5278V182H0V168Z"/>
<path d="M0 224H30.5278V238H0V224Z"/>
<path d="M488.444 168H518.972V182H488.444V168Z"/>
<path d="M488.444 224H518.972V238H488.444V224Z"/>
<path d="M244.222 168H274.75V182H244.222V168Z"/>
<path d="M244.222 224H274.75V238H244.222V224Z"/>
<path d="M732.667 168H763.194V182H732.667V168Z"/>
<path d="M732.667 224H763.194V238H732.667V224Z"/>
<path d="M122.111 0H152.639V14H122.111V0Z"/>
<path d="M610.556 0H641.083V14H610.556V0Z"/>
<path d="M366.333 0H396.861V14H366.333V0Z"/>
<path d="M854.778 0H885.306V14H854.778V0Z"/>
<path d="M122.111 112H152.639V126H122.111V112Z"/>
<path d="M610.556 112H641.083V126H610.556V112Z"/>
<path d="M366.333 112H396.861V126H366.333V112Z"/>
<path d="M854.778 112H885.306V126H854.778V112Z"/>
<path d="M122.111 56H152.639V70H122.111V56Z"/>
<path d="M610.556 56H641.083V70H610.556V56Z"/>
<path d="M366.333 56H396.861V70H366.333V56Z"/>
<path d="M854.778 56H885.306V70H854.778V56Z"/>
<path d="M122.111 168H152.639V182H122.111V168Z"/>
<path d="M122.111 224H152.639V238H122.111V224Z"/>
<path d="M610.556 168H641.083V182H610.556V168Z"/>
<path d="M610.556 224H641.083V238H610.556V224Z"/>
<path d="M366.333 168H396.861V182H366.333V168Z"/>
<path d="M366.333 224H396.861V238H366.333V224Z"/>
<path d="M854.778 168H885.306V182H854.778V168Z"/>
<path d="M854.778 224H885.306V238H854.778V224Z"/>
<path d="M61.0556 0H91.5833V14H61.0556V0Z"/>
<path d="M549.5 0H580.028V14H549.5V0Z"/>
<path d="M305.278 0H335.806V14H305.278V0Z"/>
<path d="M793.722 0H824.25V14H793.722V0Z"/>
<path d="M61.0556 112H91.5833V126H61.0556V112Z"/>
<path d="M549.5 112H580.028V126H549.5V112Z"/>
<path d="M305.278 112H335.806V126H305.278V112Z"/>
<path d="M793.722 112H824.25V126H793.722V112Z"/>
<path d="M61.0556 56H91.5833V70H61.0556V56Z"/>
<path d="M549.5 56H580.028V70H549.5V56Z"/>
<path d="M305.278 56H335.806V70H305.278V56Z"/>
<path d="M793.722 56H824.25V70H793.722V56Z"/>
<path d="M61.0556 168H91.5833V182H61.0556V168Z"/>
<path d="M61.0556 224H91.5833V238H61.0556V224Z"/>
<path d="M549.5 168H580.028V182H549.5V168Z"/>
<path d="M549.5 224H580.028V238H549.5V224Z"/>
<path d="M305.278 168H335.806V182H305.278V168Z"/>
<path d="M305.278 224H335.806V238H305.278V224Z"/>
<path d="M793.722 168H824.25V182H793.722V168Z"/>
<path d="M793.722 224H824.25V238H793.722V224Z"/>
<path d="M183.167 0H213.694V14H183.167V0Z"/>
<path d="M671.611 0H702.139V14H671.611V0Z"/>
<path d="M427.389 0H457.917V14H427.389V0Z"/>
<path d="M915.833 0H946.361V14H915.833V0Z"/>
<path d="M1007.42 0H1037.94V14H1007.42V0Z"/>
<path d="M183.167 112H213.694V126H183.167V112Z"/>
<path d="M671.611 112H702.139V126H671.611V112Z"/>
<path d="M427.389 112H457.917V126H427.389V112Z"/>
<path d="M915.833 112H946.361V126H915.833V112Z"/>
<path d="M1007.42 112H1037.94V126H1007.42V112Z"/>
<path d="M183.167 56H213.694V70H183.167V56Z"/>
<path d="M671.611 56H702.139V70H671.611V56Z"/>
<path d="M427.389 56H457.917V70H427.389V56Z"/>
<path d="M915.833 56H946.361V70H915.833V56Z"/>
<path d="M1007.42 56H1037.94V70H1007.42V56Z"/>
<path d="M183.167 168H213.694V182H183.167V168Z"/>
<path d="M183.167 224H213.694V238H183.167V224Z"/>
<path d="M671.611 168H702.139V182H671.611V168Z"/>
<path d="M671.611 224H702.139V238H671.611V224Z"/>
<path d="M427.389 168H457.917V182H427.389V168Z"/>
<path d="M427.389 224H457.917V238H427.389V224Z"/>
<path d="M915.833 168H946.361V182H915.833V168Z"/>
<path d="M915.833 224H946.361V238H915.833V224Z"/>
<path d="M1007.42 168H1037.94V182H1007.42V168Z"/>
<path d="M1007.42 224H1037.94V238H1007.42V224Z"/>
<path d="M91.5833 42H122.111V56H91.5833V42Z"/>
<path d="M580.028 42H610.556V56H580.028V42Z"/>
<path d="M335.806 42H366.333V56H335.806V42Z"/>
<path d="M824.25 42H854.778V56H824.25V42Z"/>
<path d="M91.5833 154H122.111V168H91.5833V154Z"/>
<path d="M580.028 154H610.556V168H580.028V154Z"/>
<path d="M335.806 154H366.333V168H335.806V154Z"/>
<path d="M824.25 154H854.778V168H824.25V154Z"/>
<path d="M91.5833 98H122.111V112H91.5833V98Z"/>
<path d="M580.028 98H610.556V112H580.028V98Z"/>
<path d="M335.806 98H366.333V112H335.806V98Z"/>
<path d="M824.25 98H854.778V112H824.25V98Z"/>
<path d="M91.5833 210H122.111V224H91.5833V210Z"/>
<path d="M91.5833 266H122.111V280H91.5833V266Z"/>
<path d="M580.028 210H610.556V224H580.028V210Z"/>
<path d="M580.028 266H610.556V280H580.028V266Z"/>
<path d="M335.806 210H366.333V224H335.806V210Z"/>
<path d="M335.806 266H366.333V280H335.806V266Z"/>
<path d="M824.25 210H854.778V224H824.25V210Z"/>
<path d="M824.25 266H854.778V280H824.25V266Z"/>
<path d="M213.694 42H244.222V56H213.694V42Z"/>
<path d="M702.139 42H732.667V56H702.139V42Z"/>
<path d="M457.917 42H488.444V56H457.917V42Z"/>
<path d="M946.361 42H976.889V56H946.361V42Z"/>
<path d="M1037.94 42H1068.47V56H1037.94V42Z"/>
<path d="M1068.47 42H1099V56H1068.47V42Z"/>
<path d="M213.694 154H244.222V168H213.694V154Z"/>
<path d="M702.139 154H732.667V168H702.139V154Z"/>
<path d="M457.917 154H488.444V168H457.917V154Z"/>
<path d="M946.361 154H976.889V168H946.361V154Z"/>
<path d="M1037.94 154H1068.47V168H1037.94V154Z"/>
<path d="M1068.47 154H1099V168H1068.47V154Z"/>
<path d="M213.694 98H244.222V112H213.694V98Z"/>
<path d="M702.139 98H732.667V112H702.139V98Z"/>
<path d="M457.917 98H488.444V112H457.917V98Z"/>
<path d="M946.361 98H976.889V112H946.361V98Z"/>
<path d="M1037.94 98H1068.47V112H1037.94V98Z"/>
<path d="M1068.47 98H1099V112H1068.47V98Z"/>
<path d="M213.694 210H244.222V224H213.694V210Z"/>
<path d="M213.694 266H244.222V280H213.694V266Z"/>
<path d="M702.139 210H732.667V224H702.139V210Z"/>
<path d="M702.139 266H732.667V280H702.139V266Z"/>
<path d="M457.917 210H488.444V224H457.917V210Z"/>
<path d="M457.917 266H488.444V280H457.917V266Z"/>
<path d="M946.361 210H976.889V224H946.361V210Z"/>
<path d="M946.361 266H976.889V280H946.361V266Z"/>
<path d="M1037.94 210H1068.47V224H1037.94V210Z"/>
<path d="M1037.94 266H1068.47V280H1037.94V266Z"/>
<path d="M1068.47 210H1099V224H1068.47V210Z"/>
<path d="M1068.47 266H1099V280H1068.47V266Z"/>
<path d="M30.5278 42H61.0556V56H30.5278V42Z"/>
<path d="M518.972 42H549.5V56H518.972V42Z"/>
<path d="M274.75 42H305.278V56H274.75V42Z"/>
<path d="M763.194 42H793.722V56H763.194V42Z"/>
<path d="M30.5278 154H61.0556V168H30.5278V154Z"/>
<path d="M518.972 154H549.5V168H518.972V154Z"/>
<path d="M274.75 154H305.278V168H274.75V154Z"/>
<path d="M763.194 154H793.722V168H763.194V154Z"/>
<path d="M30.5278 98H61.0556V112H30.5278V98Z"/>
<path d="M518.972 98H549.5V112H518.972V98Z"/>
<path d="M274.75 98H305.278V112H274.75V98Z"/>
<path d="M763.194 98H793.722V112H763.194V98Z"/>
<path d="M30.5278 210H61.0556V224H30.5278V210Z"/>
<path d="M30.5278 266H61.0556V280H30.5278V266Z"/>
<path d="M518.972 210H549.5V224H518.972V210Z"/>
<path d="M518.972 266H549.5V280H518.972V266Z"/>
<path d="M274.75 210H305.278V224H274.75V210Z"/>
<path d="M274.75 266H305.278V280H274.75V266Z"/>
<path d="M763.194 210H793.722V224H763.194V210Z"/>
<path d="M763.194 266H793.722V280H763.194V266Z"/>
<path d="M152.639 42H183.167V56H152.639V42Z"/>
<path d="M641.083 42H671.611V56H641.083V42Z"/>
<path d="M396.861 42H427.389V56H396.861V42Z"/>
<path d="M885.306 42H915.833V56H885.306V42Z"/>
<path d="M976.889 42H1007.42V56H976.889V42Z"/>
<path d="M152.639 154H183.167V168H152.639V154Z"/>
<path d="M641.083 154H671.611V168H641.083V154Z"/>
<path d="M396.861 154H427.389V168H396.861V154Z"/>
<path d="M885.306 154H915.833V168H885.306V154Z"/>
<path d="M976.889 154H1007.42V168H976.889V154Z"/>
<path d="M152.639 98H183.167V112H152.639V98Z"/>
<path d="M641.083 98H671.611V112H641.083V98Z"/>
<path d="M396.861 98H427.389V112H396.861V98Z"/>
<path d="M885.306 98H915.833V112H885.306V98Z"/>
<path d="M976.889 98H1007.42V112H976.889V98Z"/>
<path d="M152.639 210H183.167V224H152.639V210Z"/>
<path d="M152.639 266H183.167V280H152.639V266Z"/>
<path d="M641.083 210H671.611V224H641.083V210Z"/>
<path d="M641.083 266H671.611V280H641.083V266Z"/>
<path d="M396.861 210H427.389V224H396.861V210Z"/>
<path d="M396.861 266H427.389V280H396.861V266Z"/>
<path d="M885.306 210H915.833V224H885.306V210Z"/>
<path d="M885.306 266H915.833V280H885.306V266Z"/>
<path d="M976.889 210H1007.42V224H976.889V210Z"/>
<path d="M976.889 266H1007.42V280H976.889V266Z"/>
<path d="M30.5278 14H61.0556V28H30.5278V14Z"/>
<path d="M518.972 14H549.5V28H518.972V14Z"/>
<path d="M274.75 14H305.278V28H274.75V14Z"/>
<path d="M763.194 14H793.722V28H763.194V14Z"/>
<path d="M30.5278 126H61.0556V140H30.5278V126Z"/>
<path d="M518.972 126H549.5V140H518.972V126Z"/>
<path d="M274.75 126H305.278V140H274.75V126Z"/>
<path d="M763.194 126H793.722V140H763.194V126Z"/>
<path d="M30.5278 70H61.0556V84H30.5278V70Z"/>
<path d="M518.972 70H549.5V84H518.972V70Z"/>
<path d="M274.75 70H305.278V84H274.75V70Z"/>
<path d="M763.194 70H793.722V84H763.194V70Z"/>
<path d="M30.5278 182H61.0556V196H30.5278V182Z"/>
<path d="M30.5278 238H61.0556V252H30.5278V238Z"/>
<path d="M518.972 182H549.5V196H518.972V182Z"/>
<path d="M518.972 238H549.5V252H518.972V238Z"/>
<path d="M274.75 182H305.278V196H274.75V182Z"/>
<path d="M274.75 238H305.278V252H274.75V238Z"/>
<path d="M763.194 182H793.722V196H763.194V182Z"/>
<path d="M763.194 238H793.722V252H763.194V238Z"/>
<path d="M152.639 14H183.167V28H152.639V14Z"/>
<path d="M641.083 14H671.611V28H641.083V14Z"/>
<path d="M396.861 14H427.389V28H396.861V14Z"/>
<path d="M885.306 14H915.833V28H885.306V14Z"/>
<path d="M976.889 14H1007.42V28H976.889V14Z"/>
<path d="M152.639 126H183.167V140H152.639V126Z"/>
<path d="M641.083 126H671.611V140H641.083V126Z"/>
<path d="M396.861 126H427.389V140H396.861V126Z"/>
<path d="M885.306 126H915.833V140H885.306V126Z"/>
<path d="M976.889 126H1007.42V140H976.889V126Z"/>
<path d="M152.639 70H183.167V84H152.639V70Z"/>
<path d="M641.083 70H671.611V84H641.083V70Z"/>
<path d="M396.861 70H427.389V84H396.861V70Z"/>
<path d="M885.306 70H915.833V84H885.306V70Z"/>
<path d="M976.889 70H1007.42V84H976.889V70Z"/>
<path d="M152.639 182H183.167V196H152.639V182Z"/>
<path d="M152.639 238H183.167V252H152.639V238Z"/>
<path d="M641.083 182H671.611V196H641.083V182Z"/>
<path d="M641.083 238H671.611V252H641.083V238Z"/>
<path d="M396.861 182H427.389V196H396.861V182Z"/>
<path d="M396.861 238H427.389V252H396.861V238Z"/>
<path d="M885.306 182H915.833V196H885.306V182Z"/>
<path d="M885.306 238H915.833V252H885.306V238Z"/>
<path d="M976.889 182H1007.42V196H976.889V182Z"/>
<path d="M976.889 238H1007.42V252H976.889V238Z"/>
<path d="M91.5833 14H122.111V28H91.5833V14Z"/>
<path d="M580.028 14H610.556V28H580.028V14Z"/>
<path d="M335.806 14H366.333V28H335.806V14Z"/>
<path d="M824.25 14H854.778V28H824.25V14Z"/>
<path d="M91.5833 126H122.111V140H91.5833V126Z"/>
<path d="M580.028 126H610.556V140H580.028V126Z"/>
<path d="M335.806 126H366.333V140H335.806V126Z"/>
<path d="M824.25 126H854.778V140H824.25V126Z"/>
<path d="M91.5833 70H122.111V84H91.5833V70Z"/>
<path d="M580.028 70H610.556V84H580.028V70Z"/>
<path d="M335.806 70H366.333V84H335.806V70Z"/>
<path d="M824.25 70H854.778V84H824.25V70Z"/>
<path d="M91.5833 182H122.111V196H91.5833V182Z"/>
<path d="M91.5833 238H122.111V252H91.5833V238Z"/>
<path d="M580.028 182H610.556V196H580.028V182Z"/>
<path d="M580.028 238H610.556V252H580.028V238Z"/>
<path d="M335.806 182H366.333V196H335.806V182Z"/>
<path d="M335.806 238H366.333V252H335.806V238Z"/>
<path d="M824.25 182H854.778V196H824.25V182Z"/>
<path d="M824.25 238H854.778V252H824.25V238Z"/>
<path d="M213.694 14H244.222V28H213.694V14Z"/>
<path d="M702.139 14H732.667V28H702.139V14Z"/>
<path d="M457.917 14H488.444V28H457.917V14Z"/>
<path d="M946.361 14H976.889V28H946.361V14Z"/>
<path d="M1037.94 14H1068.47V28H1037.94V14Z"/>
<path d="M1068.47 14H1099V28H1068.47V14Z"/>
<path d="M213.694 126H244.222V140H213.694V126Z"/>
<path d="M702.139 126H732.667V140H702.139V126Z"/>
<path d="M457.917 126H488.444V140H457.917V126Z"/>
<path d="M946.361 126H976.889V140H946.361V126Z"/>
<path d="M1037.94 126H1068.47V140H1037.94V126Z"/>
<path d="M1068.47 126H1099V140H1068.47V126Z"/>
<path d="M213.694 70H244.222V84H213.694V70Z"/>
<path d="M702.139 70H732.667V84H702.139V70Z"/>
<path d="M457.917 70H488.444V84H457.917V70Z"/>
<path d="M946.361 70H976.889V84H946.361V70Z"/>
<path d="M1037.94 70H1068.47V84H1037.94V70Z"/>
<path d="M1068.47 70H1099V84H1068.47V70Z"/>
<path d="M213.694 182H244.222V196H213.694V182Z"/>
<path d="M213.694 238H244.222V252H213.694V238Z"/>
<path d="M702.139 182H732.667V196H702.139V182Z"/>
<path d="M702.139 238H732.667V252H702.139V238Z"/>
<path d="M457.917 182H488.444V196H457.917V182Z"/>
<path d="M457.917 238H488.444V252H457.917V238Z"/>
<path d="M946.361 182H976.889V196H946.361V182Z"/>
<path d="M946.361 238H976.889V252H946.361V238Z"/>
<path d="M1037.94 182H1068.47V196H1037.94V182Z"/>
<path d="M1037.94 238H1068.47V252H1037.94V238Z"/>
<path d="M1068.47 182H1099V196H1068.47V182Z"/>
<path d="M1068.47 238H1099V252H1068.47V238Z"/>
<path d="M91.5833 28H122.111V42H91.5833V28Z"/>
<path d="M580.028 28H610.556V42H580.028V28Z"/>
<path d="M335.806 28H366.333V42H335.806V28Z"/>
<path d="M824.25 28H854.778V42H824.25V28Z"/>
<path d="M91.5833 140H122.111V154H91.5833V140Z"/>
<path d="M580.028 140H610.556V154H580.028V140Z"/>
<path d="M335.806 140H366.333V154H335.806V140Z"/>
<path d="M824.25 140H854.778V154H824.25V140Z"/>
<path d="M91.5833 84H122.111V98H91.5833V84Z"/>
<path d="M580.028 84H610.556V98H580.028V84Z"/>
<path d="M335.806 84H366.333V98H335.806V84Z"/>
<path d="M824.25 84H854.778V98H824.25V84Z"/>
<path d="M91.5833 196H122.111V210H91.5833V196Z"/>
<path d="M91.5833 252H122.111V266H91.5833V252Z"/>
<path d="M580.028 196H610.556V210H580.028V196Z"/>
<path d="M580.028 252H610.556V266H580.028V252Z"/>
<path d="M335.806 196H366.333V210H335.806V196Z"/>
<path d="M335.806 252H366.333V266H335.806V252Z"/>
<path d="M824.25 196H854.778V210H824.25V196Z"/>
<path d="M824.25 252H854.778V266H824.25V252Z"/>
<path d="M213.694 28H244.222V42H213.694V28Z"/>
<path d="M702.139 28H732.667V42H702.139V28Z"/>
<path d="M457.917 28H488.444V42H457.917V28Z"/>
<path d="M946.361 28H976.889V42H946.361V28Z"/>
<path d="M1037.94 28H1068.47V42H1037.94V28Z"/>
<path d="M1068.47 28H1099V42H1068.47V28Z"/>
<path d="M213.694 140H244.222V154H213.694V140Z"/>
<path d="M702.139 140H732.667V154H702.139V140Z"/>
<path d="M457.917 140H488.444V154H457.917V140Z"/>
<path d="M946.361 140H976.889V154H946.361V140Z"/>
<path d="M1037.94 140H1068.47V154H1037.94V140Z"/>
<path d="M1068.47 140H1099V154H1068.47V140Z"/>
<path d="M213.694 84H244.222V98H213.694V84Z"/>
<path d="M702.139 84H732.667V98H702.139V84Z"/>
<path d="M457.917 84H488.444V98H457.917V84Z"/>
<path d="M946.361 84H976.889V98H946.361V84Z"/>
<path d="M1037.94 84H1068.47V98H1037.94V84Z"/>
<path d="M1068.47 84H1099V98H1068.47V84Z"/>
<path d="M213.694 196H244.222V210H213.694V196Z"/>
<path d="M213.694 252H244.222V266H213.694V252Z"/>
<path d="M702.139 196H732.667V210H702.139V196Z"/>
<path d="M702.139 252H732.667V266H702.139V252Z"/>
<path d="M457.917 196H488.444V210H457.917V196Z"/>
<path d="M457.917 252H488.444V266H457.917V252Z"/>
<path d="M946.361 196H976.889V210H946.361V196Z"/>
<path d="M946.361 252H976.889V266H946.361V252Z"/>
<path d="M1037.94 196H1068.47V210H1037.94V196Z"/>
<path d="M1037.94 252H1068.47V266H1037.94V252Z"/>
<path d="M1068.47 196H1099V210H1068.47V196Z"/>
<path d="M1068.47 252H1099V266H1068.47V252Z"/>
<path d="M30.5278 28H61.0556V42H30.5278V28Z"/>
<path d="M518.972 28H549.5V42H518.972V28Z"/>
<path d="M274.75 28H305.278V42H274.75V28Z"/>
<path d="M763.194 28H793.722V42H763.194V28Z"/>
<path d="M30.5278 140H61.0556V154H30.5278V140Z"/>
<path d="M518.972 140H549.5V154H518.972V140Z"/>
<path d="M274.75 140H305.278V154H274.75V140Z"/>
<path d="M763.194 140H793.722V154H763.194V140Z"/>
<path d="M30.5278 84H61.0556V98H30.5278V84Z"/>
<path d="M518.972 84H549.5V98H518.972V84Z"/>
<path d="M274.75 84H305.278V98H274.75V84Z"/>
<path d="M763.194 84H793.722V98H763.194V84Z"/>
<path d="M30.5278 196H61.0556V210H30.5278V196Z"/>
<path d="M30.5278 252H61.0556V266H30.5278V252Z"/>
<path d="M518.972 196H549.5V210H518.972V196Z"/>
<path d="M518.972 252H549.5V266H518.972V252Z"/>
<path d="M274.75 196H305.278V210H274.75V196Z"/>
<path d="M274.75 252H305.278V266H274.75V252Z"/>
<path d="M763.194 196H793.722V210H763.194V196Z"/>
<path d="M763.194 252H793.722V266H763.194V252Z"/>
<path d="M152.639 28H183.167V42H152.639V28Z"/>
<path d="M641.083 28H671.611V42H641.083V28Z"/>
<path d="M396.861 28H427.389V42H396.861V28Z"/>
<path d="M885.306 28H915.833V42H885.306V28Z"/>
<path d="M976.889 28H1007.42V42H976.889V28Z"/>
<path d="M152.639 140H183.167V154H152.639V140Z"/>
<path d="M641.083 140H671.611V154H641.083V140Z"/>
<path d="M396.861 140H427.389V154H396.861V140Z"/>
<path d="M885.306 140H915.833V154H885.306V140Z"/>
<path d="M976.889 140H1007.42V154H976.889V140Z"/>
<path d="M152.639 84H183.167V98H152.639V84Z"/>
<path d="M641.083 84H671.611V98H641.083V84Z"/>
<path d="M396.861 84H427.389V98H396.861V84Z"/>
<path d="M885.306 84H915.833V98H885.306V84Z"/>
<path d="M976.889 84H1007.42V98H976.889V84Z"/>
<path d="M152.639 196H183.167V210H152.639V196Z"/>
<path d="M152.639 252H183.167V266H152.639V252Z"/>
<path d="M641.083 196H671.611V210H641.083V196Z"/>
<path d="M641.083 252H671.611V266H641.083V252Z"/>
<path d="M396.861 196H427.389V210H396.861V196Z"/>
<path d="M396.861 252H427.389V266H396.861V252Z"/>
<path d="M885.306 196H915.833V210H885.306V196Z"/>
<path d="M885.306 252H915.833V266H885.306V252Z"/>
<path d="M976.889 196H1007.42V210H976.889V196Z"/>
<path d="M976.889 252H1007.42V266H976.889V252Z"/>
<path d="M30.5278 0H61.0556V14H30.5278V0Z"/>
<path d="M518.972 0H549.5V14H518.972V0Z"/>
<path d="M274.75 0H305.278V14H274.75V0Z"/>
<path d="M763.194 0H793.722V14H763.194V0Z"/>
<path d="M30.5278 112H61.0556V126H30.5278V112Z"/>
<path d="M518.972 112H549.5V126H518.972V112Z"/>
<path d="M274.75 112H305.278V126H274.75V112Z"/>
<path d="M763.194 112H793.722V126H763.194V112Z"/>
<path d="M30.5278 56H61.0556V70H30.5278V56Z"/>
<path d="M518.972 56H549.5V70H518.972V56Z"/>
<path d="M274.75 56H305.278V70H274.75V56Z"/>
<path d="M763.194 56H793.722V70H763.194V56Z"/>
<path d="M30.5278 168H61.0556V182H30.5278V168Z"/>
<path d="M30.5278 224H61.0556V238H30.5278V224Z"/>
<path d="M518.972 168H549.5V182H518.972V168Z"/>
<path d="M518.972 224H549.5V238H518.972V224Z"/>
<path d="M274.75 168H305.278V182H274.75V168Z"/>
<path d="M274.75 224H305.278V238H274.75V224Z"/>
<path d="M763.194 168H793.722V182H763.194V168Z"/>
<path d="M763.194 224H793.722V238H763.194V224Z"/>
<path d="M152.639 0H183.167V14H152.639V0Z"/>
<path d="M641.083 0H671.611V14H641.083V0Z"/>
<path d="M396.861 0H427.389V14H396.861V0Z"/>
<path d="M885.306 0H915.833V14H885.306V0Z"/>
<path d="M976.889 0H1007.42V14H976.889V0Z"/>
<path d="M152.639 112H183.167V126H152.639V112Z"/>
<path d="M641.083 112H671.611V126H641.083V112Z"/>
<path d="M396.861 112H427.389V126H396.861V112Z"/>
<path d="M885.306 112H915.833V126H885.306V112Z"/>
<path d="M976.889 112H1007.42V126H976.889V112Z"/>
<path d="M152.639 56H183.167V70H152.639V56Z"/>
<path d="M641.083 56H671.611V70H641.083V56Z"/>
<path d="M396.861 56H427.389V70H396.861V56Z"/>
<path d="M885.306 56H915.833V70H885.306V56Z"/>
<path d="M976.889 56H1007.42V70H976.889V56Z"/>
<path d="M152.639 168H183.167V182H152.639V168Z"/>
<path d="M152.639 224H183.167V238H152.639V224Z"/>
<path d="M641.083 168H671.611V182H641.083V168Z"/>
<path d="M641.083 224H671.611V238H641.083V224Z"/>
<path d="M396.861 168H427.389V182H396.861V168Z"/>
<path d="M396.861 224H427.389V238H396.861V224Z"/>
<path d="M885.306 168H915.833V182H885.306V168Z"/>
<path d="M885.306 224H915.833V238H885.306V224Z"/>
<path d="M976.889 168H1007.42V182H976.889V168Z"/>
<path d="M976.889 224H1007.42V238H976.889V224Z"/>
<path d="M91.5833 0H122.111V14H91.5833V0Z"/>
<path d="M580.028 0H610.556V14H580.028V0Z"/>
<path d="M335.806 0H366.333V14H335.806V0Z"/>
<path d="M824.25 0H854.778V14H824.25V0Z"/>
<path d="M91.5833 112H122.111V126H91.5833V112Z"/>
<path d="M580.028 112H610.556V126H580.028V112Z"/>
<path d="M335.806 112H366.333V126H335.806V112Z"/>
<path d="M824.25 112H854.778V126H824.25V112Z"/>
<path d="M91.5833 56H122.111V70H91.5833V56Z"/>
<path d="M580.028 56H610.556V70H580.028V56Z"/>
<path d="M335.806 56H366.333V70H335.806V56Z"/>
<path d="M824.25 56H854.778V70H824.25V56Z"/>
<path d="M91.5833 168H122.111V182H91.5833V168Z"/>
<path d="M91.5833 224H122.111V238H91.5833V224Z"/>
<path d="M580.028 168H610.556V182H580.028V168Z"/>
<path d="M580.028 224H610.556V238H580.028V224Z"/>
<path d="M335.806 168H366.333V182H335.806V168Z"/>
<path d="M335.806 224H366.333V238H335.806V224Z"/>
<path d="M824.25 168H854.778V182H824.25V168Z"/>
<path d="M824.25 224H854.778V238H824.25V224Z"/>
<path d="M213.694 0H244.222V14H213.694V0Z"/>
<path d="M702.139 0H732.667V14H702.139V0Z"/>
<path d="M457.917 0H488.444V14H457.917V0Z"/>
<path d="M946.361 0H976.889V14H946.361V0Z"/>
<path d="M1037.94 0H1068.47V14H1037.94V0Z"/>
<path d="M1068.47 0H1099V14H1068.47V0Z"/>
<path d="M213.694 112H244.222V126H213.694V112Z"/>
<path d="M702.139 112H732.667V126H702.139V112Z"/>
<path d="M457.917 112H488.444V126H457.917V112Z"/>
<path d="M946.361 112H976.889V126H946.361V112Z"/>
<path d="M1037.94 112H1068.47V126H1037.94V112Z"/>
<path d="M1068.47 112H1099V126H1068.47V112Z"/>
<path d="M213.694 56H244.222V70H213.694V56Z"/>
<path d="M702.139 56H732.667V70H702.139V56Z"/>
<path d="M457.917 56H488.444V70H457.917V56Z"/>
<path d="M946.361 56H976.889V70H946.361V56Z"/>
<path d="M1037.94 56H1068.47V70H1037.94V56Z"/>
<path d="M1068.47 56H1099V70H1068.47V56Z"/>
<path d="M213.694 168H244.222V182H213.694V168Z"/>
<path d="M213.694 224H244.222V238H213.694V224Z"/>
<path d="M702.139 168H732.667V182H702.139V168Z"/>
<path d="M702.139 224H732.667V238H702.139V224Z"/>
<path d="M457.917 168H488.444V182H457.917V168Z"/>
<path d="M457.917 224H488.444V238H457.917V224Z"/>
<path d="M946.361 168H976.889V182H946.361V168Z"/>
<path d="M946.361 224H976.889V238H946.361V224Z"/>
<path d="M1037.94 168H1068.47V182H1037.94V168Z"/>
<path d="M1037.94 224H1068.47V238H1037.94V224Z"/>
<path d="M1068.47 168H1099V182H1068.47V168Z"/>
<path d="M1068.47 224H1099V238H1068.47V224Z"/>
</mask>
<path d="M61.0556 42.5H91.5833V41.5H61.0556V42.5ZM91.0833 42V56H92.0833V42H91.0833ZM91.5833 55.5H61.0556V56.5H91.5833V55.5ZM61.5556 56V42H60.5556V56H61.5556ZM549.5 42.5H580.028V41.5H549.5V42.5ZM579.528 42V56H580.528V42H579.528ZM580.028 55.5H549.5V56.5H580.028V55.5ZM550 56V42H549V56H550ZM305.278 42.5H335.806V41.5H305.278V42.5ZM335.306 42V56H336.306V42H335.306ZM335.806 55.5H305.278V56.5H335.806V55.5ZM305.778 56V42H304.778V56H305.778ZM793.722 42.5H824.25V41.5H793.722V42.5ZM823.75 42V56H824.75V42H823.75ZM824.25 55.5H793.722V56.5H824.25V55.5ZM794.222 56V42H793.222V56H794.222ZM61.0556 154.5H91.5833V153.5H61.0556V154.5ZM91.0833 154V168H92.0833V154H91.0833ZM91.5833 167.5H61.0556V168.5H91.5833V167.5ZM61.5556 168V154H60.5556V168H61.5556ZM549.5 154.5H580.028V153.5H549.5V154.5ZM579.528 154V168H580.528V154H579.528ZM580.028 167.5H549.5V168.5H580.028V167.5ZM550 168V154H549V168H550ZM305.278 154.5H335.806V153.5H305.278V154.5ZM335.306 154V168H336.306V154H335.306ZM335.806 167.5H305.278V168.5H335.806V167.5ZM305.778 168V154H304.778V168H305.778ZM793.722 154.5H824.25V153.5H793.722V154.5ZM823.75 154V168H824.75V154H823.75ZM824.25 167.5H793.722V168.5H824.25V167.5ZM794.222 168V154H793.222V168H794.222ZM61.0556 98.5H91.5833V97.5H61.0556V98.5ZM91.0833 98V112H92.0833V98H91.0833ZM91.5833 111.5H61.0556V112.5H91.5833V111.5ZM61.5556 112V98H60.5556V112H61.5556ZM549.5 98.5H580.028V97.5H549.5V98.5ZM579.528 98V112H580.528V98H579.528ZM580.028 111.5H549.5V112.5H580.028V111.5ZM550 112V98H549V112H550ZM305.278 98.5H335.806V97.5H305.278V98.5ZM335.306 98V112H336.306V98H335.306ZM335.806 111.5H305.278V112.5H335.806V111.5ZM305.778 112V98H304.778V112H305.778ZM793.722 98.5H824.25V97.5H793.722V98.5ZM823.75 98V112H824.75V98H823.75ZM824.25 111.5H793.722V112.5H824.25V111.5ZM794.222 112V98H793.222V112H794.222ZM61.0556 210.5H91.5833V209.5H61.0556V210.5ZM91.0833 210V224H92.0833V210H91.0833ZM91.5833 223.5H61.0556V224.5H91.5833V223.5ZM61.5556 224V210H60.5556V224H61.5556ZM61.0556 266.5H91.5833V265.5H61.0556V266.5ZM91.0833 266V280H92.0833V266H91.0833ZM61.5556 280V266H60.5556V280H61.5556ZM549.5 210.5H580.028V209.5H549.5V210.5ZM579.528 210V224H580.528V210H579.528ZM580.028 223.5H549.5V224.5H580.028V223.5ZM550 224V210H549V224H550ZM549.5 266.5H580.028V265.5H549.5V266.5ZM579.528 266V280H580.528V266H579.528ZM550 280V266H549V280H550ZM305.278 210.5H335.806V209.5H305.278V210.5ZM335.306 210V224H336.306V210H335.306ZM335.806 223.5H305.278V224.5H335.806V223.5ZM305.778 224V210H304.778V224H305.778ZM305.278 266.5H335.806V265.5H305.278V266.5ZM335.306 266V280H336.306V266H335.306ZM305.778 280V266H304.778V280H305.778ZM793.722 210.5H824.25V209.5H793.722V210.5ZM823.75 210V224H824.75V210H823.75ZM824.25 223.5H793.722V224.5H824.25V223.5ZM794.222 224V210H793.222V224H794.222ZM793.722 266.5H824.25V265.5H793.722V266.5ZM823.75 266V280H824.75V266H823.75ZM794.222 280V266H793.222V280H794.222ZM183.167 42.5H213.694V41.5H183.167V42.5ZM213.194 42V56H214.194V42H213.194ZM213.694 55.5H183.167V56.5H213.694V55.5ZM183.667 56V42H182.667V56H183.667ZM671.611 42.5H702.139V41.5H671.611V42.5ZM701.639 42V56H702.639V42H701.639ZM702.139 55.5H671.611V56.5H702.139V55.5ZM672.111 56V42H671.111V56H672.111ZM427.389 42.5H457.917V41.5H427.389V42.5ZM457.417 42V56H458.417V42H457.417ZM457.917 55.5H427.389V56.5H457.917V55.5ZM427.889 56V42H426.889V56H427.889ZM915.833 42.5H946.361V41.5H915.833V42.5ZM945.861 42V56H946.861V42H945.861ZM946.361 55.5H915.833V56.5H946.361V55.5ZM916.333 56V42H915.333V56H916.333ZM1007.42 42.5H1037.94V41.5H1007.42V42.5ZM1037.44 42V56H1038.44V42H1037.44ZM1037.94 55.5H1007.42V56.5H1037.94V55.5ZM1007.92 56V42H1006.92V56H1007.92ZM183.167 154.5H213.694V153.5H183.167V154.5ZM213.194 154V168H214.194V154H213.194ZM213.694 167.5H183.167V168.5H213.694V167.5ZM183.667 168V154H182.667V168H183.667ZM671.611 154.5H702.139V153.5H671.611V154.5ZM701.639 154V168H702.639V154H701.639ZM702.139 167.5H671.611V168.5H702.139V167.5ZM672.111 168V154H671.111V168H672.111ZM427.389 154.5H457.917V153.5H427.389V154.5ZM457.417 154V168H458.417V154H457.417ZM457.917 167.5H427.389V168.5H457.917V167.5ZM427.889 168V154H426.889V168H427.889ZM915.833 154.5H946.361V153.5H915.833V154.5ZM945.861 154V168H946.861V154H945.861ZM946.361 167.5H915.833V168.5H946.361V167.5ZM916.333 168V154H915.333V168H916.333ZM1007.42 154.5H1037.94V153.5H1007.42V154.5ZM1037.44 154V168H1038.44V154H1037.44ZM1037.94 167.5H1007.42V168.5H1037.94V167.5ZM1007.92 168V154H1006.92V168H1007.92ZM183.167 98.5H213.694V97.5H183.167V98.5ZM213.194 98V112H214.194V98H213.194ZM213.694 111.5H183.167V112.5H213.694V111.5ZM183.667 112V98H182.667V112H183.667ZM671.611 98.5H702.139V97.5H671.611V98.5ZM701.639 98V112H702.639V98H701.639ZM702.139 111.5H671.611V112.5H702.139V111.5ZM672.111 112V98H671.111V112H672.111ZM427.389 98.5H457.917V97.5H427.389V98.5ZM457.417 98V112H458.417V98H457.417ZM457.917 111.5H427.389V112.5H457.917V111.5ZM427.889 112V98H426.889V112H427.889ZM915.833 98.5H946.361V97.5H915.833V98.5ZM945.861 98V112H946.861V98H945.861ZM946.361 111.5H915.833V112.5H946.361V111.5ZM916.333 112V98H915.333V112H916.333ZM1007.42 98.5H1037.94V97.5H1007.42V98.5ZM1037.44 98V112H1038.44V98H1037.44ZM1037.94 111.5H1007.42V112.5H1037.94V111.5ZM1007.92 112V98H1006.92V112H1007.92ZM183.167 210.5H213.694V209.5H183.167V210.5ZM213.194 210V224H214.194V210H213.194ZM213.694 223.5H183.167V224.5H213.694V223.5ZM183.667 224V210H182.667V224H183.667ZM183.167 266.5H213.694V265.5H183.167V266.5ZM213.194 266V280H214.194V266H213.194ZM183.667 280V266H182.667V280H183.667ZM671.611 210.5H702.139V209.5H671.611V210.5ZM701.639 210V224H702.639V210H701.639ZM702.139 223.5H671.611V224.5H702.139V223.5ZM672.111 224V210H671.111V224H672.111ZM671.611 266.5H702.139V265.5H671.611V266.5ZM701.639 266V280H702.639V266H701.639ZM672.111 280V266H671.111V280H672.111ZM427.389 210.5H457.917V209.5H427.389V210.5ZM457.417 210V224H458.417V210H457.417ZM457.917 223.5H427.389V224.5H457.917V223.5ZM427.889 224V210H426.889V224H427.889ZM427.389 266.5H457.917V265.5H427.389V266.5ZM457.417 266V280H458.417V266H457.417ZM427.889 280V266H426.889V280H427.889ZM915.833 210.5H946.361V209.5H915.833V210.5ZM945.861 210V224H946.861V210H945.861ZM946.361 223.5H915.833V224.5H946.361V223.5ZM916.333 224V210H915.333V224H916.333ZM915.833 266.5H946.361V265.5H915.833V266.5ZM945.861 266V280H946.861V266H945.861ZM916.333 280V266H915.333V280H916.333ZM1007.42 210.5H1037.94V209.5H1007.42V210.5ZM1037.44 210V224H1038.44V210H1037.44ZM1037.94 223.5H1007.42V224.5H1037.94V223.5ZM1007.92 224V210H1006.92V224H1007.92ZM1007.42 266.5H1037.94V265.5H1007.42V266.5ZM1037.44 266V280H1038.44V266H1037.44ZM1007.92 280V266H1006.92V280H1007.92ZM0 42.5H30.5278V41.5H0V42.5ZM30.0278 42V56H31.0278V42H30.0278ZM30.5278 55.5H0V56.5H30.5278V55.5ZM488.444 42.5H518.972V41.5H488.444V42.5ZM518.472 42V56H519.472V42H518.472ZM518.972 55.5H488.444V56.5H518.972V55.5ZM488.944 56V42H487.944V56H488.944ZM244.222 42.5H274.75V41.5H244.222V42.5ZM274.25 42V56H275.25V42H274.25ZM274.75 55.5H244.222V56.5H274.75V55.5ZM244.722 56V42H243.722V56H244.722ZM732.667 42.5H763.194V41.5H732.667V42.5ZM762.694 42V56H763.694V42H762.694ZM763.194 55.5H732.667V56.5H763.194V55.5ZM733.167 56V42H732.167V56H733.167ZM0 154.5H30.5278V153.5H0V154.5ZM30.0278 154V168H31.0278V154H30.0278ZM30.5278 167.5H0V168.5H30.5278V167.5ZM488.444 154.5H518.972V153.5H488.444V154.5ZM518.472 154V168H519.472V154H518.472ZM518.972 167.5H488.444V168.5H518.972V167.5ZM488.944 168V154H487.944V168H488.944ZM244.222 154.5H274.75V153.5H244.222V154.5ZM274.25 154V168H275.25V154H274.25ZM274.75 167.5H244.222V168.5H274.75V167.5ZM244.722 168V154H243.722V168H244.722ZM732.667 154.5H763.194V153.5H732.667V154.5ZM762.694 154V168H763.694V154H762.694ZM763.194 167.5H732.667V168.5H763.194V167.5ZM733.167 168V154H732.167V168H733.167ZM0 98.5H30.5278V97.5H0V98.5ZM30.0278 98V112H31.0278V98H30.0278ZM30.5278 111.5H0V112.5H30.5278V111.5ZM488.444 98.5H518.972V97.5H488.444V98.5ZM518.472 98V112H519.472V98H518.472ZM518.972 111.5H488.444V112.5H518.972V111.5ZM488.944 112V98H487.944V112H488.944ZM244.222 98.5H274.75V97.5H244.222V98.5ZM274.25 98V112H275.25V98H274.25ZM274.75 111.5H244.222V112.5H274.75V111.5ZM244.722 112V98H243.722V112H244.722ZM732.667 98.5H763.194V97.5H732.667V98.5ZM762.694 98V112H763.694V98H762.694ZM763.194 111.5H732.667V112.5H763.194V111.5ZM733.167 112V98H732.167V112H733.167ZM0 210.5H30.5278V209.5H0V210.5ZM30.0278 210V224H31.0278V210H30.0278ZM30.5278 223.5H0V224.5H30.5278V223.5ZM0 266.5H30.5278V265.5H0V266.5ZM30.0278 266V280H31.0278V266H30.0278ZM488.444 210.5H518.972V209.5H488.444V210.5ZM518.472 210V224H519.472V210H518.472ZM518.972 223.5H488.444V224.5H518.972V223.5ZM488.944 224V210H487.944V224H488.944ZM488.444 266.5H518.972V265.5H488.444V266.5ZM518.472 266V280H519.472V266H518.472ZM488.944 280V266H487.944V280H488.944ZM244.222 210.5H274.75V209.5H244.222V210.5ZM274.25 210V224H275.25V210H274.25ZM274.75 223.5H244.222V224.5H274.75V223.5ZM244.722 224V210H243.722V224H244.722ZM244.222 266.5H274.75V265.5H244.222V266.5ZM274.25 266V280H275.25V266H274.25ZM244.722 280V266H243.722V280H244.722ZM732.667 210.5H763.194V209.5H732.667V210.5ZM762.694 210V224H763.694V210H762.694ZM763.194 223.5H732.667V224.5H763.194V223.5ZM733.167 224V210H732.167V224H733.167ZM732.667 266.5H763.194V265.5H732.667V266.5ZM762.694 266V280H763.694V266H762.694ZM733.167 280V266H732.167V280H733.167ZM122.111 42.5H152.639V41.5H122.111V42.5ZM152.139 42V56H153.139V42H152.139ZM152.639 55.5H122.111V56.5H152.639V55.5ZM122.611 56V42H121.611V56H122.611ZM610.556 42.5H641.083V41.5H610.556V42.5ZM640.583 42V56H641.583V42H640.583ZM641.083 55.5H610.556V56.5H641.083V55.5ZM611.056 56V42H610.056V56H611.056ZM366.333 42.5H396.861V41.5H366.333V42.5ZM396.361 42V56H397.361V42H396.361ZM396.861 55.5H366.333V56.5H396.861V55.5ZM366.833 56V42H365.833V56H366.833ZM854.778 42.5H885.306V41.5H854.778V42.5ZM884.806 42V56H885.806V42H884.806ZM885.306 55.5H854.778V56.5H885.306V55.5ZM855.278 56V42H854.278V56H855.278ZM122.111 154.5H152.639V153.5H122.111V154.5ZM152.139 154V168H153.139V154H152.139ZM152.639 167.5H122.111V168.5H152.639V167.5ZM122.611 168V154H121.611V168H122.611ZM610.556 154.5H641.083V153.5H610.556V154.5ZM640.583 154V168H641.583V154H640.583ZM641.083 167.5H610.556V168.5H641.083V167.5ZM611.056 168V154H610.056V168H611.056ZM366.333 154.5H396.861V153.5H366.333V154.5ZM396.361 154V168H397.361V154H396.361ZM396.861 167.5H366.333V168.5H396.861V167.5ZM366.833 168V154H365.833V168H366.833ZM854.778 154.5H885.306V153.5H854.778V154.5ZM884.806 154V168H885.806V154H884.806ZM885.306 167.5H854.778V168.5H885.306V167.5ZM855.278 168V154H854.278V168H855.278ZM122.111 98.5H152.639V97.5H122.111V98.5ZM152.139 98V112H153.139V98H152.139ZM152.639 111.5H122.111V112.5H152.639V111.5ZM122.611 112V98H121.611V112H122.611ZM610.556 98.5H641.083V97.5H610.556V98.5ZM640.583 98V112H641.583V98H640.583ZM641.083 111.5H610.556V112.5H641.083V111.5ZM611.056 112V98H610.056V112H611.056ZM366.333 98.5H396.861V97.5H366.333V98.5ZM396.361 98V112H397.361V98H396.361ZM396.861 111.5H366.333V112.5H396.861V111.5ZM366.833 112V98H365.833V112H366.833ZM854.778 98.5H885.306V97.5H854.778V98.5ZM884.806 98V112H885.806V98H884.806ZM885.306 111.5H854.778V112.5H885.306V111.5ZM855.278 112V98H854.278V112H855.278ZM122.111 210.5H152.639V209.5H122.111V210.5ZM152.139 210V224H153.139V210H152.139ZM152.639 223.5H122.111V224.5H152.639V223.5ZM122.611 224V210H121.611V224H122.611ZM122.111 266.5H152.639V265.5H122.111V266.5ZM152.139 266V280H153.139V266H152.139ZM122.611 280V266H121.611V280H122.611ZM610.556 210.5H641.083V209.5H610.556V210.5ZM640.583 210V224H641.583V210H640.583ZM641.083 223.5H610.556V224.5H641.083V223.5ZM611.056 224V210H610.056V224H611.056ZM610.556 266.5H641.083V265.5H610.556V266.5ZM640.583 266V280H641.583V266H640.583ZM611.056 280V266H610.056V280H611.056ZM366.333 210.5H396.861V209.5H366.333V210.5ZM396.361 210V224H397.361V210H396.361ZM396.861 223.5H366.333V224.5H396.861V223.5ZM366.833 224V210H365.833V224H366.833ZM366.333 266.5H396.861V265.5H366.333V266.5ZM396.361 266V280H397.361V266H396.361ZM366.833 280V266H365.833V280H366.833ZM854.778 210.5H885.306V209.5H854.778V210.5ZM884.806 210V224H885.806V210H884.806ZM885.306 223.5H854.778V224.5H885.306V223.5ZM855.278 224V210H854.278V224H855.278ZM854.778 266.5H885.306V265.5H854.778V266.5ZM884.806 266V280H885.806V266H884.806ZM855.278 280V266H854.278V280H855.278ZM0 14.5H30.5278V13.5H0V14.5ZM30.0278 14V28H31.0278V14H30.0278ZM30.5278 27.5H0V28.5H30.5278V27.5ZM488.444 14.5H518.972V13.5H488.444V14.5ZM518.472 14V28H519.472V14H518.472ZM518.972 27.5H488.444V28.5H518.972V27.5ZM488.944 28V14H487.944V28H488.944ZM244.222 14.5H274.75V13.5H244.222V14.5ZM274.25 14V28H275.25V14H274.25ZM274.75 27.5H244.222V28.5H274.75V27.5ZM244.722 28V14H243.722V28H244.722ZM732.667 14.5H763.194V13.5H732.667V14.5ZM762.694 14V28H763.694V14H762.694ZM763.194 27.5H732.667V28.5H763.194V27.5ZM733.167 28V14H732.167V28H733.167ZM0 126.5H30.5278V125.5H0V126.5ZM30.0278 126V140H31.0278V126H30.0278ZM30.5278 139.5H0V140.5H30.5278V139.5ZM488.444 126.5H518.972V125.5H488.444V126.5ZM518.472 126V140H519.472V126H518.472ZM518.972 139.5H488.444V140.5H518.972V139.5ZM488.944 140V126H487.944V140H488.944ZM244.222 126.5H274.75V125.5H244.222V126.5ZM274.25 126V140H275.25V126H274.25ZM274.75 139.5H244.222V140.5H274.75V139.5ZM244.722 140V126H243.722V140H244.722ZM732.667 126.5H763.194V125.5H732.667V126.5ZM762.694 126V140H763.694V126H762.694ZM763.194 139.5H732.667V140.5H763.194V139.5ZM733.167 140V126H732.167V140H733.167ZM0 70.5H30.5278V69.5H0V70.5ZM30.0278 70V84H31.0278V70H30.0278ZM30.5278 83.5H0V84.5H30.5278V83.5ZM488.444 70.5H518.972V69.5H488.444V70.5ZM518.472 70V84H519.472V70H518.472ZM518.972 83.5H488.444V84.5H518.972V83.5ZM488.944 84V70H487.944V84H488.944ZM244.222 70.5H274.75V69.5H244.222V70.5ZM274.25 70V84H275.25V70H274.25ZM274.75 83.5H244.222V84.5H274.75V83.5ZM244.722 84V70H243.722V84H244.722ZM732.667 70.5H763.194V69.5H732.667V70.5ZM762.694 70V84H763.694V70H762.694ZM763.194 83.5H732.667V84.5H763.194V83.5ZM733.167 84V70H732.167V84H733.167ZM0 182.5H30.5278V181.5H0V182.5ZM30.0278 182V196H31.0278V182H30.0278ZM30.5278 195.5H0V196.5H30.5278V195.5ZM0 238.5H30.5278V237.5H0V238.5ZM30.0278 238V252H31.0278V238H30.0278ZM30.5278 251.5H0V252.5H30.5278V251.5ZM488.444 182.5H518.972V181.5H488.444V182.5ZM518.472 182V196H519.472V182H518.472ZM518.972 195.5H488.444V196.5H518.972V195.5ZM488.944 196V182H487.944V196H488.944ZM488.444 238.5H518.972V237.5H488.444V238.5ZM518.472 238V252H519.472V238H518.472ZM518.972 251.5H488.444V252.5H518.972V251.5ZM488.944 252V238H487.944V252H488.944ZM244.222 182.5H274.75V181.5H244.222V182.5ZM274.25 182V196H275.25V182H274.25ZM274.75 195.5H244.222V196.5H274.75V195.5ZM244.722 196V182H243.722V196H244.722ZM244.222 238.5H274.75V237.5H244.222V238.5ZM274.25 238V252H275.25V238H274.25ZM274.75 251.5H244.222V252.5H274.75V251.5ZM244.722 252V238H243.722V252H244.722ZM732.667 182.5H763.194V181.5H732.667V182.5ZM762.694 182V196H763.694V182H762.694ZM763.194 195.5H732.667V196.5H763.194V195.5ZM733.167 196V182H732.167V196H733.167ZM732.667 238.5H763.194V237.5H732.667V238.5ZM762.694 238V252H763.694V238H762.694ZM763.194 251.5H732.667V252.5H763.194V251.5ZM733.167 252V238H732.167V252H733.167ZM122.111 14.5H152.639V13.5H122.111V14.5ZM152.139 14V28H153.139V14H152.139ZM152.639 27.5H122.111V28.5H152.639V27.5ZM122.611 28V14H121.611V28H122.611ZM610.556 14.5H641.083V13.5H610.556V14.5ZM640.583 14V28H641.583V14H640.583ZM641.083 27.5H610.556V28.5H641.083V27.5ZM611.056 28V14H610.056V28H611.056ZM366.333 14.5H396.861V13.5H366.333V14.5ZM396.361 14V28H397.361V14H396.361ZM396.861 27.5H366.333V28.5H396.861V27.5ZM366.833 28V14H365.833V28H366.833ZM854.778 14.5H885.306V13.5H854.778V14.5ZM884.806 14V28H885.806V14H884.806ZM885.306 27.5H854.778V28.5H885.306V27.5ZM855.278 28V14H854.278V28H855.278ZM122.111 126.5H152.639V125.5H122.111V126.5ZM152.139 126V140H153.139V126H152.139ZM152.639 139.5H122.111V140.5H152.639V139.5ZM122.611 140V126H121.611V140H122.611ZM610.556 126.5H641.083V125.5H610.556V126.5ZM640.583 126V140H641.583V126H640.583ZM641.083 139.5H610.556V140.5H641.083V139.5ZM611.056 140V126H610.056V140H611.056ZM366.333 126.5H396.861V125.5H366.333V126.5ZM396.361 126V140H397.361V126H396.361ZM396.861 139.5H366.333V140.5H396.861V139.5ZM366.833 140V126H365.833V140H366.833ZM854.778 126.5H885.306V125.5H854.778V126.5ZM884.806 126V140H885.806V126H884.806ZM885.306 139.5H854.778V140.5H885.306V139.5ZM855.278 140V126H854.278V140H855.278ZM122.111 70.5H152.639V69.5H122.111V70.5ZM152.139 70V84H153.139V70H152.139ZM152.639 83.5H122.111V84.5H152.639V83.5ZM122.611 84V70H121.611V84H122.611ZM610.556 70.5H641.083V69.5H610.556V70.5ZM640.583 70V84H641.583V70H640.583ZM641.083 83.5H610.556V84.5H641.083V83.5ZM611.056 84V70H610.056V84H611.056ZM366.333 70.5H396.861V69.5H366.333V70.5ZM396.361 70V84H397.361V70H396.361ZM396.861 83.5H366.333V84.5H396.861V83.5ZM366.833 84V70H365.833V84H366.833ZM854.778 70.5H885.306V69.5H854.778V70.5ZM884.806 70V84H885.806V70H884.806ZM885.306 83.5H854.778V84.5H885.306V83.5ZM855.278 84V70H854.278V84H855.278ZM122.111 182.5H152.639V181.5H122.111V182.5ZM152.139 182V196H153.139V182H152.139ZM152.639 195.5H122.111V196.5H152.639V195.5ZM122.611 196V182H121.611V196H122.611ZM122.111 238.5H152.639V237.5H122.111V238.5ZM152.139 238V252H153.139V238H152.139ZM152.639 251.5H122.111V252.5H152.639V251.5ZM122.611 252V238H121.611V252H122.611ZM610.556 182.5H641.083V181.5H610.556V182.5ZM640.583 182V196H641.583V182H640.583ZM641.083 195.5H610.556V196.5H641.083V195.5ZM611.056 196V182H610.056V196H611.056ZM610.556 238.5H641.083V237.5H610.556V238.5ZM640.583 238V252H641.583V238H640.583ZM641.083 251.5H610.556V252.5H641.083V251.5ZM611.056 252V238H610.056V252H611.056ZM366.333 182.5H396.861V181.5H366.333V182.5ZM396.361 182V196H397.361V182H396.361ZM396.861 195.5H366.333V196.5H396.861V195.5ZM366.833 196V182H365.833V196H366.833ZM366.333 238.5H396.861V237.5H366.333V238.5ZM396.361 238V252H397.361V238H396.361ZM396.861 251.5H366.333V252.5H396.861V251.5ZM366.833 252V238H365.833V252H366.833ZM854.778 182.5H885.306V181.5H854.778V182.5ZM884.806 182V196H885.806V182H884.806ZM885.306 195.5H854.778V196.5H885.306V195.5ZM855.278 196V182H854.278V196H855.278ZM854.778 238.5H885.306V237.5H854.778V238.5ZM884.806 238V252H885.806V238H884.806ZM885.306 251.5H854.778V252.5H885.306V251.5ZM855.278 252V238H854.278V252H855.278ZM61.0556 14.5H91.5833V13.5H61.0556V14.5ZM91.0833 14V28H92.0833V14H91.0833ZM91.5833 27.5H61.0556V28.5H91.5833V27.5ZM61.5556 28V14H60.5556V28H61.5556ZM549.5 14.5H580.028V13.5H549.5V14.5ZM579.528 14V28H580.528V14H579.528ZM580.028 27.5H549.5V28.5H580.028V27.5ZM550 28V14H549V28H550ZM305.278 14.5H335.806V13.5H305.278V14.5ZM335.306 14V28H336.306V14H335.306ZM335.806 27.5H305.278V28.5H335.806V27.5ZM305.778 28V14H304.778V28H305.778ZM793.722 14.5H824.25V13.5H793.722V14.5ZM823.75 14V28H824.75V14H823.75ZM824.25 27.5H793.722V28.5H824.25V27.5ZM794.222 28V14H793.222V28H794.222ZM61.0556 126.5H91.5833V125.5H61.0556V126.5ZM91.0833 126V140H92.0833V126H91.0833ZM91.5833 139.5H61.0556V140.5H91.5833V139.5ZM61.5556 140V126H60.5556V140H61.5556ZM549.5 126.5H580.028V125.5H549.5V126.5ZM579.528 126V140H580.528V126H579.528ZM580.028 139.5H549.5V140.5H580.028V139.5ZM550 140V126H549V140H550ZM305.278 126.5H335.806V125.5H305.278V126.5ZM335.306 126V140H336.306V126H335.306ZM335.806 139.5H305.278V140.5H335.806V139.5ZM305.778 140V126H304.778V140H305.778ZM793.722 126.5H824.25V125.5H793.722V126.5ZM823.75 126V140H824.75V126H823.75ZM824.25 139.5H793.722V140.5H824.25V139.5ZM794.222 140V126H793.222V140H794.222ZM61.0556 70.5H91.5833V69.5H61.0556V70.5ZM91.0833 70V84H92.0833V70H91.0833ZM91.5833 83.5H61.0556V84.5H91.5833V83.5ZM61.5556 84V70H60.5556V84H61.5556ZM549.5 70.5H580.028V69.5H549.5V70.5ZM579.528 70V84H580.528V70H579.528ZM580.028 83.5H549.5V84.5H580.028V83.5ZM550 84V70H549V84H550ZM305.278 70.5H335.806V69.5H305.278V70.5ZM335.306 70V84H336.306V70H335.306ZM335.806 83.5H305.278V84.5H335.806V83.5ZM305.778 84V70H304.778V84H305.778ZM793.722 70.5H824.25V69.5H793.722V70.5ZM823.75 70V84H824.75V70H823.75ZM824.25 83.5H793.722V84.5H824.25V83.5ZM794.222 84V70H793.222V84H794.222ZM61.0556 182.5H91.5833V181.5H61.0556V182.5ZM91.0833 182V196H92.0833V182H91.0833ZM91.5833 195.5H61.0556V196.5H91.5833V195.5ZM61.5556 196V182H60.5556V196H61.5556ZM61.0556 238.5H91.5833V237.5H61.0556V238.5ZM91.0833 238V252H92.0833V238H91.0833ZM91.5833 251.5H61.0556V252.5H91.5833V251.5ZM61.5556 252V238H60.5556V252H61.5556ZM549.5 182.5H580.028V181.5H549.5V182.5ZM579.528 182V196H580.528V182H579.528ZM580.028 195.5H549.5V196.5H580.028V195.5ZM550 196V182H549V196H550ZM549.5 238.5H580.028V237.5H549.5V238.5ZM579.528 238V252H580.528V238H579.528ZM580.028 251.5H549.5V252.5H580.028V251.5ZM550 252V238H549V252H550ZM305.278 182.5H335.806V181.5H305.278V182.5ZM335.306 182V196H336.306V182H335.306ZM335.806 195.5H305.278V196.5H335.806V195.5ZM305.778 196V182H304.778V196H305.778ZM305.278 238.5H335.806V237.5H305.278V238.5ZM335.306 238V252H336.306V238H335.306ZM335.806 251.5H305.278V252.5H335.806V251.5ZM305.778 252V238H304.778V252H305.778ZM793.722 182.5H824.25V181.5H793.722V182.5ZM823.75 182V196H824.75V182H823.75ZM824.25 195.5H793.722V196.5H824.25V195.5ZM794.222 196V182H793.222V196H794.222ZM793.722 238.5H824.25V237.5H793.722V238.5ZM823.75 238V252H824.75V238H823.75ZM824.25 251.5H793.722V252.5H824.25V251.5ZM794.222 252V238H793.222V252H794.222ZM183.167 14.5H213.694V13.5H183.167V14.5ZM213.194 14V28H214.194V14H213.194ZM213.694 27.5H183.167V28.5H213.694V27.5ZM183.667 28V14H182.667V28H183.667ZM671.611 14.5H702.139V13.5H671.611V14.5ZM701.639 14V28H702.639V14H701.639ZM702.139 27.5H671.611V28.5H702.139V27.5ZM672.111 28V14H671.111V28H672.111ZM427.389 14.5H457.917V13.5H427.389V14.5ZM457.417 14V28H458.417V14H457.417ZM457.917 27.5H427.389V28.5H457.917V27.5ZM427.889 28V14H426.889V28H427.889ZM915.833 14.5H946.361V13.5H915.833V14.5ZM945.861 14V28H946.861V14H945.861ZM946.361 27.5H915.833V28.5H946.361V27.5ZM916.333 28V14H915.333V28H916.333ZM1007.42 14.5H1037.94V13.5H1007.42V14.5ZM1037.44 14V28H1038.44V14H1037.44ZM1037.94 27.5H1007.42V28.5H1037.94V27.5ZM1007.92 28V14H1006.92V28H1007.92ZM183.167 126.5H213.694V125.5H183.167V126.5ZM213.194 126V140H214.194V126H213.194ZM213.694 139.5H183.167V140.5H213.694V139.5ZM183.667 140V126H182.667V140H183.667ZM671.611 126.5H702.139V125.5H671.611V126.5ZM701.639 126V140H702.639V126H701.639ZM702.139 139.5H671.611V140.5H702.139V139.5ZM672.111 140V126H671.111V140H672.111ZM427.389 126.5H457.917V125.5H427.389V126.5ZM457.417 126V140H458.417V126H457.417ZM457.917 139.5H427.389V140.5H457.917V139.5ZM427.889 140V126H426.889V140H427.889ZM915.833 126.5H946.361V125.5H915.833V126.5ZM945.861 126V140H946.861V126H945.861ZM946.361 139.5H915.833V140.5H946.361V139.5ZM916.333 140V126H915.333V140H916.333ZM1007.42 126.5H1037.94V125.5H1007.42V126.5ZM1037.44 126V140H1038.44V126H1037.44ZM1037.94 139.5H1007.42V140.5H1037.94V139.5ZM1007.92 140V126H1006.92V140H1007.92ZM183.167 70.5H213.694V69.5H183.167V70.5ZM213.194 70V84H214.194V70H213.194ZM213.694 83.5H183.167V84.5H213.694V83.5ZM183.667 84V70H182.667V84H183.667ZM671.611 70.5H702.139V69.5H671.611V70.5ZM701.639 70V84H702.639V70H701.639ZM702.139 83.5H671.611V84.5H702.139V83.5ZM672.111 84V70H671.111V84H672.111ZM427.389 70.5H457.917V69.5H427.389V70.5ZM457.417 70V84H458.417V70H457.417ZM457.917 83.5H427.389V84.5H457.917V83.5ZM427.889 84V70H426.889V84H427.889ZM915.833 70.5H946.361V69.5H915.833V70.5ZM945.861 70V84H946.861V70H945.861ZM946.361 83.5H915.833V84.5H946.361V83.5ZM916.333 84V70H915.333V84H916.333ZM1007.42 70.5H1037.94V69.5H1007.42V70.5ZM1037.44 70V84H1038.44V70H1037.44ZM1037.94 83.5H1007.42V84.5H1037.94V83.5ZM1007.92 84V70H1006.92V84H1007.92ZM183.167 182.5H213.694V181.5H183.167V182.5ZM213.194 182V196H214.194V182H213.194ZM213.694 195.5H183.167V196.5H213.694V195.5ZM183.667 196V182H182.667V196H183.667ZM183.167 238.5H213.694V237.5H183.167V238.5ZM213.194 238V252H214.194V238H213.194ZM213.694 251.5H183.167V252.5H213.694V251.5ZM183.667 252V238H182.667V252H183.667ZM671.611 182.5H702.139V181.5H671.611V182.5ZM701.639 182V196H702.639V182H701.639ZM702.139 195.5H671.611V196.5H702.139V195.5ZM672.111 196V182H671.111V196H672.111ZM671.611 238.5H702.139V237.5H671.611V238.5ZM701.639 238V252H702.639V238H701.639ZM702.139 251.5H671.611V252.5H702.139V251.5ZM672.111 252V238H671.111V252H672.111ZM427.389 182.5H457.917V181.5H427.389V182.5ZM457.417 182V196H458.417V182H457.417ZM457.917 195.5H427.389V196.5H457.917V195.5ZM427.889 196V182H426.889V196H427.889ZM427.389 238.5H457.917V237.5H427.389V238.5ZM457.417 238V252H458.417V238H457.417ZM457.917 251.5H427.389V252.5H457.917V251.5ZM427.889 252V238H426.889V252H427.889ZM915.833 182.5H946.361V181.5H915.833V182.5ZM945.861 182V196H946.861V182H945.861ZM946.361 195.5H915.833V196.5H946.361V195.5ZM916.333 196V182H915.333V196H916.333ZM915.833 238.5H946.361V237.5H915.833V238.5ZM945.861 238V252H946.861V238H945.861ZM946.361 251.5H915.833V252.5H946.361V251.5ZM916.333 252V238H915.333V252H916.333ZM1007.42 182.5H1037.94V181.5H1007.42V182.5ZM1037.44 182V196H1038.44V182H1037.44ZM1037.94 195.5H1007.42V196.5H1037.94V195.5ZM1007.92 196V182H1006.92V196H1007.92ZM1007.42 238.5H1037.94V237.5H1007.42V238.5ZM1037.44 238V252H1038.44V238H1037.44ZM1037.94 251.5H1007.42V252.5H1037.94V251.5ZM1007.92 252V238H1006.92V252H1007.92ZM91.0833 28V42H92.0833V28H91.0833ZM61.5556 42V28H60.5556V42H61.5556ZM579.528 28V42H580.528V28H579.528ZM550 42V28H549V42H550ZM335.306 28V42H336.306V28H335.306ZM305.778 42V28H304.778V42H305.778ZM823.75 28V42H824.75V28H823.75ZM794.222 42V28H793.222V42H794.222ZM91.0833 140V154H92.0833V140H91.0833ZM61.5556 154V140H60.5556V154H61.5556ZM579.528 140V154H580.528V140H579.528ZM550 154V140H549V154H550ZM335.306 140V154H336.306V140H335.306ZM305.778 154V140H304.778V154H305.778ZM823.75 140V154H824.75V140H823.75ZM794.222 154V140H793.222V154H794.222ZM91.0833 84V98H92.0833V84H91.0833ZM61.5556 98V84H60.5556V98H61.5556ZM579.528 84V98H580.528V84H579.528ZM550 98V84H549V98H550ZM335.306 84V98H336.306V84H335.306ZM305.778 98V84H304.778V98H305.778ZM823.75 84V98H824.75V84H823.75ZM794.222 98V84H793.222V98H794.222ZM91.0833 196V210H92.0833V196H91.0833ZM61.5556 210V196H60.5556V210H61.5556ZM91.0833 252V266H92.0833V252H91.0833ZM61.5556 266V252H60.5556V266H61.5556ZM579.528 196V210H580.528V196H579.528ZM550 210V196H549V210H550ZM579.528 252V266H580.528V252H579.528ZM550 266V252H549V266H550ZM335.306 196V210H336.306V196H335.306ZM305.778 210V196H304.778V210H305.778ZM335.306 252V266H336.306V252H335.306ZM305.778 266V252H304.778V266H305.778ZM823.75 196V210H824.75V196H823.75ZM794.222 210V196H793.222V210H794.222ZM823.75 252V266H824.75V252H823.75ZM794.222 266V252H793.222V266H794.222ZM213.194 28V42H214.194V28H213.194ZM183.667 42V28H182.667V42H183.667ZM701.639 28V42H702.639V28H701.639ZM672.111 42V28H671.111V42H672.111ZM457.417 28V42H458.417V28H457.417ZM427.889 42V28H426.889V42H427.889ZM945.861 28V42H946.861V28H945.861ZM916.333 42V28H915.333V42H916.333ZM1037.44 28V42H1038.44V28H1037.44ZM1007.92 42V28H1006.92V42H1007.92ZM213.194 140V154H214.194V140H213.194ZM183.667 154V140H182.667V154H183.667ZM701.639 140V154H702.639V140H701.639ZM672.111 154V140H671.111V154H672.111ZM457.417 140V154H458.417V140H457.417ZM427.889 154V140H426.889V154H427.889ZM945.861 140V154H946.861V140H945.861ZM916.333 154V140H915.333V154H916.333ZM1037.44 140V154H1038.44V140H1037.44ZM1007.92 154V140H1006.92V154H1007.92ZM213.194 84V98H214.194V84H213.194ZM183.667 98V84H182.667V98H183.667ZM701.639 84V98H702.639V84H701.639ZM672.111 98V84H671.111V98H672.111ZM457.417 84V98H458.417V84H457.417ZM427.889 98V84H426.889V98H427.889ZM945.861 84V98H946.861V84H945.861ZM916.333 98V84H915.333V98H916.333ZM1037.44 84V98H1038.44V84H1037.44ZM1007.92 98V84H1006.92V98H1007.92ZM213.194 196V210H214.194V196H213.194ZM183.667 210V196H182.667V210H183.667ZM213.194 252V266H214.194V252H213.194ZM183.667 266V252H182.667V266H183.667ZM701.639 196V210H702.639V196H701.639ZM672.111 210V196H671.111V210H672.111ZM701.639 252V266H702.639V252H701.639ZM672.111 266V252H671.111V266H672.111ZM457.417 196V210H458.417V196H457.417ZM427.889 210V196H426.889V210H427.889ZM457.417 252V266H458.417V252H457.417ZM427.889 266V252H426.889V266H427.889ZM945.861 196V210H946.861V196H945.861ZM916.333 210V196H915.333V210H916.333ZM945.861 252V266H946.861V252H945.861ZM916.333 266V252H915.333V266H916.333ZM1037.44 196V210H1038.44V196H1037.44ZM1007.92 210V196H1006.92V210H1007.92ZM1037.44 252V266H1038.44V252H1037.44ZM1007.92 266V252H1006.92V266H1007.92ZM30.0278 28V42H31.0278V28H30.0278ZM518.472 28V42H519.472V28H518.472ZM488.944 42V28H487.944V42H488.944ZM274.25 28V42H275.25V28H274.25ZM244.722 42V28H243.722V42H244.722ZM762.694 28V42H763.694V28H762.694ZM733.167 42V28H732.167V42H733.167ZM30.0278 140V154H31.0278V140H30.0278ZM518.472 140V154H519.472V140H518.472ZM488.944 154V140H487.944V154H488.944ZM274.25 140V154H275.25V140H274.25ZM244.722 154V140H243.722V154H244.722ZM762.694 140V154H763.694V140H762.694ZM733.167 154V140H732.167V154H733.167ZM30.0278 84V98H31.0278V84H30.0278ZM518.472 84V98H519.472V84H518.472ZM488.944 98V84H487.944V98H488.944ZM274.25 84V98H275.25V84H274.25ZM244.722 98V84H243.722V98H244.722ZM762.694 84V98H763.694V84H762.694ZM733.167 98V84H732.167V98H733.167ZM30.0278 196V210H31.0278V196H30.0278ZM30.0278 252V266H31.0278V252H30.0278ZM518.472 196V210H519.472V196H518.472ZM488.944 210V196H487.944V210H488.944ZM518.472 252V266H519.472V252H518.472ZM488.944 266V252H487.944V266H488.944ZM274.25 196V210H275.25V196H274.25ZM244.722 210V196H243.722V210H244.722ZM274.25 252V266H275.25V252H274.25ZM244.722 266V252H243.722V266H244.722ZM762.694 196V210H763.694V196H762.694ZM733.167 210V196H732.167V210H733.167ZM762.694 252V266H763.694V252H762.694ZM733.167 266V252H732.167V266H733.167ZM152.139 28V42H153.139V28H152.139ZM122.611 42V28H121.611V42H122.611ZM640.583 28V42H641.583V28H640.583ZM611.056 42V28H610.056V42H611.056ZM396.361 28V42H397.361V28H396.361ZM366.833 42V28H365.833V42H366.833ZM884.806 28V42H885.806V28H884.806ZM855.278 42V28H854.278V42H855.278ZM152.139 140V154H153.139V140H152.139ZM122.611 154V140H121.611V154H122.611ZM640.583 140V154H641.583V140H640.583ZM611.056 154V140H610.056V154H611.056ZM396.361 140V154H397.361V140H396.361ZM366.833 154V140H365.833V154H366.833ZM884.806 140V154H885.806V140H884.806ZM855.278 154V140H854.278V154H855.278ZM152.139 84V98H153.139V84H152.139ZM122.611 98V84H121.611V98H122.611ZM640.583 84V98H641.583V84H640.583ZM611.056 98V84H610.056V98H611.056ZM396.361 84V98H397.361V84H396.361ZM366.833 98V84H365.833V98H366.833ZM884.806 84V98H885.806V84H884.806ZM855.278 98V84H854.278V98H855.278ZM152.139 196V210H153.139V196H152.139ZM122.611 210V196H121.611V210H122.611ZM152.139 252V266H153.139V252H152.139ZM122.611 266V252H121.611V266H122.611ZM640.583 196V210H641.583V196H640.583ZM611.056 210V196H610.056V210H611.056ZM640.583 252V266H641.583V252H640.583ZM611.056 266V252H610.056V266H611.056ZM396.361 196V210H397.361V196H396.361ZM366.833 210V196H365.833V210H366.833ZM396.361 252V266H397.361V252H396.361ZM366.833 266V252H365.833V266H366.833ZM884.806 196V210H885.806V196H884.806ZM855.278 210V196H854.278V210H855.278ZM884.806 252V266H885.806V252H884.806ZM855.278 266V252H854.278V266H855.278ZM30.0278 0V14H31.0278V0H30.0278ZM518.472 0V14H519.472V0H518.472ZM488.944 14V0H487.944V14H488.944ZM274.25 0V14H275.25V0H274.25ZM244.722 14V0H243.722V14H244.722ZM762.694 0V14H763.694V0H762.694ZM733.167 14V0H732.167V14H733.167ZM30.0278 112V126H31.0278V112H30.0278ZM518.472 112V126H519.472V112H518.472ZM488.944 126V112H487.944V126H488.944ZM274.25 112V126H275.25V112H274.25ZM244.722 126V112H243.722V126H244.722ZM762.694 112V126H763.694V112H762.694ZM733.167 126V112H732.167V126H733.167ZM30.0278 56V70H31.0278V56H30.0278ZM518.472 56V70H519.472V56H518.472ZM488.944 70V56H487.944V70H488.944ZM274.25 56V70H275.25V56H274.25ZM244.722 70V56H243.722V70H244.722ZM762.694 56V70H763.694V56H762.694ZM733.167 70V56H732.167V70H733.167ZM30.0278 168V182H31.0278V168H30.0278ZM30.0278 224V238H31.0278V224H30.0278ZM518.472 168V182H519.472V168H518.472ZM488.944 182V168H487.944V182H488.944ZM518.472 224V238H519.472V224H518.472ZM488.944 238V224H487.944V238H488.944ZM274.25 168V182H275.25V168H274.25ZM244.722 182V168H243.722V182H244.722ZM274.25 224V238H275.25V224H274.25ZM244.722 238V224H243.722V238H244.722ZM762.694 168V182H763.694V168H762.694ZM733.167 182V168H732.167V182H733.167ZM762.694 224V238H763.694V224H762.694ZM733.167 238V224H732.167V238H733.167ZM152.139 0V14H153.139V0H152.139ZM122.611 14V0H121.611V14H122.611ZM640.583 0V14H641.583V0H640.583ZM611.056 14V0H610.056V14H611.056ZM396.361 0V14H397.361V0H396.361ZM366.833 14V0H365.833V14H366.833ZM884.806 0V14H885.806V0H884.806ZM855.278 14V0H854.278V14H855.278ZM152.139 112V126H153.139V112H152.139ZM122.611 126V112H121.611V126H122.611ZM640.583 112V126H641.583V112H640.583ZM611.056 126V112H610.056V126H611.056ZM396.361 112V126H397.361V112H396.361ZM366.833 126V112H365.833V126H366.833ZM884.806 112V126H885.806V112H884.806ZM855.278 126V112H854.278V126H855.278ZM152.139 56V70H153.139V56H152.139ZM122.611 70V56H121.611V70H122.611ZM640.583 56V70H641.583V56H640.583ZM611.056 70V56H610.056V70H611.056ZM396.361 56V70H397.361V56H396.361ZM366.833 70V56H365.833V70H366.833ZM884.806 56V70H885.806V56H884.806ZM855.278 70V56H854.278V70H855.278ZM152.139 168V182H153.139V168H152.139ZM122.611 182V168H121.611V182H122.611ZM152.139 224V238H153.139V224H152.139ZM122.611 238V224H121.611V238H122.611ZM640.583 168V182H641.583V168H640.583ZM611.056 182V168H610.056V182H611.056ZM640.583 224V238H641.583V224H640.583ZM611.056 238V224H610.056V238H611.056ZM396.361 168V182H397.361V168H396.361ZM366.833 182V168H365.833V182H366.833ZM396.361 224V238H397.361V224H396.361ZM366.833 238V224H365.833V238H366.833ZM884.806 168V182H885.806V168H884.806ZM855.278 182V168H854.278V182H855.278ZM884.806 224V238H885.806V224H884.806ZM855.278 238V224H854.278V238H855.278ZM91.0833 0V14H92.0833V0H91.0833ZM61.5556 14V0H60.5556V14H61.5556ZM579.528 0V14H580.528V0H579.528ZM550 14V0H549V14H550ZM335.306 0V14H336.306V0H335.306ZM305.778 14V0H304.778V14H305.778ZM823.75 0V14H824.75V0H823.75ZM794.222 14V0H793.222V14H794.222ZM91.0833 112V126H92.0833V112H91.0833ZM61.5556 126V112H60.5556V126H61.5556ZM579.528 112V126H580.528V112H579.528ZM550 126V112H549V126H550ZM335.306 112V126H336.306V112H335.306ZM305.778 126V112H304.778V126H305.778ZM823.75 112V126H824.75V112H823.75ZM794.222 126V112H793.222V126H794.222ZM91.0833 56V70H92.0833V56H91.0833ZM61.5556 70V56H60.5556V70H61.5556ZM579.528 56V70H580.528V56H579.528ZM550 70V56H549V70H550ZM335.306 56V70H336.306V56H335.306ZM305.778 70V56H304.778V70H305.778ZM823.75 56V70H824.75V56H823.75ZM794.222 70V56H793.222V70H794.222ZM91.0833 168V182H92.0833V168H91.0833ZM61.5556 182V168H60.5556V182H61.5556ZM91.0833 224V238H92.0833V224H91.0833ZM61.5556 238V224H60.5556V238H61.5556ZM579.528 168V182H580.528V168H579.528ZM550 182V168H549V182H550ZM579.528 224V238H580.528V224H579.528ZM550 238V224H549V238H550ZM335.306 168V182H336.306V168H335.306ZM305.778 182V168H304.778V182H305.778ZM335.306 224V238H336.306V224H335.306ZM305.778 238V224H304.778V238H305.778ZM823.75 168V182H824.75V168H823.75ZM794.222 182V168H793.222V182H794.222ZM823.75 224V238H824.75V224H823.75ZM794.222 238V224H793.222V238H794.222ZM213.194 0V14H214.194V0H213.194ZM183.667 14V0H182.667V14H183.667ZM701.639 0V14H702.639V0H701.639ZM672.111 14V0H671.111V14H672.111ZM457.417 0V14H458.417V0H457.417ZM427.889 14V0H426.889V14H427.889ZM945.861 0V14H946.861V0H945.861ZM916.333 14V0H915.333V14H916.333ZM1037.44 0V14H1038.44V0H1037.44ZM1007.92 14V0H1006.92V14H1007.92ZM213.194 112V126H214.194V112H213.194ZM183.667 126V112H182.667V126H183.667ZM701.639 112V126H702.639V112H701.639ZM672.111 126V112H671.111V126H672.111ZM457.417 112V126H458.417V112H457.417ZM427.889 126V112H426.889V126H427.889ZM945.861 112V126H946.861V112H945.861ZM916.333 126V112H915.333V126H916.333ZM1037.44 112V126H1038.44V112H1037.44ZM1007.92 126V112H1006.92V126H1007.92ZM213.194 56V70H214.194V56H213.194ZM183.667 70V56H182.667V70H183.667ZM701.639 56V70H702.639V56H701.639ZM672.111 70V56H671.111V70H672.111ZM457.417 56V70H458.417V56H457.417ZM427.889 70V56H426.889V70H427.889ZM945.861 56V70H946.861V56H945.861ZM916.333 70V56H915.333V70H916.333ZM1037.44 56V70H1038.44V56H1037.44ZM1007.92 70V56H1006.92V70H1007.92ZM213.194 168V182H214.194V168H213.194ZM183.667 182V168H182.667V182H183.667ZM213.194 224V238H214.194V224H213.194ZM183.667 238V224H182.667V238H183.667ZM701.639 168V182H702.639V168H701.639ZM672.111 182V168H671.111V182H672.111ZM701.639 224V238H702.639V224H701.639ZM672.111 238V224H671.111V238H672.111ZM457.417 168V182H458.417V168H457.417ZM427.889 182V168H426.889V182H427.889ZM457.417 224V238H458.417V224H457.417ZM427.889 238V224H426.889V238H427.889ZM945.861 168V182H946.861V168H945.861ZM916.333 182V168H915.333V182H916.333ZM945.861 224V238H946.861V224H945.861ZM916.333 238V224H915.333V238H916.333ZM1037.44 168V182H1038.44V168H1037.44ZM1007.92 182V168H1006.92V182H1007.92ZM1037.44 224V238H1038.44V224H1037.44ZM1007.92 238V224H1006.92V238H1007.92ZM91.5833 42.5H122.111V41.5H91.5833V42.5ZM122.111 55.5H91.5833V56.5H122.111V55.5ZM580.028 42.5H610.556V41.5H580.028V42.5ZM610.556 55.5H580.028V56.5H610.556V55.5ZM335.806 42.5H366.333V41.5H335.806V42.5ZM366.333 55.5H335.806V56.5H366.333V55.5ZM824.25 42.5H854.778V41.5H824.25V42.5ZM854.778 55.5H824.25V56.5H854.778V55.5ZM91.5833 154.5H122.111V153.5H91.5833V154.5ZM122.111 167.5H91.5833V168.5H122.111V167.5ZM580.028 154.5H610.556V153.5H580.028V154.5ZM610.556 167.5H580.028V168.5H610.556V167.5ZM335.806 154.5H366.333V153.5H335.806V154.5ZM366.333 167.5H335.806V168.5H366.333V167.5ZM824.25 154.5H854.778V153.5H824.25V154.5ZM854.778 167.5H824.25V168.5H854.778V167.5ZM91.5833 98.5H122.111V97.5H91.5833V98.5ZM122.111 111.5H91.5833V112.5H122.111V111.5ZM580.028 98.5H610.556V97.5H580.028V98.5ZM610.556 111.5H580.028V112.5H610.556V111.5ZM335.806 98.5H366.333V97.5H335.806V98.5ZM366.333 111.5H335.806V112.5H366.333V111.5ZM824.25 98.5H854.778V97.5H824.25V98.5ZM854.778 111.5H824.25V112.5H854.778V111.5ZM91.5833 210.5H122.111V209.5H91.5833V210.5ZM122.111 223.5H91.5833V224.5H122.111V223.5ZM91.5833 266.5H122.111V265.5H91.5833V266.5ZM580.028 210.5H610.556V209.5H580.028V210.5ZM610.556 223.5H580.028V224.5H610.556V223.5ZM580.028 266.5H610.556V265.5H580.028V266.5ZM335.806 210.5H366.333V209.5H335.806V210.5ZM366.333 223.5H335.806V224.5H366.333V223.5ZM335.806 266.5H366.333V265.5H335.806V266.5ZM824.25 210.5H854.778V209.5H824.25V210.5ZM854.778 223.5H824.25V224.5H854.778V223.5ZM824.25 266.5H854.778V265.5H824.25V266.5ZM213.694 42.5H244.222V41.5H213.694V42.5ZM244.222 55.5H213.694V56.5H244.222V55.5ZM702.139 42.5H732.667V41.5H702.139V42.5ZM732.667 55.5H702.139V56.5H732.667V55.5ZM457.917 42.5H488.444V41.5H457.917V42.5ZM488.444 55.5H457.917V56.5H488.444V55.5ZM946.361 42.5H976.889V41.5H946.361V42.5ZM976.389 42V56H977.389V42H976.389ZM976.889 55.5H946.361V56.5H976.889V55.5ZM1037.94 42.5H1068.47V41.5H1037.94V42.5ZM1067.97 42V56H1068.97V42H1067.97ZM1068.47 55.5H1037.94V56.5H1068.47V55.5ZM1068.47 42.5H1099V41.5H1068.47V42.5ZM1099 55.5H1068.47V56.5H1099V55.5ZM213.694 154.5H244.222V153.5H213.694V154.5ZM244.222 167.5H213.694V168.5H244.222V167.5ZM702.139 154.5H732.667V153.5H702.139V154.5ZM732.667 167.5H702.139V168.5H732.667V167.5ZM457.917 154.5H488.444V153.5H457.917V154.5ZM488.444 167.5H457.917V168.5H488.444V167.5ZM946.361 154.5H976.889V153.5H946.361V154.5ZM976.389 154V168H977.389V154H976.389ZM976.889 167.5H946.361V168.5H976.889V167.5ZM1037.94 154.5H1068.47V153.5H1037.94V154.5ZM1067.97 154V168H1068.97V154H1067.97ZM1068.47 167.5H1037.94V168.5H1068.47V167.5ZM1068.47 154.5H1099V153.5H1068.47V154.5ZM1099 167.5H1068.47V168.5H1099V167.5ZM213.694 98.5H244.222V97.5H213.694V98.5ZM244.222 111.5H213.694V112.5H244.222V111.5ZM702.139 98.5H732.667V97.5H702.139V98.5ZM732.667 111.5H702.139V112.5H732.667V111.5ZM457.917 98.5H488.444V97.5H457.917V98.5ZM488.444 111.5H457.917V112.5H488.444V111.5ZM946.361 98.5H976.889V97.5H946.361V98.5ZM976.389 98V112H977.389V98H976.389ZM976.889 111.5H946.361V112.5H976.889V111.5ZM1037.94 98.5H1068.47V97.5H1037.94V98.5ZM1067.97 98V112H1068.97V98H1067.97ZM1068.47 111.5H1037.94V112.5H1068.47V111.5ZM1068.47 98.5H1099V97.5H1068.47V98.5ZM1099 111.5H1068.47V112.5H1099V111.5ZM213.694 210.5H244.222V209.5H213.694V210.5ZM244.222 223.5H213.694V224.5H244.222V223.5ZM213.694 266.5H244.222V265.5H213.694V266.5ZM702.139 210.5H732.667V209.5H702.139V210.5ZM732.667 223.5H702.139V224.5H732.667V223.5ZM702.139 266.5H732.667V265.5H702.139V266.5ZM457.917 210.5H488.444V209.5H457.917V210.5ZM488.444 223.5H457.917V224.5H488.444V223.5ZM457.917 266.5H488.444V265.5H457.917V266.5ZM946.361 210.5H976.889V209.5H946.361V210.5ZM976.389 210V224H977.389V210H976.389ZM976.889 223.5H946.361V224.5H976.889V223.5ZM946.361 266.5H976.889V265.5H946.361V266.5ZM976.389 266V280H977.389V266H976.389ZM1037.94 210.5H1068.47V209.5H1037.94V210.5ZM1067.97 210V224H1068.97V210H1067.97ZM1068.47 223.5H1037.94V224.5H1068.47V223.5ZM1037.94 266.5H1068.47V265.5H1037.94V266.5ZM1067.97 266V280H1068.97V266H1067.97ZM1068.47 210.5H1099V209.5H1068.47V210.5ZM1099 223.5H1068.47V224.5H1099V223.5ZM1068.47 266.5H1099V265.5H1068.47V266.5ZM30.5278 42.5H61.0556V41.5H30.5278V42.5ZM61.0556 55.5H30.5278V56.5H61.0556V55.5ZM518.972 42.5H549.5V41.5H518.972V42.5ZM549.5 55.5H518.972V56.5H549.5V55.5ZM274.75 42.5H305.278V41.5H274.75V42.5ZM305.278 55.5H274.75V56.5H305.278V55.5ZM763.194 42.5H793.722V41.5H763.194V42.5ZM793.722 55.5H763.194V56.5H793.722V55.5ZM30.5278 154.5H61.0556V153.5H30.5278V154.5ZM61.0556 167.5H30.5278V168.5H61.0556V167.5ZM518.972 154.5H549.5V153.5H518.972V154.5ZM549.5 167.5H518.972V168.5H549.5V167.5ZM274.75 154.5H305.278V153.5H274.75V154.5ZM305.278 167.5H274.75V168.5H305.278V167.5ZM763.194 154.5H793.722V153.5H763.194V154.5ZM793.722 167.5H763.194V168.5H793.722V167.5ZM30.5278 98.5H61.0556V97.5H30.5278V98.5ZM61.0556 111.5H30.5278V112.5H61.0556V111.5ZM518.972 98.5H549.5V97.5H518.972V98.5ZM549.5 111.5H518.972V112.5H549.5V111.5ZM274.75 98.5H305.278V97.5H274.75V98.5ZM305.278 111.5H274.75V112.5H305.278V111.5ZM763.194 98.5H793.722V97.5H763.194V98.5ZM793.722 111.5H763.194V112.5H793.722V111.5ZM30.5278 210.5H61.0556V209.5H30.5278V210.5ZM61.0556 223.5H30.5278V224.5H61.0556V223.5ZM30.5278 266.5H61.0556V265.5H30.5278V266.5ZM518.972 210.5H549.5V209.5H518.972V210.5ZM549.5 223.5H518.972V224.5H549.5V223.5ZM518.972 266.5H549.5V265.5H518.972V266.5ZM274.75 210.5H305.278V209.5H274.75V210.5ZM305.278 223.5H274.75V224.5H305.278V223.5ZM274.75 266.5H305.278V265.5H274.75V266.5ZM763.194 210.5H793.722V209.5H763.194V210.5ZM793.722 223.5H763.194V224.5H793.722V223.5ZM763.194 266.5H793.722V265.5H763.194V266.5ZM152.639 42.5H183.167V41.5H152.639V42.5ZM183.167 55.5H152.639V56.5H183.167V55.5ZM641.083 42.5H671.611V41.5H641.083V42.5ZM671.611 55.5H641.083V56.5H671.611V55.5ZM396.861 42.5H427.389V41.5H396.861V42.5ZM427.389 55.5H396.861V56.5H427.389V55.5ZM885.306 42.5H915.833V41.5H885.306V42.5ZM915.833 55.5H885.306V56.5H915.833V55.5ZM976.889 42.5H1007.42V41.5H976.889V42.5ZM1007.42 55.5H976.889V56.5H1007.42V55.5ZM152.639 154.5H183.167V153.5H152.639V154.5ZM183.167 167.5H152.639V168.5H183.167V167.5ZM641.083 154.5H671.611V153.5H641.083V154.5ZM671.611 167.5H641.083V168.5H671.611V167.5ZM396.861 154.5H427.389V153.5H396.861V154.5ZM427.389 167.5H396.861V168.5H427.389V167.5ZM885.306 154.5H915.833V153.5H885.306V154.5ZM915.833 167.5H885.306V168.5H915.833V167.5ZM976.889 154.5H1007.42V153.5H976.889V154.5ZM1007.42 167.5H976.889V168.5H1007.42V167.5ZM152.639 98.5H183.167V97.5H152.639V98.5ZM183.167 111.5H152.639V112.5H183.167V111.5ZM641.083 98.5H671.611V97.5H641.083V98.5ZM671.611 111.5H641.083V112.5H671.611V111.5ZM396.861 98.5H427.389V97.5H396.861V98.5ZM427.389 111.5H396.861V112.5H427.389V111.5ZM885.306 98.5H915.833V97.5H885.306V98.5ZM915.833 111.5H885.306V112.5H915.833V111.5ZM976.889 98.5H1007.42V97.5H976.889V98.5ZM1007.42 111.5H976.889V112.5H1007.42V111.5ZM152.639 210.5H183.167V209.5H152.639V210.5ZM183.167 223.5H152.639V224.5H183.167V223.5ZM152.639 266.5H183.167V265.5H152.639V266.5ZM641.083 210.5H671.611V209.5H641.083V210.5ZM671.611 223.5H641.083V224.5H671.611V223.5ZM641.083 266.5H671.611V265.5H641.083V266.5ZM396.861 210.5H427.389V209.5H396.861V210.5ZM427.389 223.5H396.861V224.5H427.389V223.5ZM396.861 266.5H427.389V265.5H396.861V266.5ZM885.306 210.5H915.833V209.5H885.306V210.5ZM915.833 223.5H885.306V224.5H915.833V223.5ZM885.306 266.5H915.833V265.5H885.306V266.5ZM976.889 210.5H1007.42V209.5H976.889V210.5ZM1007.42 223.5H976.889V224.5H1007.42V223.5ZM976.889 266.5H1007.42V265.5H976.889V266.5ZM30.5278 14.5H61.0556V13.5H30.5278V14.5ZM61.0556 27.5H30.5278V28.5H61.0556V27.5ZM518.972 14.5H549.5V13.5H518.972V14.5ZM549.5 27.5H518.972V28.5H549.5V27.5ZM274.75 14.5H305.278V13.5H274.75V14.5ZM305.278 27.5H274.75V28.5H305.278V27.5ZM763.194 14.5H793.722V13.5H763.194V14.5ZM793.722 27.5H763.194V28.5H793.722V27.5ZM30.5278 126.5H61.0556V125.5H30.5278V126.5ZM61.0556 139.5H30.5278V140.5H61.0556V139.5ZM518.972 126.5H549.5V125.5H518.972V126.5ZM549.5 139.5H518.972V140.5H549.5V139.5ZM274.75 126.5H305.278V125.5H274.75V126.5ZM305.278 139.5H274.75V140.5H305.278V139.5ZM763.194 126.5H793.722V125.5H763.194V126.5ZM793.722 139.5H763.194V140.5H793.722V139.5ZM30.5278 70.5H61.0556V69.5H30.5278V70.5ZM61.0556 83.5H30.5278V84.5H61.0556V83.5ZM518.972 70.5H549.5V69.5H518.972V70.5ZM549.5 83.5H518.972V84.5H549.5V83.5ZM274.75 70.5H305.278V69.5H274.75V70.5ZM305.278 83.5H274.75V84.5H305.278V83.5ZM763.194 70.5H793.722V69.5H763.194V70.5ZM793.722 83.5H763.194V84.5H793.722V83.5ZM30.5278 182.5H61.0556V181.5H30.5278V182.5ZM61.0556 195.5H30.5278V196.5H61.0556V195.5ZM30.5278 238.5H61.0556V237.5H30.5278V238.5ZM61.0556 251.5H30.5278V252.5H61.0556V251.5ZM518.972 182.5H549.5V181.5H518.972V182.5ZM549.5 195.5H518.972V196.5H549.5V195.5ZM518.972 238.5H549.5V237.5H518.972V238.5ZM549.5 251.5H518.972V252.5H549.5V251.5ZM274.75 182.5H305.278V181.5H274.75V182.5ZM305.278 195.5H274.75V196.5H305.278V195.5ZM274.75 238.5H305.278V237.5H274.75V238.5ZM305.278 251.5H274.75V252.5H305.278V251.5ZM763.194 182.5H793.722V181.5H763.194V182.5ZM793.722 195.5H763.194V196.5H793.722V195.5ZM763.194 238.5H793.722V237.5H763.194V238.5ZM793.722 251.5H763.194V252.5H793.722V251.5ZM152.639 14.5H183.167V13.5H152.639V14.5ZM183.167 27.5H152.639V28.5H183.167V27.5ZM641.083 14.5H671.611V13.5H641.083V14.5ZM671.611 27.5H641.083V28.5H671.611V27.5ZM396.861 14.5H427.389V13.5H396.861V14.5ZM427.389 27.5H396.861V28.5H427.389V27.5ZM885.306 14.5H915.833V13.5H885.306V14.5ZM915.833 27.5H885.306V28.5H915.833V27.5ZM976.889 14.5H1007.42V13.5H976.889V14.5ZM1007.42 27.5H976.889V28.5H1007.42V27.5ZM977.389 28V14H976.389V28H977.389ZM152.639 126.5H183.167V125.5H152.639V126.5ZM183.167 139.5H152.639V140.5H183.167V139.5ZM641.083 126.5H671.611V125.5H641.083V126.5ZM671.611 139.5H641.083V140.5H671.611V139.5ZM396.861 126.5H427.389V125.5H396.861V126.5ZM427.389 139.5H396.861V140.5H427.389V139.5ZM885.306 126.5H915.833V125.5H885.306V126.5ZM915.833 139.5H885.306V140.5H915.833V139.5ZM976.889 126.5H1007.42V125.5H976.889V126.5ZM1007.42 139.5H976.889V140.5H1007.42V139.5ZM977.389 140V126H976.389V140H977.389ZM152.639 70.5H183.167V69.5H152.639V70.5ZM183.167 83.5H152.639V84.5H183.167V83.5ZM641.083 70.5H671.611V69.5H641.083V70.5ZM671.611 83.5H641.083V84.5H671.611V83.5ZM396.861 70.5H427.389V69.5H396.861V70.5ZM427.389 83.5H396.861V84.5H427.389V83.5ZM885.306 70.5H915.833V69.5H885.306V70.5ZM915.833 83.5H885.306V84.5H915.833V83.5ZM976.889 70.5H1007.42V69.5H976.889V70.5ZM1007.42 83.5H976.889V84.5H1007.42V83.5ZM977.389 84V70H976.389V84H977.389ZM152.639 182.5H183.167V181.5H152.639V182.5ZM183.167 195.5H152.639V196.5H183.167V195.5ZM152.639 238.5H183.167V237.5H152.639V238.5ZM183.167 251.5H152.639V252.5H183.167V251.5ZM641.083 182.5H671.611V181.5H641.083V182.5ZM671.611 195.5H641.083V196.5H671.611V195.5ZM641.083 238.5H671.611V237.5H641.083V238.5ZM671.611 251.5H641.083V252.5H671.611V251.5ZM396.861 182.5H427.389V181.5H396.861V182.5ZM427.389 195.5H396.861V196.5H427.389V195.5ZM396.861 238.5H427.389V237.5H396.861V238.5ZM427.389 251.5H396.861V252.5H427.389V251.5ZM885.306 182.5H915.833V181.5H885.306V182.5ZM915.833 195.5H885.306V196.5H915.833V195.5ZM885.306 238.5H915.833V237.5H885.306V238.5ZM915.833 251.5H885.306V252.5H915.833V251.5ZM976.889 182.5H1007.42V181.5H976.889V182.5ZM1007.42 195.5H976.889V196.5H1007.42V195.5ZM977.389 196V182H976.389V196H977.389ZM976.889 238.5H1007.42V237.5H976.889V238.5ZM1007.42 251.5H976.889V252.5H1007.42V251.5ZM977.389 252V238H976.389V252H977.389ZM91.5833 14.5H122.111V13.5H91.5833V14.5ZM122.111 27.5H91.5833V28.5H122.111V27.5ZM580.028 14.5H610.556V13.5H580.028V14.5ZM610.556 27.5H580.028V28.5H610.556V27.5ZM335.806 14.5H366.333V13.5H335.806V14.5ZM366.333 27.5H335.806V28.5H366.333V27.5ZM824.25 14.5H854.778V13.5H824.25V14.5ZM854.778 27.5H824.25V28.5H854.778V27.5ZM91.5833 126.5H122.111V125.5H91.5833V126.5ZM122.111 139.5H91.5833V140.5H122.111V139.5ZM580.028 126.5H610.556V125.5H580.028V126.5ZM610.556 139.5H580.028V140.5H610.556V139.5ZM335.806 126.5H366.333V125.5H335.806V126.5ZM366.333 139.5H335.806V140.5H366.333V139.5ZM824.25 126.5H854.778V125.5H824.25V126.5ZM854.778 139.5H824.25V140.5H854.778V139.5ZM91.5833 70.5H122.111V69.5H91.5833V70.5ZM122.111 83.5H91.5833V84.5H122.111V83.5ZM580.028 70.5H610.556V69.5H580.028V70.5ZM610.556 83.5H580.028V84.5H610.556V83.5ZM335.806 70.5H366.333V69.5H335.806V70.5ZM366.333 83.5H335.806V84.5H366.333V83.5ZM824.25 70.5H854.778V69.5H824.25V70.5ZM854.778 83.5H824.25V84.5H854.778V83.5ZM91.5833 182.5H122.111V181.5H91.5833V182.5ZM122.111 195.5H91.5833V196.5H122.111V195.5ZM91.5833 238.5H122.111V237.5H91.5833V238.5ZM122.111 251.5H91.5833V252.5H122.111V251.5ZM580.028 182.5H610.556V181.5H580.028V182.5ZM610.556 195.5H580.028V196.5H610.556V195.5ZM580.028 238.5H610.556V237.5H580.028V238.5ZM610.556 251.5H580.028V252.5H610.556V251.5ZM335.806 182.5H366.333V181.5H335.806V182.5ZM366.333 195.5H335.806V196.5H366.333V195.5ZM335.806 238.5H366.333V237.5H335.806V238.5ZM366.333 251.5H335.806V252.5H366.333V251.5ZM824.25 182.5H854.778V181.5H824.25V182.5ZM854.778 195.5H824.25V196.5H854.778V195.5ZM824.25 238.5H854.778V237.5H824.25V238.5ZM854.778 251.5H824.25V252.5H854.778V251.5ZM213.694 14.5H244.222V13.5H213.694V14.5ZM244.222 27.5H213.694V28.5H244.222V27.5ZM702.139 14.5H732.667V13.5H702.139V14.5ZM732.667 27.5H702.139V28.5H732.667V27.5ZM457.917 14.5H488.444V13.5H457.917V14.5ZM488.444 27.5H457.917V28.5H488.444V27.5ZM946.361 14.5H976.889V13.5H946.361V14.5ZM976.889 27.5H946.361V28.5H976.889V27.5ZM1037.94 14.5H1068.47V13.5H1037.94V14.5ZM1067.97 14V28H1068.97V14H1067.97ZM1068.47 27.5H1037.94V28.5H1068.47V27.5ZM1068.47 14.5H1099V13.5H1068.47V14.5ZM1099 27.5H1068.47V28.5H1099V27.5ZM213.694 126.5H244.222V125.5H213.694V126.5ZM244.222 139.5H213.694V140.5H244.222V139.5ZM702.139 126.5H732.667V125.5H702.139V126.5ZM732.667 139.5H702.139V140.5H732.667V139.5ZM457.917 126.5H488.444V125.5H457.917V126.5ZM488.444 139.5H457.917V140.5H488.444V139.5ZM946.361 126.5H976.889V125.5H946.361V126.5ZM976.889 139.5H946.361V140.5H976.889V139.5ZM1037.94 126.5H1068.47V125.5H1037.94V126.5ZM1067.97 126V140H1068.97V126H1067.97ZM1068.47 139.5H1037.94V140.5H1068.47V139.5ZM1068.47 126.5H1099V125.5H1068.47V126.5ZM1099 139.5H1068.47V140.5H1099V139.5ZM213.694 70.5H244.222V69.5H213.694V70.5ZM244.222 83.5H213.694V84.5H244.222V83.5ZM702.139 70.5H732.667V69.5H702.139V70.5ZM732.667 83.5H702.139V84.5H732.667V83.5ZM457.917 70.5H488.444V69.5H457.917V70.5ZM488.444 83.5H457.917V84.5H488.444V83.5ZM946.361 70.5H976.889V69.5H946.361V70.5ZM976.889 83.5H946.361V84.5H976.889V83.5ZM1037.94 70.5H1068.47V69.5H1037.94V70.5ZM1067.97 70V84H1068.97V70H1067.97ZM1068.47 83.5H1037.94V84.5H1068.47V83.5ZM1068.47 70.5H1099V69.5H1068.47V70.5ZM1099 83.5H1068.47V84.5H1099V83.5ZM213.694 182.5H244.222V181.5H213.694V182.5ZM244.222 195.5H213.694V196.5H244.222V195.5ZM213.694 238.5H244.222V237.5H213.694V238.5ZM244.222 251.5H213.694V252.5H244.222V251.5ZM702.139 182.5H732.667V181.5H702.139V182.5ZM732.667 195.5H702.139V196.5H732.667V195.5ZM702.139 238.5H732.667V237.5H702.139V238.5ZM732.667 251.5H702.139V252.5H732.667V251.5ZM457.917 182.5H488.444V181.5H457.917V182.5ZM488.444 195.5H457.917V196.5H488.444V195.5ZM457.917 238.5H488.444V237.5H457.917V238.5ZM488.444 251.5H457.917V252.5H488.444V251.5ZM946.361 182.5H976.889V181.5H946.361V182.5ZM976.889 195.5H946.361V196.5H976.889V195.5ZM946.361 238.5H976.889V237.5H946.361V238.5ZM976.889 251.5H946.361V252.5H976.889V251.5ZM1037.94 182.5H1068.47V181.5H1037.94V182.5ZM1067.97 182V196H1068.97V182H1067.97ZM1068.47 195.5H1037.94V196.5H1068.47V195.5ZM1037.94 238.5H1068.47V237.5H1037.94V238.5ZM1067.97 238V252H1068.97V238H1067.97ZM1068.47 251.5H1037.94V252.5H1068.47V251.5ZM1068.47 182.5H1099V181.5H1068.47V182.5ZM1099 195.5H1068.47V196.5H1099V195.5ZM1068.47 238.5H1099V237.5H1068.47V238.5ZM1099 251.5H1068.47V252.5H1099V251.5ZM976.389 28V42H977.389V28H976.389ZM1067.97 28V42H1068.97V28H1067.97ZM976.389 140V154H977.389V140H976.389ZM1067.97 140V154H1068.97V140H1067.97ZM976.389 84V98H977.389V84H976.389ZM1067.97 84V98H1068.97V84H1067.97ZM976.389 196V210H977.389V196H976.389ZM976.389 252V266H977.389V252H976.389ZM1067.97 196V210H1068.97V196H1067.97ZM1067.97 252V266H1068.97V252H1067.97ZM977.389 14V0H976.389V14H977.389ZM977.389 126V112H976.389V126H977.389ZM977.389 70V56H976.389V70H977.389ZM977.389 182V168H976.389V182H977.389ZM977.389 238V224H976.389V238H977.389ZM1067.97 0V14H1068.97V0H1067.97ZM1067.97 112V126H1068.97V112H1067.97ZM1067.97 56V70H1068.97V56H1067.97ZM1067.97 168V182H1068.97V168H1067.97ZM1067.97 224V238H1068.97V224H1067.97ZM0 280H-1V281H0V280ZM0 0V-1H-1V0H0ZM1099 280V281H1100V280H1099ZM1099 0H1100V-1H1099V0ZM91.5833 279H61.0556V281H91.5833V279ZM580.028 279H549.5V281H580.028V279ZM335.806 279H305.278V281H335.806V279ZM824.25 279H793.722V281H824.25V279ZM213.694 279H183.167V281H213.694V279ZM702.139 279H671.611V281H702.139V279ZM457.917 279H427.389V281H457.917V279ZM946.361 279H915.833V281H946.361V279ZM1037.94 279H1007.42V281H1037.94V279ZM1 56V42H-1V56H1ZM1 168V154H-1V168H1ZM1 112V98H-1V112H1ZM1 224V210H-1V224H1ZM30.5278 279H0V281H30.5278V279ZM1 280V266H-1V280H1ZM518.972 279H488.444V281H518.972V279ZM274.75 279H244.222V281H274.75V279ZM763.194 279H732.667V281H763.194V279ZM152.639 279H122.111V281H152.639V279ZM641.083 279H610.556V281H641.083V279ZM396.861 279H366.333V281H396.861V279ZM885.306 279H854.778V281H885.306V279ZM1 28V14H-1V28H1ZM1 140V126H-1V140H1ZM1 84V70H-1V84H1ZM1 196V182H-1V196H1ZM1 252V238H-1V252H1ZM1 42V28H-1V42H1ZM1 154V140H-1V154H1ZM1 98V84H-1V98H1ZM1 210V196H-1V210H1ZM1 266V252H-1V266H1ZM0 1H30.5278V-1H0V1ZM1 14V0H-1V14H1ZM488.444 1H518.972V-1H488.444V1ZM244.222 1H274.75V-1H244.222V1ZM732.667 1H763.194V-1H732.667V1ZM1 126V112H-1V126H1ZM1 70V56H-1V70H1ZM1 182V168H-1V182H1ZM1 238V224H-1V238H1ZM122.111 1H152.639V-1H122.111V1ZM610.556 1H641.083V-1H610.556V1ZM366.333 1H396.861V-1H366.333V1ZM854.778 1H885.306V-1H854.778V1ZM61.0556 1H91.5833V-1H61.0556V1ZM549.5 1H580.028V-1H549.5V1ZM305.278 1H335.806V-1H305.278V1ZM793.722 1H824.25V-1H793.722V1ZM183.167 1H213.694V-1H183.167V1ZM671.611 1H702.139V-1H671.611V1ZM427.389 1H457.917V-1H427.389V1ZM915.833 1H946.361V-1H915.833V1ZM1007.42 1H1037.94V-1H1007.42V1ZM122.111 279H91.5833V281H122.111V279ZM610.556 279H580.028V281H610.556V279ZM366.333 279H335.806V281H366.333V279ZM854.778 279H824.25V281H854.778V279ZM1098 42V56H1100V42H1098ZM1098 154V168H1100V154H1098ZM1098 98V112H1100V98H1098ZM244.222 279H213.694V281H244.222V279ZM732.667 279H702.139V281H732.667V279ZM488.444 279H457.917V281H488.444V279ZM976.889 279H946.361V281H976.889V279ZM1068.47 279H1037.94V281H1068.47V279ZM1098 210V224H1100V210H1098ZM1098 266V280H1100V266H1098ZM1099 279H1068.47V281H1099V279ZM61.0556 279H30.5278V281H61.0556V279ZM549.5 279H518.972V281H549.5V279ZM305.278 279H274.75V281H305.278V279ZM793.722 279H763.194V281H793.722V279ZM183.167 279H152.639V281H183.167V279ZM671.611 279H641.083V281H671.611V279ZM427.389 279H396.861V281H427.389V279ZM915.833 279H885.306V281H915.833V279ZM1007.42 279H976.889V281H1007.42V279ZM1098 14V28H1100V14H1098ZM1098 126V140H1100V126H1098ZM1098 70V84H1100V70H1098ZM1098 182V196H1100V182H1098ZM1098 238V252H1100V238H1098ZM1098 28V42H1100V28H1098ZM1098 140V154H1100V140H1098ZM1098 84V98H1100V84H1098ZM1098 196V210H1100V196H1098ZM1098 252V266H1100V252H1098ZM30.5278 1H61.0556V-1H30.5278V1ZM518.972 1H549.5V-1H518.972V1ZM274.75 1H305.278V-1H274.75V1ZM763.194 1H793.722V-1H763.194V1ZM152.639 1H183.167V-1H152.639V1ZM641.083 1H671.611V-1H641.083V1ZM396.861 1H427.389V-1H396.861V1ZM885.306 1H915.833V-1H885.306V1ZM976.889 1H1007.42V-1H976.889V1ZM91.5833 1H122.111V-1H91.5833V1ZM580.028 1H610.556V-1H580.028V1ZM335.806 1H366.333V-1H335.806V1ZM824.25 1H854.778V-1H824.25V1ZM213.694 1H244.222V-1H213.694V1ZM702.139 1H732.667V-1H702.139V1ZM457.917 1H488.444V-1H457.917V1ZM946.361 1H976.889V-1H946.361V1ZM1037.94 1H1068.47V-1H1037.94V1ZM1068.47 1H1099V-1H1068.47V1ZM1098 0V14H1100V0H1098ZM1098 112V126H1100V112H1098ZM1098 56V70H1100V56H1098ZM1098 168V182H1100V168H1098ZM1098 224V238H1100V224H1098Z" fill="url(#paint0_diamond_54_4218)" mask="url(#path-1-inside-1_54_4218)"/>
<defs>
<radialGradient id="paint0_diamond_54_4218" cx="0" cy="0" r="1" gradientUnits="userSpaceOnUse" gradientTransform="translate(549.5 140) rotate(90) scale(170.625 669.703)">
<stop stop-color="#E13943"/>
<stop offset="0.481016" stop-color="#BF2831"/>
<stop offset="1" stop-color="#B5353D"/>
</radialGradient>
</defs>
</svg>
