<svg width="1440" height="800" viewBox="0 0 1440 800" fill="none" xmlns="http://www.w3.org/2000/svg">
<mask id="path-1-inside-1_54_3723" fill="white">
<path d="M80 120H120V160H80V120Z"/>
<path d="M720 120H760V160H720V120Z"/>
<path d="M400 120H440V160H400V120Z"/>
<path d="M1040 120H1080V160H1040V120Z"/>
<path d="M80 440H120V480H80V440Z"/>
<path d="M720 440H760V480H720V440Z"/>
<path d="M400 440H440V480H400V440Z"/>
<path d="M1040 440H1080V480H1040V440Z"/>
<path d="M80 280H120V320H80V280Z"/>
<path d="M720 280H760V320H720V280Z"/>
<path d="M400 280H440V320H400V280Z"/>
<path d="M1040 280H1080V320H1040V280Z"/>
<path d="M80 600H120V640H80V600Z"/>
<path d="M80 760H120V800H80V760Z"/>
<path d="M720 600H760V640H720V600Z"/>
<path d="M720 760H760V800H720V760Z"/>
<path d="M400 600H440V640H400V600Z"/>
<path d="M400 760H440V800H400V760Z"/>
<path d="M1040 600H1080V640H1040V600Z"/>
<path d="M1040 760H1080V800H1040V760Z"/>
<path d="M240 120H280V160H240V120Z"/>
<path d="M880 120H920V160H880V120Z"/>
<path d="M560 120H600V160H560V120Z"/>
<path d="M1200 120H1240V160H1200V120Z"/>
<path d="M1320 120H1360V160H1320V120Z"/>
<path d="M240 440H280V480H240V440Z"/>
<path d="M880 440H920V480H880V440Z"/>
<path d="M560 440H600V480H560V440Z"/>
<path d="M1200 440H1240V480H1200V440Z"/>
<path d="M1320 440H1360V480H1320V440Z"/>
<path d="M240 280H280V320H240V280Z"/>
<path d="M880 280H920V320H880V280Z"/>
<path d="M560 280H600V320H560V280Z"/>
<path d="M1200 280H1240V320H1200V280Z"/>
<path d="M1320 280H1360V320H1320V280Z"/>
<path d="M240 600H280V640H240V600Z"/>
<path d="M240 760H280V800H240V760Z"/>
<path d="M880 600H920V640H880V600Z"/>
<path d="M880 760H920V800H880V760Z"/>
<path d="M560 600H600V640H560V600Z"/>
<path d="M560 760H600V800H560V760Z"/>
<path d="M1200 600H1240V640H1200V600Z"/>
<path d="M1200 760H1240V800H1200V760Z"/>
<path d="M1320 600H1360V640H1320V600Z"/>
<path d="M1320 760H1360V800H1320V760Z"/>
<path d="M0 120H40V160H0V120Z"/>
<path d="M640 120H680V160H640V120Z"/>
<path d="M320 120H360V160H320V120Z"/>
<path d="M960 120H1000V160H960V120Z"/>
<path d="M0 440H40V480H0V440Z"/>
<path d="M640 440H680V480H640V440Z"/>
<path d="M320 440H360V480H320V440Z"/>
<path d="M960 440H1000V480H960V440Z"/>
<path d="M0 280H40V320H0V280Z"/>
<path d="M640 280H680V320H640V280Z"/>
<path d="M320 280H360V320H320V280Z"/>
<path d="M960 280H1000V320H960V280Z"/>
<path d="M0 600H40V640H0V600Z"/>
<path d="M0 760H40V800H0V760Z"/>
<path d="M640 600H680V640H640V600Z"/>
<path d="M640 760H680V800H640V760Z"/>
<path d="M320 600H360V640H320V600Z"/>
<path d="M320 760H360V800H320V760Z"/>
<path d="M960 600H1000V640H960V600Z"/>
<path d="M960 760H1000V800H960V760Z"/>
<path d="M160 120H200V160H160V120Z"/>
<path d="M800 120H840V160H800V120Z"/>
<path d="M480 120H520V160H480V120Z"/>
<path d="M1120 120H1160V160H1120V120Z"/>
<path d="M160 440H200V480H160V440Z"/>
<path d="M800 440H840V480H800V440Z"/>
<path d="M480 440H520V480H480V440Z"/>
<path d="M1120 440H1160V480H1120V440Z"/>
<path d="M160 280H200V320H160V280Z"/>
<path d="M800 280H840V320H800V280Z"/>
<path d="M480 280H520V320H480V280Z"/>
<path d="M1120 280H1160V320H1120V280Z"/>
<path d="M160 600H200V640H160V600Z"/>
<path d="M160 760H200V800H160V760Z"/>
<path d="M800 600H840V640H800V600Z"/>
<path d="M800 760H840V800H800V760Z"/>
<path d="M480 600H520V640H480V600Z"/>
<path d="M480 760H520V800H480V760Z"/>
<path d="M1120 600H1160V640H1120V600Z"/>
<path d="M1120 760H1160V800H1120V760Z"/>
<path d="M0 40H40V80H0V40Z"/>
<path d="M640 40H680V80H640V40Z"/>
<path d="M320 40H360V80H320V40Z"/>
<path d="M960 40H1000V80H960V40Z"/>
<path d="M0 360H40V400H0V360Z"/>
<path d="M640 360H680V400H640V360Z"/>
<path d="M320 360H360V400H320V360Z"/>
<path d="M960 360H1000V400H960V360Z"/>
<path d="M0 200H40V240H0V200Z"/>
<path d="M640 200H680V240H640V200Z"/>
<path d="M320 200H360V240H320V200Z"/>
<path d="M960 200H1000V240H960V200Z"/>
<path d="M0 520H40V560H0V520Z"/>
<path d="M0 680H40V720H0V680Z"/>
<path d="M640 520H680V560H640V520Z"/>
<path d="M640 680H680V720H640V680Z"/>
<path d="M320 520H360V560H320V520Z"/>
<path d="M320 680H360V720H320V680Z"/>
<path d="M960 520H1000V560H960V520Z"/>
<path d="M960 680H1000V720H960V680Z"/>
<path d="M160 40H200V80H160V40Z"/>
<path d="M800 40H840V80H800V40Z"/>
<path d="M480 40H520V80H480V40Z"/>
<path d="M1120 40H1160V80H1120V40Z"/>
<path d="M160 360H200V400H160V360Z"/>
<path d="M800 360H840V400H800V360Z"/>
<path d="M480 360H520V400H480V360Z"/>
<path d="M1120 360H1160V400H1120V360Z"/>
<path d="M160 200H200V240H160V200Z"/>
<path d="M800 200H840V240H800V200Z"/>
<path d="M480 200H520V240H480V200Z"/>
<path d="M1120 200H1160V240H1120V200Z"/>
<path d="M160 520H200V560H160V520Z"/>
<path d="M160 680H200V720H160V680Z"/>
<path d="M800 520H840V560H800V520Z"/>
<path d="M800 680H840V720H800V680Z"/>
<path d="M480 520H520V560H480V520Z"/>
<path d="M480 680H520V720H480V680Z"/>
<path d="M1120 520H1160V560H1120V520Z"/>
<path d="M1120 680H1160V720H1120V680Z"/>
<path d="M80 40H120V80H80V40Z"/>
<path d="M720 40H760V80H720V40Z"/>
<path d="M400 40H440V80H400V40Z"/>
<path d="M1040 40H1080V80H1040V40Z"/>
<path d="M80 360H120V400H80V360Z"/>
<path d="M720 360H760V400H720V360Z"/>
<path d="M400 360H440V400H400V360Z"/>
<path d="M1040 360H1080V400H1040V360Z"/>
<path d="M80 200H120V240H80V200Z"/>
<path d="M720 200H760V240H720V200Z"/>
<path d="M400 200H440V240H400V200Z"/>
<path d="M1040 200H1080V240H1040V200Z"/>
<path d="M80 520H120V560H80V520Z"/>
<path d="M80 680H120V720H80V680Z"/>
<path d="M720 520H760V560H720V520Z"/>
<path d="M720 680H760V720H720V680Z"/>
<path d="M400 520H440V560H400V520Z"/>
<path d="M400 680H440V720H400V680Z"/>
<path d="M1040 520H1080V560H1040V520Z"/>
<path d="M1040 680H1080V720H1040V680Z"/>
<path d="M240 40H280V80H240V40Z"/>
<path d="M880 40H920V80H880V40Z"/>
<path d="M560 40H600V80H560V40Z"/>
<path d="M1200 40H1240V80H1200V40Z"/>
<path d="M1320 40H1360V80H1320V40Z"/>
<path d="M240 360H280V400H240V360Z"/>
<path d="M880 360H920V400H880V360Z"/>
<path d="M560 360H600V400H560V360Z"/>
<path d="M1200 360H1240V400H1200V360Z"/>
<path d="M1320 360H1360V400H1320V360Z"/>
<path d="M240 200H280V240H240V200Z"/>
<path d="M880 200H920V240H880V200Z"/>
<path d="M560 200H600V240H560V200Z"/>
<path d="M1200 200H1240V240H1200V200Z"/>
<path d="M1320 200H1360V240H1320V200Z"/>
<path d="M240 520H280V560H240V520Z"/>
<path d="M240 680H280V720H240V680Z"/>
<path d="M880 520H920V560H880V520Z"/>
<path d="M880 680H920V720H880V680Z"/>
<path d="M560 520H600V560H560V520Z"/>
<path d="M560 680H600V720H560V680Z"/>
<path d="M1200 520H1240V560H1200V520Z"/>
<path d="M1200 680H1240V720H1200V680Z"/>
<path d="M1320 520H1360V560H1320V520Z"/>
<path d="M1320 680H1360V720H1320V680Z"/>
<path d="M80 80H120V120H80V80Z"/>
<path d="M720 80H760V120H720V80Z"/>
<path d="M400 80H440V120H400V80Z"/>
<path d="M1040 80H1080V120H1040V80Z"/>
<path d="M80 400H120V440H80V400Z"/>
<path d="M720 400H760V440H720V400Z"/>
<path d="M400 400H440V440H400V400Z"/>
<path d="M1040 400H1080V440H1040V400Z"/>
<path d="M80 240H120V280H80V240Z"/>
<path d="M720 240H760V280H720V240Z"/>
<path d="M400 240H440V280H400V240Z"/>
<path d="M1040 240H1080V280H1040V240Z"/>
<path d="M80 560H120V600H80V560Z"/>
<path d="M80 720H120V760H80V720Z"/>
<path d="M720 560H760V600H720V560Z"/>
<path d="M720 720H760V760H720V720Z"/>
<path d="M400 560H440V600H400V560Z"/>
<path d="M400 720H440V760H400V720Z"/>
<path d="M1040 560H1080V600H1040V560Z"/>
<path d="M1040 720H1080V760H1040V720Z"/>
<path d="M240 80H280V120H240V80Z"/>
<path d="M880 80H920V120H880V80Z"/>
<path d="M560 80H600V120H560V80Z"/>
<path d="M1200 80H1240V120H1200V80Z"/>
<path d="M1320 80H1360V120H1320V80Z"/>
<path d="M240 400H280V440H240V400Z"/>
<path d="M880 400H920V440H880V400Z"/>
<path d="M560 400H600V440H560V400Z"/>
<path d="M1200 400H1240V440H1200V400Z"/>
<path d="M1320 400H1360V440H1320V400Z"/>
<path d="M240 240H280V280H240V240Z"/>
<path d="M880 240H920V280H880V240Z"/>
<path d="M560 240H600V280H560V240Z"/>
<path d="M1200 240H1240V280H1200V240Z"/>
<path d="M1320 240H1360V280H1320V240Z"/>
<path d="M240 560H280V600H240V560Z"/>
<path d="M240 720H280V760H240V720Z"/>
<path d="M880 560H920V600H880V560Z"/>
<path d="M880 720H920V760H880V720Z"/>
<path d="M560 560H600V600H560V560Z"/>
<path d="M560 720H600V760H560V720Z"/>
<path d="M1200 560H1240V600H1200V560Z"/>
<path d="M1200 720H1240V760H1200V720Z"/>
<path d="M1320 560H1360V600H1320V560Z"/>
<path d="M1320 720H1360V760H1320V720Z"/>
<path d="M0 80H40V120H0V80Z"/>
<path d="M640 80H680V120H640V80Z"/>
<path d="M320 80H360V120H320V80Z"/>
<path d="M960 80H1000V120H960V80Z"/>
<path d="M0 400H40V440H0V400Z"/>
<path d="M640 400H680V440H640V400Z"/>
<path d="M320 400H360V440H320V400Z"/>
<path d="M960 400H1000V440H960V400Z"/>
<path d="M0 240H40V280H0V240Z"/>
<path d="M640 240H680V280H640V240Z"/>
<path d="M320 240H360V280H320V240Z"/>
<path d="M960 240H1000V280H960V240Z"/>
<path d="M0 560H40V600H0V560Z"/>
<path d="M0 720H40V760H0V720Z"/>
<path d="M640 560H680V600H640V560Z"/>
<path d="M640 720H680V760H640V720Z"/>
<path d="M320 560H360V600H320V560Z"/>
<path d="M320 720H360V760H320V720Z"/>
<path d="M960 560H1000V600H960V560Z"/>
<path d="M960 720H1000V760H960V720Z"/>
<path d="M160 80H200V120H160V80Z"/>
<path d="M800 80H840V120H800V80Z"/>
<path d="M480 80H520V120H480V80Z"/>
<path d="M1120 80H1160V120H1120V80Z"/>
<path d="M160 400H200V440H160V400Z"/>
<path d="M800 400H840V440H800V400Z"/>
<path d="M480 400H520V440H480V400Z"/>
<path d="M1120 400H1160V440H1120V400Z"/>
<path d="M160 240H200V280H160V240Z"/>
<path d="M800 240H840V280H800V240Z"/>
<path d="M480 240H520V280H480V240Z"/>
<path d="M1120 240H1160V280H1120V240Z"/>
<path d="M160 560H200V600H160V560Z"/>
<path d="M160 720H200V760H160V720Z"/>
<path d="M800 560H840V600H800V560Z"/>
<path d="M800 720H840V760H800V720Z"/>
<path d="M480 560H520V600H480V560Z"/>
<path d="M480 720H520V760H480V720Z"/>
<path d="M1120 560H1160V600H1120V560Z"/>
<path d="M1120 720H1160V760H1120V720Z"/>
<path d="M0 0H40V40H0V0Z"/>
<path d="M640 0H680V40H640V0Z"/>
<path d="M320 0H360V40H320V0Z"/>
<path d="M960 0H1000V40H960V0Z"/>
<path d="M0 320H40V360H0V320Z"/>
<path d="M640 320H680V360H640V320Z"/>
<path d="M320 320H360V360H320V320Z"/>
<path d="M960 320H1000V360H960V320Z"/>
<path d="M0 160H40V200H0V160Z"/>
<path d="M640 160H680V200H640V160Z"/>
<path d="M320 160H360V200H320V160Z"/>
<path d="M960 160H1000V200H960V160Z"/>
<path d="M0 480H40V520H0V480Z"/>
<path d="M0 640H40V680H0V640Z"/>
<path d="M640 480H680V520H640V480Z"/>
<path d="M640 640H680V680H640V640Z"/>
<path d="M320 480H360V520H320V480Z"/>
<path d="M320 640H360V680H320V640Z"/>
<path d="M960 480H1000V520H960V480Z"/>
<path d="M960 640H1000V680H960V640Z"/>
<path d="M160 0H200V40H160V0Z"/>
<path d="M800 0H840V40H800V0Z"/>
<path d="M480 0H520V40H480V0Z"/>
<path d="M1120 0H1160V40H1120V0Z"/>
<path d="M160 320H200V360H160V320Z"/>
<path d="M800 320H840V360H800V320Z"/>
<path d="M480 320H520V360H480V320Z"/>
<path d="M1120 320H1160V360H1120V320Z"/>
<path d="M160 160H200V200H160V160Z"/>
<path d="M800 160H840V200H800V160Z"/>
<path d="M480 160H520V200H480V160Z"/>
<path d="M1120 160H1160V200H1120V160Z"/>
<path d="M160 480H200V520H160V480Z"/>
<path d="M160 640H200V680H160V640Z"/>
<path d="M800 480H840V520H800V480Z"/>
<path d="M800 640H840V680H800V640Z"/>
<path d="M480 480H520V520H480V480Z"/>
<path d="M480 640H520V680H480V640Z"/>
<path d="M1120 480H1160V520H1120V480Z"/>
<path d="M1120 640H1160V680H1120V640Z"/>
<path d="M80 0H120V40H80V0Z"/>
<path d="M720 0H760V40H720V0Z"/>
<path d="M400 0H440V40H400V0Z"/>
<path d="M1040 0H1080V40H1040V0Z"/>
<path d="M80 320H120V360H80V320Z"/>
<path d="M720 320H760V360H720V320Z"/>
<path d="M400 320H440V360H400V320Z"/>
<path d="M1040 320H1080V360H1040V320Z"/>
<path d="M80 160H120V200H80V160Z"/>
<path d="M720 160H760V200H720V160Z"/>
<path d="M400 160H440V200H400V160Z"/>
<path d="M1040 160H1080V200H1040V160Z"/>
<path d="M80 480H120V520H80V480Z"/>
<path d="M80 640H120V680H80V640Z"/>
<path d="M720 480H760V520H720V480Z"/>
<path d="M720 640H760V680H720V640Z"/>
<path d="M400 480H440V520H400V480Z"/>
<path d="M400 640H440V680H400V640Z"/>
<path d="M1040 480H1080V520H1040V480Z"/>
<path d="M1040 640H1080V680H1040V640Z"/>
<path d="M240 0H280V40H240V0Z"/>
<path d="M880 0H920V40H880V0Z"/>
<path d="M560 0H600V40H560V0Z"/>
<path d="M1200 0H1240V40H1200V0Z"/>
<path d="M1320 0H1360V40H1320V0Z"/>
<path d="M240 320H280V360H240V320Z"/>
<path d="M880 320H920V360H880V320Z"/>
<path d="M560 320H600V360H560V320Z"/>
<path d="M1200 320H1240V360H1200V320Z"/>
<path d="M1320 320H1360V360H1320V320Z"/>
<path d="M240 160H280V200H240V160Z"/>
<path d="M880 160H920V200H880V160Z"/>
<path d="M560 160H600V200H560V160Z"/>
<path d="M1200 160H1240V200H1200V160Z"/>
<path d="M1320 160H1360V200H1320V160Z"/>
<path d="M240 480H280V520H240V480Z"/>
<path d="M240 640H280V680H240V640Z"/>
<path d="M880 480H920V520H880V480Z"/>
<path d="M880 640H920V680H880V640Z"/>
<path d="M560 480H600V520H560V480Z"/>
<path d="M560 640H600V680H560V640Z"/>
<path d="M1200 480H1240V520H1200V480Z"/>
<path d="M1200 640H1240V680H1200V640Z"/>
<path d="M1320 480H1360V520H1320V480Z"/>
<path d="M1320 640H1360V680H1320V640Z"/>
<path d="M120 120H160V160H120V120Z"/>
<path d="M760 120H800V160H760V120Z"/>
<path d="M440 120H480V160H440V120Z"/>
<path d="M1080 120H1120V160H1080V120Z"/>
<path d="M120 440H160V480H120V440Z"/>
<path d="M760 440H800V480H760V440Z"/>
<path d="M440 440H480V480H440V440Z"/>
<path d="M1080 440H1120V480H1080V440Z"/>
<path d="M120 280H160V320H120V280Z"/>
<path d="M760 280H800V320H760V280Z"/>
<path d="M440 280H480V320H440V280Z"/>
<path d="M1080 280H1120V320H1080V280Z"/>
<path d="M120 600H160V640H120V600Z"/>
<path d="M120 760H160V800H120V760Z"/>
<path d="M760 600H800V640H760V600Z"/>
<path d="M760 760H800V800H760V760Z"/>
<path d="M440 600H480V640H440V600Z"/>
<path d="M440 760H480V800H440V760Z"/>
<path d="M1080 600H1120V640H1080V600Z"/>
<path d="M1080 760H1120V800H1080V760Z"/>
<path d="M280 120H320V160H280V120Z"/>
<path d="M920 120H960V160H920V120Z"/>
<path d="M600 120H640V160H600V120Z"/>
<path d="M1240 120H1280V160H1240V120Z"/>
<path d="M1360 120H1400V160H1360V120Z"/>
<path d="M1400 120H1440V160H1400V120Z"/>
<path d="M280 440H320V480H280V440Z"/>
<path d="M920 440H960V480H920V440Z"/>
<path d="M600 440H640V480H600V440Z"/>
<path d="M1240 440H1280V480H1240V440Z"/>
<path d="M1360 440H1400V480H1360V440Z"/>
<path d="M1400 440H1440V480H1400V440Z"/>
<path d="M280 280H320V320H280V280Z"/>
<path d="M920 280H960V320H920V280Z"/>
<path d="M600 280H640V320H600V280Z"/>
<path d="M1240 280H1280V320H1240V280Z"/>
<path d="M1360 280H1400V320H1360V280Z"/>
<path d="M1400 280H1440V320H1400V280Z"/>
<path d="M280 600H320V640H280V600Z"/>
<path d="M280 760H320V800H280V760Z"/>
<path d="M920 600H960V640H920V600Z"/>
<path d="M920 760H960V800H920V760Z"/>
<path d="M600 600H640V640H600V600Z"/>
<path d="M600 760H640V800H600V760Z"/>
<path d="M1240 600H1280V640H1240V600Z"/>
<path d="M1240 760H1280V800H1240V760Z"/>
<path d="M1360 600H1400V640H1360V600Z"/>
<path d="M1360 760H1400V800H1360V760Z"/>
<path d="M1400 600H1440V640H1400V600Z"/>
<path d="M1400 760H1440V800H1400V760Z"/>
<path d="M40 120H80V160H40V120Z"/>
<path d="M680 120H720V160H680V120Z"/>
<path d="M360 120H400V160H360V120Z"/>
<path d="M1000 120H1040V160H1000V120Z"/>
<path d="M40 440H80V480H40V440Z"/>
<path d="M680 440H720V480H680V440Z"/>
<path d="M360 440H400V480H360V440Z"/>
<path d="M1000 440H1040V480H1000V440Z"/>
<path d="M40 280H80V320H40V280Z"/>
<path d="M680 280H720V320H680V280Z"/>
<path d="M360 280H400V320H360V280Z"/>
<path d="M1000 280H1040V320H1000V280Z"/>
<path d="M40 600H80V640H40V600Z"/>
<path d="M40 760H80V800H40V760Z"/>
<path d="M680 600H720V640H680V600Z"/>
<path d="M680 760H720V800H680V760Z"/>
<path d="M360 600H400V640H360V600Z"/>
<path d="M360 760H400V800H360V760Z"/>
<path d="M1000 600H1040V640H1000V600Z"/>
<path d="M1000 760H1040V800H1000V760Z"/>
<path d="M200 120H240V160H200V120Z"/>
<path d="M840 120H880V160H840V120Z"/>
<path d="M520 120H560V160H520V120Z"/>
<path d="M1160 120H1200V160H1160V120Z"/>
<path d="M1280 120H1320V160H1280V120Z"/>
<path d="M200 440H240V480H200V440Z"/>
<path d="M840 440H880V480H840V440Z"/>
<path d="M520 440H560V480H520V440Z"/>
<path d="M1160 440H1200V480H1160V440Z"/>
<path d="M1280 440H1320V480H1280V440Z"/>
<path d="M200 280H240V320H200V280Z"/>
<path d="M840 280H880V320H840V280Z"/>
<path d="M520 280H560V320H520V280Z"/>
<path d="M1160 280H1200V320H1160V280Z"/>
<path d="M1280 280H1320V320H1280V280Z"/>
<path d="M200 600H240V640H200V600Z"/>
<path d="M200 760H240V800H200V760Z"/>
<path d="M840 600H880V640H840V600Z"/>
<path d="M840 760H880V800H840V760Z"/>
<path d="M520 600H560V640H520V600Z"/>
<path d="M520 760H560V800H520V760Z"/>
<path d="M1160 600H1200V640H1160V600Z"/>
<path d="M1160 760H1200V800H1160V760Z"/>
<path d="M1280 600H1320V640H1280V600Z"/>
<path d="M1280 760H1320V800H1280V760Z"/>
<path d="M40 40H80V80H40V40Z"/>
<path d="M680 40H720V80H680V40Z"/>
<path d="M360 40H400V80H360V40Z"/>
<path d="M1000 40H1040V80H1000V40Z"/>
<path d="M40 360H80V400H40V360Z"/>
<path d="M680 360H720V400H680V360Z"/>
<path d="M360 360H400V400H360V360Z"/>
<path d="M1000 360H1040V400H1000V360Z"/>
<path d="M40 200H80V240H40V200Z"/>
<path d="M680 200H720V240H680V200Z"/>
<path d="M360 200H400V240H360V200Z"/>
<path d="M1000 200H1040V240H1000V200Z"/>
<path d="M40 520H80V560H40V520Z"/>
<path d="M40 680H80V720H40V680Z"/>
<path d="M680 520H720V560H680V520Z"/>
<path d="M680 680H720V720H680V680Z"/>
<path d="M360 520H400V560H360V520Z"/>
<path d="M360 680H400V720H360V680Z"/>
<path d="M1000 520H1040V560H1000V520Z"/>
<path d="M1000 680H1040V720H1000V680Z"/>
<path d="M200 40H240V80H200V40Z"/>
<path d="M840 40H880V80H840V40Z"/>
<path d="M520 40H560V80H520V40Z"/>
<path d="M1160 40H1200V80H1160V40Z"/>
<path d="M1280 40H1320V80H1280V40Z"/>
<path d="M200 360H240V400H200V360Z"/>
<path d="M840 360H880V400H840V360Z"/>
<path d="M520 360H560V400H520V360Z"/>
<path d="M1160 360H1200V400H1160V360Z"/>
<path d="M1280 360H1320V400H1280V360Z"/>
<path d="M200 200H240V240H200V200Z"/>
<path d="M840 200H880V240H840V200Z"/>
<path d="M520 200H560V240H520V200Z"/>
<path d="M1160 200H1200V240H1160V200Z"/>
<path d="M1280 200H1320V240H1280V200Z"/>
<path d="M200 520H240V560H200V520Z"/>
<path d="M200 680H240V720H200V680Z"/>
<path d="M840 520H880V560H840V520Z"/>
<path d="M840 680H880V720H840V680Z"/>
<path d="M520 520H560V560H520V520Z"/>
<path d="M520 680H560V720H520V680Z"/>
<path d="M1160 520H1200V560H1160V520Z"/>
<path d="M1160 680H1200V720H1160V680Z"/>
<path d="M1280 520H1320V560H1280V520Z"/>
<path d="M1280 680H1320V720H1280V680Z"/>
<path d="M120 40H160V80H120V40Z"/>
<path d="M760 40H800V80H760V40Z"/>
<path d="M440 40H480V80H440V40Z"/>
<path d="M1080 40H1120V80H1080V40Z"/>
<path d="M120 360H160V400H120V360Z"/>
<path d="M760 360H800V400H760V360Z"/>
<path d="M440 360H480V400H440V360Z"/>
<path d="M1080 360H1120V400H1080V360Z"/>
<path d="M120 200H160V240H120V200Z"/>
<path d="M760 200H800V240H760V200Z"/>
<path d="M440 200H480V240H440V200Z"/>
<path d="M1080 200H1120V240H1080V200Z"/>
<path d="M120 520H160V560H120V520Z"/>
<path d="M120 680H160V720H120V680Z"/>
<path d="M760 520H800V560H760V520Z"/>
<path d="M760 680H800V720H760V680Z"/>
<path d="M440 520H480V560H440V520Z"/>
<path d="M440 680H480V720H440V680Z"/>
<path d="M1080 520H1120V560H1080V520Z"/>
<path d="M1080 680H1120V720H1080V680Z"/>
<path d="M280 40H320V80H280V40Z"/>
<path d="M920 40H960V80H920V40Z"/>
<path d="M600 40H640V80H600V40Z"/>
<path d="M1240 40H1280V80H1240V40Z"/>
<path d="M1360 40H1400V80H1360V40Z"/>
<path d="M1400 40H1440V80H1400V40Z"/>
<path d="M280 360H320V400H280V360Z"/>
<path d="M920 360H960V400H920V360Z"/>
<path d="M600 360H640V400H600V360Z"/>
<path d="M1240 360H1280V400H1240V360Z"/>
<path d="M1360 360H1400V400H1360V360Z"/>
<path d="M1400 360H1440V400H1400V360Z"/>
<path d="M280 200H320V240H280V200Z"/>
<path d="M920 200H960V240H920V200Z"/>
<path d="M600 200H640V240H600V200Z"/>
<path d="M1240 200H1280V240H1240V200Z"/>
<path d="M1360 200H1400V240H1360V200Z"/>
<path d="M1400 200H1440V240H1400V200Z"/>
<path d="M280 520H320V560H280V520Z"/>
<path d="M280 680H320V720H280V680Z"/>
<path d="M920 520H960V560H920V520Z"/>
<path d="M920 680H960V720H920V680Z"/>
<path d="M600 520H640V560H600V520Z"/>
<path d="M600 680H640V720H600V680Z"/>
<path d="M1240 520H1280V560H1240V520Z"/>
<path d="M1240 680H1280V720H1240V680Z"/>
<path d="M1360 520H1400V560H1360V520Z"/>
<path d="M1360 680H1400V720H1360V680Z"/>
<path d="M1400 520H1440V560H1400V520Z"/>
<path d="M1400 680H1440V720H1400V680Z"/>
<path d="M120 80H160V120H120V80Z"/>
<path d="M760 80H800V120H760V80Z"/>
<path d="M440 80H480V120H440V80Z"/>
<path d="M1080 80H1120V120H1080V80Z"/>
<path d="M120 400H160V440H120V400Z"/>
<path d="M760 400H800V440H760V400Z"/>
<path d="M440 400H480V440H440V400Z"/>
<path d="M1080 400H1120V440H1080V400Z"/>
<path d="M120 240H160V280H120V240Z"/>
<path d="M760 240H800V280H760V240Z"/>
<path d="M440 240H480V280H440V240Z"/>
<path d="M1080 240H1120V280H1080V240Z"/>
<path d="M120 560H160V600H120V560Z"/>
<path d="M120 720H160V760H120V720Z"/>
<path d="M760 560H800V600H760V560Z"/>
<path d="M760 720H800V760H760V720Z"/>
<path d="M440 560H480V600H440V560Z"/>
<path d="M440 720H480V760H440V720Z"/>
<path d="M1080 560H1120V600H1080V560Z"/>
<path d="M1080 720H1120V760H1080V720Z"/>
<path d="M280 80H320V120H280V80Z"/>
<path d="M920 80H960V120H920V80Z"/>
<path d="M600 80H640V120H600V80Z"/>
<path d="M1240 80H1280V120H1240V80Z"/>
<path d="M1360 80H1400V120H1360V80Z"/>
<path d="M1400 80H1440V120H1400V80Z"/>
<path d="M280 400H320V440H280V400Z"/>
<path d="M920 400H960V440H920V400Z"/>
<path d="M600 400H640V440H600V400Z"/>
<path d="M1240 400H1280V440H1240V400Z"/>
<path d="M1360 400H1400V440H1360V400Z"/>
<path d="M1400 400H1440V440H1400V400Z"/>
<path d="M280 240H320V280H280V240Z"/>
<path d="M920 240H960V280H920V240Z"/>
<path d="M600 240H640V280H600V240Z"/>
<path d="M1240 240H1280V280H1240V240Z"/>
<path d="M1360 240H1400V280H1360V240Z"/>
<path d="M1400 240H1440V280H1400V240Z"/>
<path d="M280 560H320V600H280V560Z"/>
<path d="M280 720H320V760H280V720Z"/>
<path d="M920 560H960V600H920V560Z"/>
<path d="M920 720H960V760H920V720Z"/>
<path d="M600 560H640V600H600V560Z"/>
<path d="M600 720H640V760H600V720Z"/>
<path d="M1240 560H1280V600H1240V560Z"/>
<path d="M1240 720H1280V760H1240V720Z"/>
<path d="M1360 560H1400V600H1360V560Z"/>
<path d="M1360 720H1400V760H1360V720Z"/>
<path d="M1400 560H1440V600H1400V560Z"/>
<path d="M1400 720H1440V760H1400V720Z"/>
<path d="M40 80H80V120H40V80Z"/>
<path d="M680 80H720V120H680V80Z"/>
<path d="M360 80H400V120H360V80Z"/>
<path d="M1000 80H1040V120H1000V80Z"/>
<path d="M40 400H80V440H40V400Z"/>
<path d="M680 400H720V440H680V400Z"/>
<path d="M360 400H400V440H360V400Z"/>
<path d="M1000 400H1040V440H1000V400Z"/>
<path d="M40 240H80V280H40V240Z"/>
<path d="M680 240H720V280H680V240Z"/>
<path d="M360 240H400V280H360V240Z"/>
<path d="M1000 240H1040V280H1000V240Z"/>
<path d="M40 560H80V600H40V560Z"/>
<path d="M40 720H80V760H40V720Z"/>
<path d="M680 560H720V600H680V560Z"/>
<path d="M680 720H720V760H680V720Z"/>
<path d="M360 560H400V600H360V560Z"/>
<path d="M360 720H400V760H360V720Z"/>
<path d="M1000 560H1040V600H1000V560Z"/>
<path d="M1000 720H1040V760H1000V720Z"/>
<path d="M200 80H240V120H200V80Z"/>
<path d="M840 80H880V120H840V80Z"/>
<path d="M520 80H560V120H520V80Z"/>
<path d="M1160 80H1200V120H1160V80Z"/>
<path d="M1280 80H1320V120H1280V80Z"/>
<path d="M200 400H240V440H200V400Z"/>
<path d="M840 400H880V440H840V400Z"/>
<path d="M520 400H560V440H520V400Z"/>
<path d="M1160 400H1200V440H1160V400Z"/>
<path d="M1280 400H1320V440H1280V400Z"/>
<path d="M200 240H240V280H200V240Z"/>
<path d="M840 240H880V280H840V240Z"/>
<path d="M520 240H560V280H520V240Z"/>
<path d="M1160 240H1200V280H1160V240Z"/>
<path d="M1280 240H1320V280H1280V240Z"/>
<path d="M200 560H240V600H200V560Z"/>
<path d="M200 720H240V760H200V720Z"/>
<path d="M840 560H880V600H840V560Z"/>
<path d="M840 720H880V760H840V720Z"/>
<path d="M520 560H560V600H520V560Z"/>
<path d="M520 720H560V760H520V720Z"/>
<path d="M1160 560H1200V600H1160V560Z"/>
<path d="M1160 720H1200V760H1160V720Z"/>
<path d="M1280 560H1320V600H1280V560Z"/>
<path d="M1280 720H1320V760H1280V720Z"/>
<path d="M40 0H80V40H40V0Z"/>
<path d="M680 0H720V40H680V0Z"/>
<path d="M360 0H400V40H360V0Z"/>
<path d="M1000 0H1040V40H1000V0Z"/>
<path d="M40 320H80V360H40V320Z"/>
<path d="M680 320H720V360H680V320Z"/>
<path d="M360 320H400V360H360V320Z"/>
<path d="M1000 320H1040V360H1000V320Z"/>
<path d="M40 160H80V200H40V160Z"/>
<path d="M680 160H720V200H680V160Z"/>
<path d="M360 160H400V200H360V160Z"/>
<path d="M1000 160H1040V200H1000V160Z"/>
<path d="M40 480H80V520H40V480Z"/>
<path d="M40 640H80V680H40V640Z"/>
<path d="M680 480H720V520H680V480Z"/>
<path d="M680 640H720V680H680V640Z"/>
<path d="M360 480H400V520H360V480Z"/>
<path d="M360 640H400V680H360V640Z"/>
<path d="M1000 480H1040V520H1000V480Z"/>
<path d="M1000 640H1040V680H1000V640Z"/>
<path d="M200 0H240V40H200V0Z"/>
<path d="M840 0H880V40H840V0Z"/>
<path d="M520 0H560V40H520V0Z"/>
<path d="M1160 0H1200V40H1160V0Z"/>
<path d="M1280 0H1320V40H1280V0Z"/>
<path d="M200 320H240V360H200V320Z"/>
<path d="M840 320H880V360H840V320Z"/>
<path d="M520 320H560V360H520V320Z"/>
<path d="M1160 320H1200V360H1160V320Z"/>
<path d="M1280 320H1320V360H1280V320Z"/>
<path d="M200 160H240V200H200V160Z"/>
<path d="M840 160H880V200H840V160Z"/>
<path d="M520 160H560V200H520V160Z"/>
<path d="M1160 160H1200V200H1160V160Z"/>
<path d="M1280 160H1320V200H1280V160Z"/>
<path d="M200 480H240V520H200V480Z"/>
<path d="M200 640H240V680H200V640Z"/>
<path d="M840 480H880V520H840V480Z"/>
<path d="M840 640H880V680H840V640Z"/>
<path d="M520 480H560V520H520V480Z"/>
<path d="M520 640H560V680H520V640Z"/>
<path d="M1160 480H1200V520H1160V480Z"/>
<path d="M1160 640H1200V680H1160V640Z"/>
<path d="M1280 480H1320V520H1280V480Z"/>
<path d="M1280 640H1320V680H1280V640Z"/>
<path d="M120 0H160V40H120V0Z"/>
<path d="M760 0H800V40H760V0Z"/>
<path d="M440 0H480V40H440V0Z"/>
<path d="M1080 0H1120V40H1080V0Z"/>
<path d="M120 320H160V360H120V320Z"/>
<path d="M760 320H800V360H760V320Z"/>
<path d="M440 320H480V360H440V320Z"/>
<path d="M1080 320H1120V360H1080V320Z"/>
<path d="M120 160H160V200H120V160Z"/>
<path d="M760 160H800V200H760V160Z"/>
<path d="M440 160H480V200H440V160Z"/>
<path d="M1080 160H1120V200H1080V160Z"/>
<path d="M120 480H160V520H120V480Z"/>
<path d="M120 640H160V680H120V640Z"/>
<path d="M760 480H800V520H760V480Z"/>
<path d="M760 640H800V680H760V640Z"/>
<path d="M440 480H480V520H440V480Z"/>
<path d="M440 640H480V680H440V640Z"/>
<path d="M1080 480H1120V520H1080V480Z"/>
<path d="M1080 640H1120V680H1080V640Z"/>
<path d="M280 0H320V40H280V0Z"/>
<path d="M920 0H960V40H920V0Z"/>
<path d="M600 0H640V40H600V0Z"/>
<path d="M1240 0H1280V40H1240V0Z"/>
<path d="M1360 0H1400V40H1360V0Z"/>
<path d="M1400 0H1440V40H1400V0Z"/>
<path d="M280 320H320V360H280V320Z"/>
<path d="M920 320H960V360H920V320Z"/>
<path d="M600 320H640V360H600V320Z"/>
<path d="M1240 320H1280V360H1240V320Z"/>
<path d="M1360 320H1400V360H1360V320Z"/>
<path d="M1400 320H1440V360H1400V320Z"/>
<path d="M280 160H320V200H280V160Z"/>
<path d="M920 160H960V200H920V160Z"/>
<path d="M600 160H640V200H600V160Z"/>
<path d="M1240 160H1280V200H1240V160Z"/>
<path d="M1360 160H1400V200H1360V160Z"/>
<path d="M1400 160H1440V200H1400V160Z"/>
<path d="M280 480H320V520H280V480Z"/>
<path d="M280 640H320V680H280V640Z"/>
<path d="M920 480H960V520H920V480Z"/>
<path d="M920 640H960V680H920V640Z"/>
<path d="M600 480H640V520H600V480Z"/>
<path d="M600 640H640V680H600V640Z"/>
<path d="M1240 480H1280V520H1240V480Z"/>
<path d="M1240 640H1280V680H1240V640Z"/>
<path d="M1360 480H1400V520H1360V480Z"/>
<path d="M1360 640H1400V680H1360V640Z"/>
<path d="M1400 480H1440V520H1400V480Z"/>
<path d="M1400 640H1440V680H1400V640Z"/>
</mask>
<path d="M80 120.5H120V119.5H80V120.5ZM119.5 120V160H120.5V120H119.5ZM120 159.5H80V160.5H120V159.5ZM80.5 160V120H79.5V160H80.5ZM720 120.5H760V119.5H720V120.5ZM759.5 120V160H760.5V120H759.5ZM760 159.5H720V160.5H760V159.5ZM720.5 160V120H719.5V160H720.5ZM400 120.5H440V119.5H400V120.5ZM439.5 120V160H440.5V120H439.5ZM440 159.5H400V160.5H440V159.5ZM400.5 160V120H399.5V160H400.5ZM1040 120.5H1080V119.5H1040V120.5ZM1079.5 120V160H1080.5V120H1079.5ZM1080 159.5H1040V160.5H1080V159.5ZM1040.5 160V120H1039.5V160H1040.5ZM80 440.5H120V439.5H80V440.5ZM119.5 440V480H120.5V440H119.5ZM120 479.5H80V480.5H120V479.5ZM80.5 480V440H79.5V480H80.5ZM720 440.5H760V439.5H720V440.5ZM759.5 440V480H760.5V440H759.5ZM760 479.5H720V480.5H760V479.5ZM720.5 480V440H719.5V480H720.5ZM400 440.5H440V439.5H400V440.5ZM439.5 440V480H440.5V440H439.5ZM440 479.5H400V480.5H440V479.5ZM400.5 480V440H399.5V480H400.5ZM1040 440.5H1080V439.5H1040V440.5ZM1079.5 440V480H1080.5V440H1079.5ZM1080 479.5H1040V480.5H1080V479.5ZM1040.5 480V440H1039.5V480H1040.5ZM80 280.5H120V279.5H80V280.5ZM119.5 280V320H120.5V280H119.5ZM120 319.5H80V320.5H120V319.5ZM80.5 320V280H79.5V320H80.5ZM720 280.5H760V279.5H720V280.5ZM759.5 280V320H760.5V280H759.5ZM760 319.5H720V320.5H760V319.5ZM720.5 320V280H719.5V320H720.5ZM400 280.5H440V279.5H400V280.5ZM439.5 280V320H440.5V280H439.5ZM440 319.5H400V320.5H440V319.5ZM400.5 320V280H399.5V320H400.5ZM1040 280.5H1080V279.5H1040V280.5ZM1079.5 280V320H1080.5V280H1079.5ZM1080 319.5H1040V320.5H1080V319.5ZM1040.5 320V280H1039.5V320H1040.5ZM80 600.5H120V599.5H80V600.5ZM119.5 600V640H120.5V600H119.5ZM120 639.5H80V640.5H120V639.5ZM80.5 640V600H79.5V640H80.5ZM80 760.5H120V759.5H80V760.5ZM119.5 760V800H120.5V760H119.5ZM80.5 800V760H79.5V800H80.5ZM720 600.5H760V599.5H720V600.5ZM759.5 600V640H760.5V600H759.5ZM760 639.5H720V640.5H760V639.5ZM720.5 640V600H719.5V640H720.5ZM720 760.5H760V759.5H720V760.5ZM759.5 760V800H760.5V760H759.5ZM720.5 800V760H719.5V800H720.5ZM400 600.5H440V599.5H400V600.5ZM439.5 600V640H440.5V600H439.5ZM440 639.5H400V640.5H440V639.5ZM400.5 640V600H399.5V640H400.5ZM400 760.5H440V759.5H400V760.5ZM439.5 760V800H440.5V760H439.5ZM400.5 800V760H399.5V800H400.5ZM1040 600.5H1080V599.5H1040V600.5ZM1079.5 600V640H1080.5V600H1079.5ZM1080 639.5H1040V640.5H1080V639.5ZM1040.5 640V600H1039.5V640H1040.5ZM1040 760.5H1080V759.5H1040V760.5ZM1079.5 760V800H1080.5V760H1079.5ZM1040.5 800V760H1039.5V800H1040.5ZM240 120.5H280V119.5H240V120.5ZM279.5 120V160H280.5V120H279.5ZM280 159.5H240V160.5H280V159.5ZM240.5 160V120H239.5V160H240.5ZM880 120.5H920V119.5H880V120.5ZM919.5 120V160H920.5V120H919.5ZM920 159.5H880V160.5H920V159.5ZM880.5 160V120H879.5V160H880.5ZM560 120.5H600V119.5H560V120.5ZM599.5 120V160H600.5V120H599.5ZM600 159.5H560V160.5H600V159.5ZM560.5 160V120H559.5V160H560.5ZM1200 120.5H1240V119.5H1200V120.5ZM1239.5 120V160H1240.5V120H1239.5ZM1240 159.5H1200V160.5H1240V159.5ZM1200.5 160V120H1199.5V160H1200.5ZM1320 120.5H1360V119.5H1320V120.5ZM1359.5 120V160H1360.5V120H1359.5ZM1360 159.5H1320V160.5H1360V159.5ZM1320.5 160V120H1319.5V160H1320.5ZM240 440.5H280V439.5H240V440.5ZM279.5 440V480H280.5V440H279.5ZM280 479.5H240V480.5H280V479.5ZM240.5 480V440H239.5V480H240.5ZM880 440.5H920V439.5H880V440.5ZM919.5 440V480H920.5V440H919.5ZM920 479.5H880V480.5H920V479.5ZM880.5 480V440H879.5V480H880.5ZM560 440.5H600V439.5H560V440.5ZM599.5 440V480H600.5V440H599.5ZM600 479.5H560V480.5H600V479.5ZM560.5 480V440H559.5V480H560.5ZM1200 440.5H1240V439.5H1200V440.5ZM1239.5 440V480H1240.5V440H1239.5ZM1240 479.5H1200V480.5H1240V479.5ZM1200.5 480V440H1199.5V480H1200.5ZM1320 440.5H1360V439.5H1320V440.5ZM1359.5 440V480H1360.5V440H1359.5ZM1360 479.5H1320V480.5H1360V479.5ZM1320.5 480V440H1319.5V480H1320.5ZM240 280.5H280V279.5H240V280.5ZM279.5 280V320H280.5V280H279.5ZM280 319.5H240V320.5H280V319.5ZM240.5 320V280H239.5V320H240.5ZM880 280.5H920V279.5H880V280.5ZM919.5 280V320H920.5V280H919.5ZM920 319.5H880V320.5H920V319.5ZM880.5 320V280H879.5V320H880.5ZM560 280.5H600V279.5H560V280.5ZM599.5 280V320H600.5V280H599.5ZM600 319.5H560V320.5H600V319.5ZM560.5 320V280H559.5V320H560.5ZM1200 280.5H1240V279.5H1200V280.5ZM1239.5 280V320H1240.5V280H1239.5ZM1240 319.5H1200V320.5H1240V319.5ZM1200.5 320V280H1199.5V320H1200.5ZM1320 280.5H1360V279.5H1320V280.5ZM1359.5 280V320H1360.5V280H1359.5ZM1360 319.5H1320V320.5H1360V319.5ZM1320.5 320V280H1319.5V320H1320.5ZM240 600.5H280V599.5H240V600.5ZM279.5 600V640H280.5V600H279.5ZM280 639.5H240V640.5H280V639.5ZM240.5 640V600H239.5V640H240.5ZM240 760.5H280V759.5H240V760.5ZM279.5 760V800H280.5V760H279.5ZM240.5 800V760H239.5V800H240.5ZM880 600.5H920V599.5H880V600.5ZM919.5 600V640H920.5V600H919.5ZM920 639.5H880V640.5H920V639.5ZM880.5 640V600H879.5V640H880.5ZM880 760.5H920V759.5H880V760.5ZM919.5 760V800H920.5V760H919.5ZM880.5 800V760H879.5V800H880.5ZM560 600.5H600V599.5H560V600.5ZM599.5 600V640H600.5V600H599.5ZM600 639.5H560V640.5H600V639.5ZM560.5 640V600H559.5V640H560.5ZM560 760.5H600V759.5H560V760.5ZM599.5 760V800H600.5V760H599.5ZM560.5 800V760H559.5V800H560.5ZM1200 600.5H1240V599.5H1200V600.5ZM1239.5 600V640H1240.5V600H1239.5ZM1240 639.5H1200V640.5H1240V639.5ZM1200.5 640V600H1199.5V640H1200.5ZM1200 760.5H1240V759.5H1200V760.5ZM1239.5 760V800H1240.5V760H1239.5ZM1200.5 800V760H1199.5V800H1200.5ZM1320 600.5H1360V599.5H1320V600.5ZM1359.5 600V640H1360.5V600H1359.5ZM1360 639.5H1320V640.5H1360V639.5ZM1320.5 640V600H1319.5V640H1320.5ZM1320 760.5H1360V759.5H1320V760.5ZM1359.5 760V800H1360.5V760H1359.5ZM1320.5 800V760H1319.5V800H1320.5ZM0 120.5H40V119.5H0V120.5ZM39.5 120V160H40.5V120H39.5ZM40 159.5H0V160.5H40V159.5ZM640 120.5H680V119.5H640V120.5ZM679.5 120V160H680.5V120H679.5ZM680 159.5H640V160.5H680V159.5ZM640.5 160V120H639.5V160H640.5ZM320 120.5H360V119.5H320V120.5ZM359.5 120V160H360.5V120H359.5ZM360 159.5H320V160.5H360V159.5ZM320.5 160V120H319.5V160H320.5ZM960 120.5H1000V119.5H960V120.5ZM999.5 120V160H1000.5V120H999.5ZM1000 159.5H960V160.5H1000V159.5ZM960.5 160V120H959.5V160H960.5ZM0 440.5H40V439.5H0V440.5ZM39.5 440V480H40.5V440H39.5ZM40 479.5H0V480.5H40V479.5ZM640 440.5H680V439.5H640V440.5ZM679.5 440V480H680.5V440H679.5ZM680 479.5H640V480.5H680V479.5ZM640.5 480V440H639.5V480H640.5ZM320 440.5H360V439.5H320V440.5ZM359.5 440V480H360.5V440H359.5ZM360 479.5H320V480.5H360V479.5ZM320.5 480V440H319.5V480H320.5ZM960 440.5H1000V439.5H960V440.5ZM999.5 440V480H1000.5V440H999.5ZM1000 479.5H960V480.5H1000V479.5ZM960.5 480V440H959.5V480H960.5ZM0 280.5H40V279.5H0V280.5ZM39.5 280V320H40.5V280H39.5ZM40 319.5H0V320.5H40V319.5ZM640 280.5H680V279.5H640V280.5ZM679.5 280V320H680.5V280H679.5ZM680 319.5H640V320.5H680V319.5ZM640.5 320V280H639.5V320H640.5ZM320 280.5H360V279.5H320V280.5ZM359.5 280V320H360.5V280H359.5ZM360 319.5H320V320.5H360V319.5ZM320.5 320V280H319.5V320H320.5ZM960 280.5H1000V279.5H960V280.5ZM999.5 280V320H1000.5V280H999.5ZM1000 319.5H960V320.5H1000V319.5ZM960.5 320V280H959.5V320H960.5ZM0 600.5H40V599.5H0V600.5ZM39.5 600V640H40.5V600H39.5ZM40 639.5H0V640.5H40V639.5ZM0 760.5H40V759.5H0V760.5ZM39.5 760V800H40.5V760H39.5ZM640 600.5H680V599.5H640V600.5ZM679.5 600V640H680.5V600H679.5ZM680 639.5H640V640.5H680V639.5ZM640.5 640V600H639.5V640H640.5ZM640 760.5H680V759.5H640V760.5ZM679.5 760V800H680.5V760H679.5ZM640.5 800V760H639.5V800H640.5ZM320 600.5H360V599.5H320V600.5ZM359.5 600V640H360.5V600H359.5ZM360 639.5H320V640.5H360V639.5ZM320.5 640V600H319.5V640H320.5ZM320 760.5H360V759.5H320V760.5ZM359.5 760V800H360.5V760H359.5ZM320.5 800V760H319.5V800H320.5ZM960 600.5H1000V599.5H960V600.5ZM999.5 600V640H1000.5V600H999.5ZM1000 639.5H960V640.5H1000V639.5ZM960.5 640V600H959.5V640H960.5ZM960 760.5H1000V759.5H960V760.5ZM999.5 760V800H1000.5V760H999.5ZM960.5 800V760H959.5V800H960.5ZM160 120.5H200V119.5H160V120.5ZM199.5 120V160H200.5V120H199.5ZM200 159.5H160V160.5H200V159.5ZM160.5 160V120H159.5V160H160.5ZM800 120.5H840V119.5H800V120.5ZM839.5 120V160H840.5V120H839.5ZM840 159.5H800V160.5H840V159.5ZM800.5 160V120H799.5V160H800.5ZM480 120.5H520V119.5H480V120.5ZM519.5 120V160H520.5V120H519.5ZM520 159.5H480V160.5H520V159.5ZM480.5 160V120H479.5V160H480.5ZM1120 120.5H1160V119.5H1120V120.5ZM1159.5 120V160H1160.5V120H1159.5ZM1160 159.5H1120V160.5H1160V159.5ZM1120.5 160V120H1119.5V160H1120.5ZM160 440.5H200V439.5H160V440.5ZM199.5 440V480H200.5V440H199.5ZM200 479.5H160V480.5H200V479.5ZM160.5 480V440H159.5V480H160.5ZM800 440.5H840V439.5H800V440.5ZM839.5 440V480H840.5V440H839.5ZM840 479.5H800V480.5H840V479.5ZM800.5 480V440H799.5V480H800.5ZM480 440.5H520V439.5H480V440.5ZM519.5 440V480H520.5V440H519.5ZM520 479.5H480V480.5H520V479.5ZM480.5 480V440H479.5V480H480.5ZM1120 440.5H1160V439.5H1120V440.5ZM1159.5 440V480H1160.5V440H1159.5ZM1160 479.5H1120V480.5H1160V479.5ZM1120.5 480V440H1119.5V480H1120.5ZM160 280.5H200V279.5H160V280.5ZM199.5 280V320H200.5V280H199.5ZM200 319.5H160V320.5H200V319.5ZM160.5 320V280H159.5V320H160.5ZM800 280.5H840V279.5H800V280.5ZM839.5 280V320H840.5V280H839.5ZM840 319.5H800V320.5H840V319.5ZM800.5 320V280H799.5V320H800.5ZM480 280.5H520V279.5H480V280.5ZM519.5 280V320H520.5V280H519.5ZM520 319.5H480V320.5H520V319.5ZM480.5 320V280H479.5V320H480.5ZM1120 280.5H1160V279.5H1120V280.5ZM1159.5 280V320H1160.5V280H1159.5ZM1160 319.5H1120V320.5H1160V319.5ZM1120.5 320V280H1119.5V320H1120.5ZM160 600.5H200V599.5H160V600.5ZM199.5 600V640H200.5V600H199.5ZM200 639.5H160V640.5H200V639.5ZM160.5 640V600H159.5V640H160.5ZM160 760.5H200V759.5H160V760.5ZM199.5 760V800H200.5V760H199.5ZM160.5 800V760H159.5V800H160.5ZM800 600.5H840V599.5H800V600.5ZM839.5 600V640H840.5V600H839.5ZM840 639.5H800V640.5H840V639.5ZM800.5 640V600H799.5V640H800.5ZM800 760.5H840V759.5H800V760.5ZM839.5 760V800H840.5V760H839.5ZM800.5 800V760H799.5V800H800.5ZM480 600.5H520V599.5H480V600.5ZM519.5 600V640H520.5V600H519.5ZM520 639.5H480V640.5H520V639.5ZM480.5 640V600H479.5V640H480.5ZM480 760.5H520V759.5H480V760.5ZM519.5 760V800H520.5V760H519.5ZM480.5 800V760H479.5V800H480.5ZM1120 600.5H1160V599.5H1120V600.5ZM1159.5 600V640H1160.5V600H1159.5ZM1160 639.5H1120V640.5H1160V639.5ZM1120.5 640V600H1119.5V640H1120.5ZM1120 760.5H1160V759.5H1120V760.5ZM1159.5 760V800H1160.5V760H1159.5ZM1120.5 800V760H1119.5V800H1120.5ZM0 40.5H40V39.5H0V40.5ZM39.5 40V80H40.5V40H39.5ZM40 79.5H0V80.5H40V79.5ZM640 40.5H680V39.5H640V40.5ZM679.5 40V80H680.5V40H679.5ZM680 79.5H640V80.5H680V79.5ZM640.5 80V40H639.5V80H640.5ZM320 40.5H360V39.5H320V40.5ZM359.5 40V80H360.5V40H359.5ZM360 79.5H320V80.5H360V79.5ZM320.5 80V40H319.5V80H320.5ZM960 40.5H1000V39.5H960V40.5ZM999.5 40V80H1000.5V40H999.5ZM1000 79.5H960V80.5H1000V79.5ZM960.5 80V40H959.5V80H960.5ZM0 360.5H40V359.5H0V360.5ZM39.5 360V400H40.5V360H39.5ZM40 399.5H0V400.5H40V399.5ZM640 360.5H680V359.5H640V360.5ZM679.5 360V400H680.5V360H679.5ZM680 399.5H640V400.5H680V399.5ZM640.5 400V360H639.5V400H640.5ZM320 360.5H360V359.5H320V360.5ZM359.5 360V400H360.5V360H359.5ZM360 399.5H320V400.5H360V399.5ZM320.5 400V360H319.5V400H320.5ZM960 360.5H1000V359.5H960V360.5ZM999.5 360V400H1000.5V360H999.5ZM1000 399.5H960V400.5H1000V399.5ZM960.5 400V360H959.5V400H960.5ZM0 200.5H40V199.5H0V200.5ZM39.5 200V240H40.5V200H39.5ZM40 239.5H0V240.5H40V239.5ZM640 200.5H680V199.5H640V200.5ZM679.5 200V240H680.5V200H679.5ZM680 239.5H640V240.5H680V239.5ZM640.5 240V200H639.5V240H640.5ZM320 200.5H360V199.5H320V200.5ZM359.5 200V240H360.5V200H359.5ZM360 239.5H320V240.5H360V239.5ZM320.5 240V200H319.5V240H320.5ZM960 200.5H1000V199.5H960V200.5ZM999.5 200V240H1000.5V200H999.5ZM1000 239.5H960V240.5H1000V239.5ZM960.5 240V200H959.5V240H960.5ZM0 520.5H40V519.5H0V520.5ZM39.5 520V560H40.5V520H39.5ZM40 559.5H0V560.5H40V559.5ZM0 680.5H40V679.5H0V680.5ZM39.5 680V720H40.5V680H39.5ZM40 719.5H0V720.5H40V719.5ZM640 520.5H680V519.5H640V520.5ZM679.5 520V560H680.5V520H679.5ZM680 559.5H640V560.5H680V559.5ZM640.5 560V520H639.5V560H640.5ZM640 680.5H680V679.5H640V680.5ZM679.5 680V720H680.5V680H679.5ZM680 719.5H640V720.5H680V719.5ZM640.5 720V680H639.5V720H640.5ZM320 520.5H360V519.5H320V520.5ZM359.5 520V560H360.5V520H359.5ZM360 559.5H320V560.5H360V559.5ZM320.5 560V520H319.5V560H320.5ZM320 680.5H360V679.5H320V680.5ZM359.5 680V720H360.5V680H359.5ZM360 719.5H320V720.5H360V719.5ZM320.5 720V680H319.5V720H320.5ZM960 520.5H1000V519.5H960V520.5ZM999.5 520V560H1000.5V520H999.5ZM1000 559.5H960V560.5H1000V559.5ZM960.5 560V520H959.5V560H960.5ZM960 680.5H1000V679.5H960V680.5ZM999.5 680V720H1000.5V680H999.5ZM1000 719.5H960V720.5H1000V719.5ZM960.5 720V680H959.5V720H960.5ZM160 40.5H200V39.5H160V40.5ZM199.5 40V80H200.5V40H199.5ZM200 79.5H160V80.5H200V79.5ZM160.5 80V40H159.5V80H160.5ZM800 40.5H840V39.5H800V40.5ZM839.5 40V80H840.5V40H839.5ZM840 79.5H800V80.5H840V79.5ZM800.5 80V40H799.5V80H800.5ZM480 40.5H520V39.5H480V40.5ZM519.5 40V80H520.5V40H519.5ZM520 79.5H480V80.5H520V79.5ZM480.5 80V40H479.5V80H480.5ZM1120 40.5H1160V39.5H1120V40.5ZM1159.5 40V80H1160.5V40H1159.5ZM1160 79.5H1120V80.5H1160V79.5ZM1120.5 80V40H1119.5V80H1120.5ZM160 360.5H200V359.5H160V360.5ZM199.5 360V400H200.5V360H199.5ZM200 399.5H160V400.5H200V399.5ZM160.5 400V360H159.5V400H160.5ZM800 360.5H840V359.5H800V360.5ZM839.5 360V400H840.5V360H839.5ZM840 399.5H800V400.5H840V399.5ZM800.5 400V360H799.5V400H800.5ZM480 360.5H520V359.5H480V360.5ZM519.5 360V400H520.5V360H519.5ZM520 399.5H480V400.5H520V399.5ZM480.5 400V360H479.5V400H480.5ZM1120 360.5H1160V359.5H1120V360.5ZM1159.5 360V400H1160.5V360H1159.5ZM1160 399.5H1120V400.5H1160V399.5ZM1120.5 400V360H1119.5V400H1120.5ZM160 200.5H200V199.5H160V200.5ZM199.5 200V240H200.5V200H199.5ZM200 239.5H160V240.5H200V239.5ZM160.5 240V200H159.5V240H160.5ZM800 200.5H840V199.5H800V200.5ZM839.5 200V240H840.5V200H839.5ZM840 239.5H800V240.5H840V239.5ZM800.5 240V200H799.5V240H800.5ZM480 200.5H520V199.5H480V200.5ZM519.5 200V240H520.5V200H519.5ZM520 239.5H480V240.5H520V239.5ZM480.5 240V200H479.5V240H480.5ZM1120 200.5H1160V199.5H1120V200.5ZM1159.5 200V240H1160.5V200H1159.5ZM1160 239.5H1120V240.5H1160V239.5ZM1120.5 240V200H1119.5V240H1120.5ZM160 520.5H200V519.5H160V520.5ZM199.5 520V560H200.5V520H199.5ZM200 559.5H160V560.5H200V559.5ZM160.5 560V520H159.5V560H160.5ZM160 680.5H200V679.5H160V680.5ZM199.5 680V720H200.5V680H199.5ZM200 719.5H160V720.5H200V719.5ZM160.5 720V680H159.5V720H160.5ZM800 520.5H840V519.5H800V520.5ZM839.5 520V560H840.5V520H839.5ZM840 559.5H800V560.5H840V559.5ZM800.5 560V520H799.5V560H800.5ZM800 680.5H840V679.5H800V680.5ZM839.5 680V720H840.5V680H839.5ZM840 719.5H800V720.5H840V719.5ZM800.5 720V680H799.5V720H800.5ZM480 520.5H520V519.5H480V520.5ZM519.5 520V560H520.5V520H519.5ZM520 559.5H480V560.5H520V559.5ZM480.5 560V520H479.5V560H480.5ZM480 680.5H520V679.5H480V680.5ZM519.5 680V720H520.5V680H519.5ZM520 719.5H480V720.5H520V719.5ZM480.5 720V680H479.5V720H480.5ZM1120 520.5H1160V519.5H1120V520.5ZM1159.5 520V560H1160.5V520H1159.5ZM1160 559.5H1120V560.5H1160V559.5ZM1120.5 560V520H1119.5V560H1120.5ZM1120 680.5H1160V679.5H1120V680.5ZM1159.5 680V720H1160.5V680H1159.5ZM1160 719.5H1120V720.5H1160V719.5ZM1120.5 720V680H1119.5V720H1120.5ZM80 40.5H120V39.5H80V40.5ZM119.5 40V80H120.5V40H119.5ZM120 79.5H80V80.5H120V79.5ZM80.5 80V40H79.5V80H80.5ZM720 40.5H760V39.5H720V40.5ZM759.5 40V80H760.5V40H759.5ZM760 79.5H720V80.5H760V79.5ZM720.5 80V40H719.5V80H720.5ZM400 40.5H440V39.5H400V40.5ZM439.5 40V80H440.5V40H439.5ZM440 79.5H400V80.5H440V79.5ZM400.5 80V40H399.5V80H400.5ZM1040 40.5H1080V39.5H1040V40.5ZM1079.5 40V80H1080.5V40H1079.5ZM1080 79.5H1040V80.5H1080V79.5ZM1040.5 80V40H1039.5V80H1040.5ZM80 360.5H120V359.5H80V360.5ZM119.5 360V400H120.5V360H119.5ZM120 399.5H80V400.5H120V399.5ZM80.5 400V360H79.5V400H80.5ZM720 360.5H760V359.5H720V360.5ZM759.5 360V400H760.5V360H759.5ZM760 399.5H720V400.5H760V399.5ZM720.5 400V360H719.5V400H720.5ZM400 360.5H440V359.5H400V360.5ZM439.5 360V400H440.5V360H439.5ZM440 399.5H400V400.5H440V399.5ZM400.5 400V360H399.5V400H400.5ZM1040 360.5H1080V359.5H1040V360.5ZM1079.5 360V400H1080.5V360H1079.5ZM1080 399.5H1040V400.5H1080V399.5ZM1040.5 400V360H1039.5V400H1040.5ZM80 200.5H120V199.5H80V200.5ZM119.5 200V240H120.5V200H119.5ZM120 239.5H80V240.5H120V239.5ZM80.5 240V200H79.5V240H80.5ZM720 200.5H760V199.5H720V200.5ZM759.5 200V240H760.5V200H759.5ZM760 239.5H720V240.5H760V239.5ZM720.5 240V200H719.5V240H720.5ZM400 200.5H440V199.5H400V200.5ZM439.5 200V240H440.5V200H439.5ZM440 239.5H400V240.5H440V239.5ZM400.5 240V200H399.5V240H400.5ZM1040 200.5H1080V199.5H1040V200.5ZM1079.5 200V240H1080.5V200H1079.5ZM1080 239.5H1040V240.5H1080V239.5ZM1040.5 240V200H1039.5V240H1040.5ZM80 520.5H120V519.5H80V520.5ZM119.5 520V560H120.5V520H119.5ZM120 559.5H80V560.5H120V559.5ZM80.5 560V520H79.5V560H80.5ZM80 680.5H120V679.5H80V680.5ZM119.5 680V720H120.5V680H119.5ZM120 719.5H80V720.5H120V719.5ZM80.5 720V680H79.5V720H80.5ZM720 520.5H760V519.5H720V520.5ZM759.5 520V560H760.5V520H759.5ZM760 559.5H720V560.5H760V559.5ZM720.5 560V520H719.5V560H720.5ZM720 680.5H760V679.5H720V680.5ZM759.5 680V720H760.5V680H759.5ZM760 719.5H720V720.5H760V719.5ZM720.5 720V680H719.5V720H720.5ZM400 520.5H440V519.5H400V520.5ZM439.5 520V560H440.5V520H439.5ZM440 559.5H400V560.5H440V559.5ZM400.5 560V520H399.5V560H400.5ZM400 680.5H440V679.5H400V680.5ZM439.5 680V720H440.5V680H439.5ZM440 719.5H400V720.5H440V719.5ZM400.5 720V680H399.5V720H400.5ZM1040 520.5H1080V519.5H1040V520.5ZM1079.5 520V560H1080.5V520H1079.5ZM1080 559.5H1040V560.5H1080V559.5ZM1040.5 560V520H1039.5V560H1040.5ZM1040 680.5H1080V679.5H1040V680.5ZM1079.5 680V720H1080.5V680H1079.5ZM1080 719.5H1040V720.5H1080V719.5ZM1040.5 720V680H1039.5V720H1040.5ZM240 40.5H280V39.5H240V40.5ZM279.5 40V80H280.5V40H279.5ZM280 79.5H240V80.5H280V79.5ZM240.5 80V40H239.5V80H240.5ZM880 40.5H920V39.5H880V40.5ZM919.5 40V80H920.5V40H919.5ZM920 79.5H880V80.5H920V79.5ZM880.5 80V40H879.5V80H880.5ZM560 40.5H600V39.5H560V40.5ZM599.5 40V80H600.5V40H599.5ZM600 79.5H560V80.5H600V79.5ZM560.5 80V40H559.5V80H560.5ZM1200 40.5H1240V39.5H1200V40.5ZM1239.5 40V80H1240.5V40H1239.5ZM1240 79.5H1200V80.5H1240V79.5ZM1200.5 80V40H1199.5V80H1200.5ZM1320 40.5H1360V39.5H1320V40.5ZM1359.5 40V80H1360.5V40H1359.5ZM1360 79.5H1320V80.5H1360V79.5ZM1320.5 80V40H1319.5V80H1320.5ZM240 360.5H280V359.5H240V360.5ZM279.5 360V400H280.5V360H279.5ZM280 399.5H240V400.5H280V399.5ZM240.5 400V360H239.5V400H240.5ZM880 360.5H920V359.5H880V360.5ZM919.5 360V400H920.5V360H919.5ZM920 399.5H880V400.5H920V399.5ZM880.5 400V360H879.5V400H880.5ZM560 360.5H600V359.5H560V360.5ZM599.5 360V400H600.5V360H599.5ZM600 399.5H560V400.5H600V399.5ZM560.5 400V360H559.5V400H560.5ZM1200 360.5H1240V359.5H1200V360.5ZM1239.5 360V400H1240.5V360H1239.5ZM1240 399.5H1200V400.5H1240V399.5ZM1200.5 400V360H1199.5V400H1200.5ZM1320 360.5H1360V359.5H1320V360.5ZM1359.5 360V400H1360.5V360H1359.5ZM1360 399.5H1320V400.5H1360V399.5ZM1320.5 400V360H1319.5V400H1320.5ZM240 200.5H280V199.5H240V200.5ZM279.5 200V240H280.5V200H279.5ZM280 239.5H240V240.5H280V239.5ZM240.5 240V200H239.5V240H240.5ZM880 200.5H920V199.5H880V200.5ZM919.5 200V240H920.5V200H919.5ZM920 239.5H880V240.5H920V239.5ZM880.5 240V200H879.5V240H880.5ZM560 200.5H600V199.5H560V200.5ZM599.5 200V240H600.5V200H599.5ZM600 239.5H560V240.5H600V239.5ZM560.5 240V200H559.5V240H560.5ZM1200 200.5H1240V199.5H1200V200.5ZM1239.5 200V240H1240.5V200H1239.5ZM1240 239.5H1200V240.5H1240V239.5ZM1200.5 240V200H1199.5V240H1200.5ZM1320 200.5H1360V199.5H1320V200.5ZM1359.5 200V240H1360.5V200H1359.5ZM1360 239.5H1320V240.5H1360V239.5ZM1320.5 240V200H1319.5V240H1320.5ZM240 520.5H280V519.5H240V520.5ZM279.5 520V560H280.5V520H279.5ZM280 559.5H240V560.5H280V559.5ZM240.5 560V520H239.5V560H240.5ZM240 680.5H280V679.5H240V680.5ZM279.5 680V720H280.5V680H279.5ZM280 719.5H240V720.5H280V719.5ZM240.5 720V680H239.5V720H240.5ZM880 520.5H920V519.5H880V520.5ZM919.5 520V560H920.5V520H919.5ZM920 559.5H880V560.5H920V559.5ZM880.5 560V520H879.5V560H880.5ZM880 680.5H920V679.5H880V680.5ZM919.5 680V720H920.5V680H919.5ZM920 719.5H880V720.5H920V719.5ZM880.5 720V680H879.5V720H880.5ZM560 520.5H600V519.5H560V520.5ZM599.5 520V560H600.5V520H599.5ZM600 559.5H560V560.5H600V559.5ZM560.5 560V520H559.5V560H560.5ZM560 680.5H600V679.5H560V680.5ZM599.5 680V720H600.5V680H599.5ZM600 719.5H560V720.5H600V719.5ZM560.5 720V680H559.5V720H560.5ZM1200 520.5H1240V519.5H1200V520.5ZM1239.5 520V560H1240.5V520H1239.5ZM1240 559.5H1200V560.5H1240V559.5ZM1200.5 560V520H1199.5V560H1200.5ZM1200 680.5H1240V679.5H1200V680.5ZM1239.5 680V720H1240.5V680H1239.5ZM1240 719.5H1200V720.5H1240V719.5ZM1200.5 720V680H1199.5V720H1200.5ZM1320 520.5H1360V519.5H1320V520.5ZM1359.5 520V560H1360.5V520H1359.5ZM1360 559.5H1320V560.5H1360V559.5ZM1320.5 560V520H1319.5V560H1320.5ZM1320 680.5H1360V679.5H1320V680.5ZM1359.5 680V720H1360.5V680H1359.5ZM1360 719.5H1320V720.5H1360V719.5ZM1320.5 720V680H1319.5V720H1320.5ZM119.5 80V120H120.5V80H119.5ZM80.5 120V80H79.5V120H80.5ZM759.5 80V120H760.5V80H759.5ZM720.5 120V80H719.5V120H720.5ZM439.5 80V120H440.5V80H439.5ZM400.5 120V80H399.5V120H400.5ZM1079.5 80V120H1080.5V80H1079.5ZM1040.5 120V80H1039.5V120H1040.5ZM119.5 400V440H120.5V400H119.5ZM80.5 440V400H79.5V440H80.5ZM759.5 400V440H760.5V400H759.5ZM720.5 440V400H719.5V440H720.5ZM439.5 400V440H440.5V400H439.5ZM400.5 440V400H399.5V440H400.5ZM1079.5 400V440H1080.5V400H1079.5ZM1040.5 440V400H1039.5V440H1040.5ZM119.5 240V280H120.5V240H119.5ZM80.5 280V240H79.5V280H80.5ZM759.5 240V280H760.5V240H759.5ZM720.5 280V240H719.5V280H720.5ZM439.5 240V280H440.5V240H439.5ZM400.5 280V240H399.5V280H400.5ZM1079.5 240V280H1080.5V240H1079.5ZM1040.5 280V240H1039.5V280H1040.5ZM119.5 560V600H120.5V560H119.5ZM80.5 600V560H79.5V600H80.5ZM119.5 720V760H120.5V720H119.5ZM80.5 760V720H79.5V760H80.5ZM759.5 560V600H760.5V560H759.5ZM720.5 600V560H719.5V600H720.5ZM759.5 720V760H760.5V720H759.5ZM720.5 760V720H719.5V760H720.5ZM439.5 560V600H440.5V560H439.5ZM400.5 600V560H399.5V600H400.5ZM439.5 720V760H440.5V720H439.5ZM400.5 760V720H399.5V760H400.5ZM1079.5 560V600H1080.5V560H1079.5ZM1040.5 600V560H1039.5V600H1040.5ZM1079.5 720V760H1080.5V720H1079.5ZM1040.5 760V720H1039.5V760H1040.5ZM279.5 80V120H280.5V80H279.5ZM240.5 120V80H239.5V120H240.5ZM919.5 80V120H920.5V80H919.5ZM880.5 120V80H879.5V120H880.5ZM599.5 80V120H600.5V80H599.5ZM560.5 120V80H559.5V120H560.5ZM1239.5 80V120H1240.5V80H1239.5ZM1200.5 120V80H1199.5V120H1200.5ZM1359.5 80V120H1360.5V80H1359.5ZM1320.5 120V80H1319.5V120H1320.5ZM279.5 400V440H280.5V400H279.5ZM240.5 440V400H239.5V440H240.5ZM919.5 400V440H920.5V400H919.5ZM880.5 440V400H879.5V440H880.5ZM599.5 400V440H600.5V400H599.5ZM560.5 440V400H559.5V440H560.5ZM1239.5 400V440H1240.5V400H1239.5ZM1200.5 440V400H1199.5V440H1200.5ZM1359.5 400V440H1360.5V400H1359.5ZM1320.5 440V400H1319.5V440H1320.5ZM279.5 240V280H280.5V240H279.5ZM240.5 280V240H239.5V280H240.5ZM919.5 240V280H920.5V240H919.5ZM880.5 280V240H879.5V280H880.5ZM599.5 240V280H600.5V240H599.5ZM560.5 280V240H559.5V280H560.5ZM1239.5 240V280H1240.5V240H1239.5ZM1200.5 280V240H1199.5V280H1200.5ZM1359.5 240V280H1360.5V240H1359.5ZM1320.5 280V240H1319.5V280H1320.5ZM279.5 560V600H280.5V560H279.5ZM240.5 600V560H239.5V600H240.5ZM279.5 720V760H280.5V720H279.5ZM240.5 760V720H239.5V760H240.5ZM919.5 560V600H920.5V560H919.5ZM880.5 600V560H879.5V600H880.5ZM919.5 720V760H920.5V720H919.5ZM880.5 760V720H879.5V760H880.5ZM599.5 560V600H600.5V560H599.5ZM560.5 600V560H559.5V600H560.5ZM599.5 720V760H600.5V720H599.5ZM560.5 760V720H559.5V760H560.5ZM1239.5 560V600H1240.5V560H1239.5ZM1200.5 600V560H1199.5V600H1200.5ZM1239.5 720V760H1240.5V720H1239.5ZM1200.5 760V720H1199.5V760H1200.5ZM1359.5 560V600H1360.5V560H1359.5ZM1320.5 600V560H1319.5V600H1320.5ZM1359.5 720V760H1360.5V720H1359.5ZM1320.5 760V720H1319.5V760H1320.5ZM39.5 80V120H40.5V80H39.5ZM679.5 80V120H680.5V80H679.5ZM640.5 120V80H639.5V120H640.5ZM359.5 80V120H360.5V80H359.5ZM320.5 120V80H319.5V120H320.5ZM999.5 80V120H1000.5V80H999.5ZM960.5 120V80H959.5V120H960.5ZM39.5 400V440H40.5V400H39.5ZM679.5 400V440H680.5V400H679.5ZM640.5 440V400H639.5V440H640.5ZM359.5 400V440H360.5V400H359.5ZM320.5 440V400H319.5V440H320.5ZM999.5 400V440H1000.5V400H999.5ZM960.5 440V400H959.5V440H960.5ZM39.5 240V280H40.5V240H39.5ZM679.5 240V280H680.5V240H679.5ZM640.5 280V240H639.5V280H640.5ZM359.5 240V280H360.5V240H359.5ZM320.5 280V240H319.5V280H320.5ZM999.5 240V280H1000.5V240H999.5ZM960.5 280V240H959.5V280H960.5ZM39.5 560V600H40.5V560H39.5ZM39.5 720V760H40.5V720H39.5ZM679.5 560V600H680.5V560H679.5ZM640.5 600V560H639.5V600H640.5ZM679.5 720V760H680.5V720H679.5ZM640.5 760V720H639.5V760H640.5ZM359.5 560V600H360.5V560H359.5ZM320.5 600V560H319.5V600H320.5ZM359.5 720V760H360.5V720H359.5ZM320.5 760V720H319.5V760H320.5ZM999.5 560V600H1000.5V560H999.5ZM960.5 600V560H959.5V600H960.5ZM999.5 720V760H1000.5V720H999.5ZM960.5 760V720H959.5V760H960.5ZM199.5 80V120H200.5V80H199.5ZM160.5 120V80H159.5V120H160.5ZM839.5 80V120H840.5V80H839.5ZM800.5 120V80H799.5V120H800.5ZM519.5 80V120H520.5V80H519.5ZM480.5 120V80H479.5V120H480.5ZM1159.5 80V120H1160.5V80H1159.5ZM1120.5 120V80H1119.5V120H1120.5ZM199.5 400V440H200.5V400H199.5ZM160.5 440V400H159.5V440H160.5ZM839.5 400V440H840.5V400H839.5ZM800.5 440V400H799.5V440H800.5ZM519.5 400V440H520.5V400H519.5ZM480.5 440V400H479.5V440H480.5ZM1159.5 400V440H1160.5V400H1159.5ZM1120.5 440V400H1119.5V440H1120.5ZM199.5 240V280H200.5V240H199.5ZM160.5 280V240H159.5V280H160.5ZM839.5 240V280H840.5V240H839.5ZM800.5 280V240H799.5V280H800.5ZM519.5 240V280H520.5V240H519.5ZM480.5 280V240H479.5V280H480.5ZM1159.5 240V280H1160.5V240H1159.5ZM1120.5 280V240H1119.5V280H1120.5ZM199.5 560V600H200.5V560H199.5ZM160.5 600V560H159.5V600H160.5ZM199.5 720V760H200.5V720H199.5ZM160.5 760V720H159.5V760H160.5ZM839.5 560V600H840.5V560H839.5ZM800.5 600V560H799.5V600H800.5ZM839.5 720V760H840.5V720H839.5ZM800.5 760V720H799.5V760H800.5ZM519.5 560V600H520.5V560H519.5ZM480.5 600V560H479.5V600H480.5ZM519.5 720V760H520.5V720H519.5ZM480.5 760V720H479.5V760H480.5ZM1159.5 560V600H1160.5V560H1159.5ZM1120.5 600V560H1119.5V600H1120.5ZM1159.5 720V760H1160.5V720H1159.5ZM1120.5 760V720H1119.5V760H1120.5ZM39.5 0V40H40.5V0H39.5ZM679.5 0V40H680.5V0H679.5ZM640.5 40V0H639.5V40H640.5ZM359.5 0V40H360.5V0H359.5ZM320.5 40V0H319.5V40H320.5ZM999.5 0V40H1000.5V0H999.5ZM960.5 40V0H959.5V40H960.5ZM39.5 320V360H40.5V320H39.5ZM679.5 320V360H680.5V320H679.5ZM640.5 360V320H639.5V360H640.5ZM359.5 320V360H360.5V320H359.5ZM320.5 360V320H319.5V360H320.5ZM999.5 320V360H1000.5V320H999.5ZM960.5 360V320H959.5V360H960.5ZM39.5 160V200H40.5V160H39.5ZM679.5 160V200H680.5V160H679.5ZM640.5 200V160H639.5V200H640.5ZM359.5 160V200H360.5V160H359.5ZM320.5 200V160H319.5V200H320.5ZM999.5 160V200H1000.5V160H999.5ZM960.5 200V160H959.5V200H960.5ZM39.5 480V520H40.5V480H39.5ZM39.5 640V680H40.5V640H39.5ZM679.5 480V520H680.5V480H679.5ZM640.5 520V480H639.5V520H640.5ZM679.5 640V680H680.5V640H679.5ZM640.5 680V640H639.5V680H640.5ZM359.5 480V520H360.5V480H359.5ZM320.5 520V480H319.5V520H320.5ZM359.5 640V680H360.5V640H359.5ZM320.5 680V640H319.5V680H320.5ZM999.5 480V520H1000.5V480H999.5ZM960.5 520V480H959.5V520H960.5ZM999.5 640V680H1000.5V640H999.5ZM960.5 680V640H959.5V680H960.5ZM199.5 0V40H200.5V0H199.5ZM160.5 40V0H159.5V40H160.5ZM839.5 0V40H840.5V0H839.5ZM800.5 40V0H799.5V40H800.5ZM519.5 0V40H520.5V0H519.5ZM480.5 40V0H479.5V40H480.5ZM1159.5 0V40H1160.5V0H1159.5ZM1120.5 40V0H1119.5V40H1120.5ZM199.5 320V360H200.5V320H199.5ZM160.5 360V320H159.5V360H160.5ZM839.5 320V360H840.5V320H839.5ZM800.5 360V320H799.5V360H800.5ZM519.5 320V360H520.5V320H519.5ZM480.5 360V320H479.5V360H480.5ZM1159.5 320V360H1160.5V320H1159.5ZM1120.5 360V320H1119.5V360H1120.5ZM199.5 160V200H200.5V160H199.5ZM160.5 200V160H159.5V200H160.5ZM839.5 160V200H840.5V160H839.5ZM800.5 200V160H799.5V200H800.5ZM519.5 160V200H520.5V160H519.5ZM480.5 200V160H479.5V200H480.5ZM1159.5 160V200H1160.5V160H1159.5ZM1120.5 200V160H1119.5V200H1120.5ZM199.5 480V520H200.5V480H199.5ZM160.5 520V480H159.5V520H160.5ZM199.5 640V680H200.5V640H199.5ZM160.5 680V640H159.5V680H160.5ZM839.5 480V520H840.5V480H839.5ZM800.5 520V480H799.5V520H800.5ZM839.5 640V680H840.5V640H839.5ZM800.5 680V640H799.5V680H800.5ZM519.5 480V520H520.5V480H519.5ZM480.5 520V480H479.5V520H480.5ZM519.5 640V680H520.5V640H519.5ZM480.5 680V640H479.5V680H480.5ZM1159.5 480V520H1160.5V480H1159.5ZM1120.5 520V480H1119.5V520H1120.5ZM1159.5 640V680H1160.5V640H1159.5ZM1120.5 680V640H1119.5V680H1120.5ZM119.5 0V40H120.5V0H119.5ZM80.5 40V0H79.5V40H80.5ZM759.5 0V40H760.5V0H759.5ZM720.5 40V0H719.5V40H720.5ZM439.5 0V40H440.5V0H439.5ZM400.5 40V0H399.5V40H400.5ZM1079.5 0V40H1080.5V0H1079.5ZM1040.5 40V0H1039.5V40H1040.5ZM119.5 320V360H120.5V320H119.5ZM80.5 360V320H79.5V360H80.5ZM759.5 320V360H760.5V320H759.5ZM720.5 360V320H719.5V360H720.5ZM439.5 320V360H440.5V320H439.5ZM400.5 360V320H399.5V360H400.5ZM1079.5 320V360H1080.5V320H1079.5ZM1040.5 360V320H1039.5V360H1040.5ZM119.5 160V200H120.5V160H119.5ZM80.5 200V160H79.5V200H80.5ZM759.5 160V200H760.5V160H759.5ZM720.5 200V160H719.5V200H720.5ZM439.5 160V200H440.5V160H439.5ZM400.5 200V160H399.5V200H400.5ZM1079.5 160V200H1080.5V160H1079.5ZM1040.5 200V160H1039.5V200H1040.5ZM119.5 480V520H120.5V480H119.5ZM80.5 520V480H79.5V520H80.5ZM119.5 640V680H120.5V640H119.5ZM80.5 680V640H79.5V680H80.5ZM759.5 480V520H760.5V480H759.5ZM720.5 520V480H719.5V520H720.5ZM759.5 640V680H760.5V640H759.5ZM720.5 680V640H719.5V680H720.5ZM439.5 480V520H440.5V480H439.5ZM400.5 520V480H399.5V520H400.5ZM439.5 640V680H440.5V640H439.5ZM400.5 680V640H399.5V680H400.5ZM1079.5 480V520H1080.5V480H1079.5ZM1040.5 520V480H1039.5V520H1040.5ZM1079.5 640V680H1080.5V640H1079.5ZM1040.5 680V640H1039.5V680H1040.5ZM279.5 0V40H280.5V0H279.5ZM240.5 40V0H239.5V40H240.5ZM919.5 0V40H920.5V0H919.5ZM880.5 40V0H879.5V40H880.5ZM599.5 0V40H600.5V0H599.5ZM560.5 40V0H559.5V40H560.5ZM1239.5 0V40H1240.5V0H1239.5ZM1200.5 40V0H1199.5V40H1200.5ZM1359.5 0V40H1360.5V0H1359.5ZM1320.5 40V0H1319.5V40H1320.5ZM279.5 320V360H280.5V320H279.5ZM240.5 360V320H239.5V360H240.5ZM919.5 320V360H920.5V320H919.5ZM880.5 360V320H879.5V360H880.5ZM599.5 320V360H600.5V320H599.5ZM560.5 360V320H559.5V360H560.5ZM1239.5 320V360H1240.5V320H1239.5ZM1200.5 360V320H1199.5V360H1200.5ZM1359.5 320V360H1360.5V320H1359.5ZM1320.5 360V320H1319.5V360H1320.5ZM279.5 160V200H280.5V160H279.5ZM240.5 200V160H239.5V200H240.5ZM919.5 160V200H920.5V160H919.5ZM880.5 200V160H879.5V200H880.5ZM599.5 160V200H600.5V160H599.5ZM560.5 200V160H559.5V200H560.5ZM1239.5 160V200H1240.5V160H1239.5ZM1200.5 200V160H1199.5V200H1200.5ZM1359.5 160V200H1360.5V160H1359.5ZM1320.5 200V160H1319.5V200H1320.5ZM279.5 480V520H280.5V480H279.5ZM240.5 520V480H239.5V520H240.5ZM279.5 640V680H280.5V640H279.5ZM240.5 680V640H239.5V680H240.5ZM919.5 480V520H920.5V480H919.5ZM880.5 520V480H879.5V520H880.5ZM919.5 640V680H920.5V640H919.5ZM880.5 680V640H879.5V680H880.5ZM599.5 480V520H600.5V480H599.5ZM560.5 520V480H559.5V520H560.5ZM599.5 640V680H600.5V640H599.5ZM560.5 680V640H559.5V680H560.5ZM1239.5 480V520H1240.5V480H1239.5ZM1200.5 520V480H1199.5V520H1200.5ZM1239.5 640V680H1240.5V640H1239.5ZM1200.5 680V640H1199.5V680H1200.5ZM1359.5 480V520H1360.5V480H1359.5ZM1320.5 520V480H1319.5V520H1320.5ZM1359.5 640V680H1360.5V640H1359.5ZM1320.5 680V640H1319.5V680H1320.5ZM120 120.5H160V119.5H120V120.5ZM160 159.5H120V160.5H160V159.5ZM760 120.5H800V119.5H760V120.5ZM800 159.5H760V160.5H800V159.5ZM440 120.5H480V119.5H440V120.5ZM480 159.5H440V160.5H480V159.5ZM1080 120.5H1120V119.5H1080V120.5ZM1120 159.5H1080V160.5H1120V159.5ZM120 440.5H160V439.5H120V440.5ZM160 479.5H120V480.5H160V479.5ZM760 440.5H800V439.5H760V440.5ZM800 479.5H760V480.5H800V479.5ZM440 440.5H480V439.5H440V440.5ZM480 479.5H440V480.5H480V479.5ZM1080 440.5H1120V439.5H1080V440.5ZM1120 479.5H1080V480.5H1120V479.5ZM120 280.5H160V279.5H120V280.5ZM160 319.5H120V320.5H160V319.5ZM760 280.5H800V279.5H760V280.5ZM800 319.5H760V320.5H800V319.5ZM440 280.5H480V279.5H440V280.5ZM480 319.5H440V320.5H480V319.5ZM1080 280.5H1120V279.5H1080V280.5ZM1120 319.5H1080V320.5H1120V319.5ZM120 600.5H160V599.5H120V600.5ZM160 639.5H120V640.5H160V639.5ZM120 760.5H160V759.5H120V760.5ZM760 600.5H800V599.5H760V600.5ZM800 639.5H760V640.5H800V639.5ZM760 760.5H800V759.5H760V760.5ZM440 600.5H480V599.5H440V600.5ZM480 639.5H440V640.5H480V639.5ZM440 760.5H480V759.5H440V760.5ZM1080 600.5H1120V599.5H1080V600.5ZM1120 639.5H1080V640.5H1120V639.5ZM1080 760.5H1120V759.5H1080V760.5ZM280 120.5H320V119.5H280V120.5ZM320 159.5H280V160.5H320V159.5ZM920 120.5H960V119.5H920V120.5ZM960 159.5H920V160.5H960V159.5ZM600 120.5H640V119.5H600V120.5ZM640 159.5H600V160.5H640V159.5ZM1240 120.5H1280V119.5H1240V120.5ZM1279.5 120V160H1280.5V120H1279.5ZM1280 159.5H1240V160.5H1280V159.5ZM1360 120.5H1400V119.5H1360V120.5ZM1399.5 120V160H1400.5V120H1399.5ZM1400 159.5H1360V160.5H1400V159.5ZM1400 120.5H1440V119.5H1400V120.5ZM1440 159.5H1400V160.5H1440V159.5ZM280 440.5H320V439.5H280V440.5ZM320 479.5H280V480.5H320V479.5ZM920 440.5H960V439.5H920V440.5ZM960 479.5H920V480.5H960V479.5ZM600 440.5H640V439.5H600V440.5ZM640 479.5H600V480.5H640V479.5ZM1240 440.5H1280V439.5H1240V440.5ZM1279.5 440V480H1280.5V440H1279.5ZM1280 479.5H1240V480.5H1280V479.5ZM1360 440.5H1400V439.5H1360V440.5ZM1399.5 440V480H1400.5V440H1399.5ZM1400 479.5H1360V480.5H1400V479.5ZM1400 440.5H1440V439.5H1400V440.5ZM1440 479.5H1400V480.5H1440V479.5ZM280 280.5H320V279.5H280V280.5ZM320 319.5H280V320.5H320V319.5ZM920 280.5H960V279.5H920V280.5ZM960 319.5H920V320.5H960V319.5ZM600 280.5H640V279.5H600V280.5ZM640 319.5H600V320.5H640V319.5ZM1240 280.5H1280V279.5H1240V280.5ZM1279.5 280V320H1280.5V280H1279.5ZM1280 319.5H1240V320.5H1280V319.5ZM1360 280.5H1400V279.5H1360V280.5ZM1399.5 280V320H1400.5V280H1399.5ZM1400 319.5H1360V320.5H1400V319.5ZM1400 280.5H1440V279.5H1400V280.5ZM1440 319.5H1400V320.5H1440V319.5ZM280 600.5H320V599.5H280V600.5ZM320 639.5H280V640.5H320V639.5ZM280 760.5H320V759.5H280V760.5ZM920 600.5H960V599.5H920V600.5ZM960 639.5H920V640.5H960V639.5ZM920 760.5H960V759.5H920V760.5ZM600 600.5H640V599.5H600V600.5ZM640 639.5H600V640.5H640V639.5ZM600 760.5H640V759.5H600V760.5ZM1240 600.5H1280V599.5H1240V600.5ZM1279.5 600V640H1280.5V600H1279.5ZM1280 639.5H1240V640.5H1280V639.5ZM1240 760.5H1280V759.5H1240V760.5ZM1279.5 760V800H1280.5V760H1279.5ZM1360 600.5H1400V599.5H1360V600.5ZM1399.5 600V640H1400.5V600H1399.5ZM1400 639.5H1360V640.5H1400V639.5ZM1360 760.5H1400V759.5H1360V760.5ZM1399.5 760V800H1400.5V760H1399.5ZM1400 600.5H1440V599.5H1400V600.5ZM1440 639.5H1400V640.5H1440V639.5ZM1400 760.5H1440V759.5H1400V760.5ZM40 120.5H80V119.5H40V120.5ZM80 159.5H40V160.5H80V159.5ZM680 120.5H720V119.5H680V120.5ZM720 159.5H680V160.5H720V159.5ZM360 120.5H400V119.5H360V120.5ZM400 159.5H360V160.5H400V159.5ZM1000 120.5H1040V119.5H1000V120.5ZM1040 159.5H1000V160.5H1040V159.5ZM40 440.5H80V439.5H40V440.5ZM80 479.5H40V480.5H80V479.5ZM680 440.5H720V439.5H680V440.5ZM720 479.5H680V480.5H720V479.5ZM360 440.5H400V439.5H360V440.5ZM400 479.5H360V480.5H400V479.5ZM1000 440.5H1040V439.5H1000V440.5ZM1040 479.5H1000V480.5H1040V479.5ZM40 280.5H80V279.5H40V280.5ZM80 319.5H40V320.5H80V319.5ZM680 280.5H720V279.5H680V280.5ZM720 319.5H680V320.5H720V319.5ZM360 280.5H400V279.5H360V280.5ZM400 319.5H360V320.5H400V319.5ZM1000 280.5H1040V279.5H1000V280.5ZM1040 319.5H1000V320.5H1040V319.5ZM40 600.5H80V599.5H40V600.5ZM80 639.5H40V640.5H80V639.5ZM40 760.5H80V759.5H40V760.5ZM680 600.5H720V599.5H680V600.5ZM720 639.5H680V640.5H720V639.5ZM680 760.5H720V759.5H680V760.5ZM360 600.5H400V599.5H360V600.5ZM400 639.5H360V640.5H400V639.5ZM360 760.5H400V759.5H360V760.5ZM1000 600.5H1040V599.5H1000V600.5ZM1040 639.5H1000V640.5H1040V639.5ZM1000 760.5H1040V759.5H1000V760.5ZM200 120.5H240V119.5H200V120.5ZM240 159.5H200V160.5H240V159.5ZM840 120.5H880V119.5H840V120.5ZM880 159.5H840V160.5H880V159.5ZM520 120.5H560V119.5H520V120.5ZM560 159.5H520V160.5H560V159.5ZM1160 120.5H1200V119.5H1160V120.5ZM1200 159.5H1160V160.5H1200V159.5ZM1280 120.5H1320V119.5H1280V120.5ZM1320 159.5H1280V160.5H1320V159.5ZM200 440.5H240V439.5H200V440.5ZM240 479.5H200V480.5H240V479.5ZM840 440.5H880V439.5H840V440.5ZM880 479.5H840V480.5H880V479.5ZM520 440.5H560V439.5H520V440.5ZM560 479.5H520V480.5H560V479.5ZM1160 440.5H1200V439.5H1160V440.5ZM1200 479.5H1160V480.5H1200V479.5ZM1280 440.5H1320V439.5H1280V440.5ZM1320 479.5H1280V480.5H1320V479.5ZM200 280.5H240V279.5H200V280.5ZM240 319.5H200V320.5H240V319.5ZM840 280.5H880V279.5H840V280.5ZM880 319.5H840V320.5H880V319.5ZM520 280.5H560V279.5H520V280.5ZM560 319.5H520V320.5H560V319.5ZM1160 280.5H1200V279.5H1160V280.5ZM1200 319.5H1160V320.5H1200V319.5ZM1280 280.5H1320V279.5H1280V280.5ZM1320 319.5H1280V320.5H1320V319.5ZM200 600.5H240V599.5H200V600.5ZM240 639.5H200V640.5H240V639.5ZM200 760.5H240V759.5H200V760.5ZM840 600.5H880V599.5H840V600.5ZM880 639.5H840V640.5H880V639.5ZM840 760.5H880V759.5H840V760.5ZM520 600.5H560V599.5H520V600.5ZM560 639.5H520V640.5H560V639.5ZM520 760.5H560V759.5H520V760.5ZM1160 600.5H1200V599.5H1160V600.5ZM1200 639.5H1160V640.5H1200V639.5ZM1160 760.5H1200V759.5H1160V760.5ZM1280 600.5H1320V599.5H1280V600.5ZM1320 639.5H1280V640.5H1320V639.5ZM1280 760.5H1320V759.5H1280V760.5ZM40 40.5H80V39.5H40V40.5ZM80 79.5H40V80.5H80V79.5ZM680 40.5H720V39.5H680V40.5ZM720 79.5H680V80.5H720V79.5ZM360 40.5H400V39.5H360V40.5ZM400 79.5H360V80.5H400V79.5ZM1000 40.5H1040V39.5H1000V40.5ZM1040 79.5H1000V80.5H1040V79.5ZM40 360.5H80V359.5H40V360.5ZM80 399.5H40V400.5H80V399.5ZM680 360.5H720V359.5H680V360.5ZM720 399.5H680V400.5H720V399.5ZM360 360.5H400V359.5H360V360.5ZM400 399.5H360V400.5H400V399.5ZM1000 360.5H1040V359.5H1000V360.5ZM1040 399.5H1000V400.5H1040V399.5ZM40 200.5H80V199.5H40V200.5ZM80 239.5H40V240.5H80V239.5ZM680 200.5H720V199.5H680V200.5ZM720 239.5H680V240.5H720V239.5ZM360 200.5H400V199.5H360V200.5ZM400 239.5H360V240.5H400V239.5ZM1000 200.5H1040V199.5H1000V200.5ZM1040 239.5H1000V240.5H1040V239.5ZM40 520.5H80V519.5H40V520.5ZM80 559.5H40V560.5H80V559.5ZM40 680.5H80V679.5H40V680.5ZM80 719.5H40V720.5H80V719.5ZM680 520.5H720V519.5H680V520.5ZM720 559.5H680V560.5H720V559.5ZM680 680.5H720V679.5H680V680.5ZM720 719.5H680V720.5H720V719.5ZM360 520.5H400V519.5H360V520.5ZM400 559.5H360V560.5H400V559.5ZM360 680.5H400V679.5H360V680.5ZM400 719.5H360V720.5H400V719.5ZM1000 520.5H1040V519.5H1000V520.5ZM1040 559.5H1000V560.5H1040V559.5ZM1000 680.5H1040V679.5H1000V680.5ZM1040 719.5H1000V720.5H1040V719.5ZM200 40.5H240V39.5H200V40.5ZM240 79.5H200V80.5H240V79.5ZM840 40.5H880V39.5H840V40.5ZM880 79.5H840V80.5H880V79.5ZM520 40.5H560V39.5H520V40.5ZM560 79.5H520V80.5H560V79.5ZM1160 40.5H1200V39.5H1160V40.5ZM1200 79.5H1160V80.5H1200V79.5ZM1280 40.5H1320V39.5H1280V40.5ZM1320 79.5H1280V80.5H1320V79.5ZM1280.5 80V40H1279.5V80H1280.5ZM200 360.5H240V359.5H200V360.5ZM240 399.5H200V400.5H240V399.5ZM840 360.5H880V359.5H840V360.5ZM880 399.5H840V400.5H880V399.5ZM520 360.5H560V359.5H520V360.5ZM560 399.5H520V400.5H560V399.5ZM1160 360.5H1200V359.5H1160V360.5ZM1200 399.5H1160V400.5H1200V399.5ZM1280 360.5H1320V359.5H1280V360.5ZM1320 399.5H1280V400.5H1320V399.5ZM1280.5 400V360H1279.5V400H1280.5ZM200 200.5H240V199.5H200V200.5ZM240 239.5H200V240.5H240V239.5ZM840 200.5H880V199.5H840V200.5ZM880 239.5H840V240.5H880V239.5ZM520 200.5H560V199.5H520V200.5ZM560 239.5H520V240.5H560V239.5ZM1160 200.5H1200V199.5H1160V200.5ZM1200 239.5H1160V240.5H1200V239.5ZM1280 200.5H1320V199.5H1280V200.5ZM1320 239.5H1280V240.5H1320V239.5ZM1280.5 240V200H1279.5V240H1280.5ZM200 520.5H240V519.5H200V520.5ZM240 559.5H200V560.5H240V559.5ZM200 680.5H240V679.5H200V680.5ZM240 719.5H200V720.5H240V719.5ZM840 520.5H880V519.5H840V520.5ZM880 559.5H840V560.5H880V559.5ZM840 680.5H880V679.5H840V680.5ZM880 719.5H840V720.5H880V719.5ZM520 520.5H560V519.5H520V520.5ZM560 559.5H520V560.5H560V559.5ZM520 680.5H560V679.5H520V680.5ZM560 719.5H520V720.5H560V719.5ZM1160 520.5H1200V519.5H1160V520.5ZM1200 559.5H1160V560.5H1200V559.5ZM1160 680.5H1200V679.5H1160V680.5ZM1200 719.5H1160V720.5H1200V719.5ZM1280 520.5H1320V519.5H1280V520.5ZM1320 559.5H1280V560.5H1320V559.5ZM1280.5 560V520H1279.5V560H1280.5ZM1280 680.5H1320V679.5H1280V680.5ZM1320 719.5H1280V720.5H1320V719.5ZM1280.5 720V680H1279.5V720H1280.5ZM120 40.5H160V39.5H120V40.5ZM160 79.5H120V80.5H160V79.5ZM760 40.5H800V39.5H760V40.5ZM800 79.5H760V80.5H800V79.5ZM440 40.5H480V39.5H440V40.5ZM480 79.5H440V80.5H480V79.5ZM1080 40.5H1120V39.5H1080V40.5ZM1120 79.5H1080V80.5H1120V79.5ZM120 360.5H160V359.5H120V360.5ZM160 399.5H120V400.5H160V399.5ZM760 360.5H800V359.5H760V360.5ZM800 399.5H760V400.5H800V399.5ZM440 360.5H480V359.5H440V360.5ZM480 399.5H440V400.5H480V399.5ZM1080 360.5H1120V359.5H1080V360.5ZM1120 399.5H1080V400.5H1120V399.5ZM120 200.5H160V199.5H120V200.5ZM160 239.5H120V240.5H160V239.5ZM760 200.5H800V199.5H760V200.5ZM800 239.5H760V240.5H800V239.5ZM440 200.5H480V199.5H440V200.5ZM480 239.5H440V240.5H480V239.5ZM1080 200.5H1120V199.5H1080V200.5ZM1120 239.5H1080V240.5H1120V239.5ZM120 520.5H160V519.5H120V520.5ZM160 559.5H120V560.5H160V559.5ZM120 680.5H160V679.5H120V680.5ZM160 719.5H120V720.5H160V719.5ZM760 520.5H800V519.5H760V520.5ZM800 559.5H760V560.5H800V559.5ZM760 680.5H800V679.5H760V680.5ZM800 719.5H760V720.5H800V719.5ZM440 520.5H480V519.5H440V520.5ZM480 559.5H440V560.5H480V559.5ZM440 680.5H480V679.5H440V680.5ZM480 719.5H440V720.5H480V719.5ZM1080 520.5H1120V519.5H1080V520.5ZM1120 559.5H1080V560.5H1120V559.5ZM1080 680.5H1120V679.5H1080V680.5ZM1120 719.5H1080V720.5H1120V719.5ZM280 40.5H320V39.5H280V40.5ZM320 79.5H280V80.5H320V79.5ZM920 40.5H960V39.5H920V40.5ZM960 79.5H920V80.5H960V79.5ZM600 40.5H640V39.5H600V40.5ZM640 79.5H600V80.5H640V79.5ZM1240 40.5H1280V39.5H1240V40.5ZM1280 79.5H1240V80.5H1280V79.5ZM1360 40.5H1400V39.5H1360V40.5ZM1399.5 40V80H1400.5V40H1399.5ZM1400 79.5H1360V80.5H1400V79.5ZM1400 40.5H1440V39.5H1400V40.5ZM1440 79.5H1400V80.5H1440V79.5ZM280 360.5H320V359.5H280V360.5ZM320 399.5H280V400.5H320V399.5ZM920 360.5H960V359.5H920V360.5ZM960 399.5H920V400.5H960V399.5ZM600 360.5H640V359.5H600V360.5ZM640 399.5H600V400.5H640V399.5ZM1240 360.5H1280V359.5H1240V360.5ZM1280 399.5H1240V400.5H1280V399.5ZM1360 360.5H1400V359.5H1360V360.5ZM1399.5 360V400H1400.5V360H1399.5ZM1400 399.5H1360V400.5H1400V399.5ZM1400 360.5H1440V359.5H1400V360.5ZM1440 399.5H1400V400.5H1440V399.5ZM280 200.5H320V199.5H280V200.5ZM320 239.5H280V240.5H320V239.5ZM920 200.5H960V199.5H920V200.5ZM960 239.5H920V240.5H960V239.5ZM600 200.5H640V199.5H600V200.5ZM640 239.5H600V240.5H640V239.5ZM1240 200.5H1280V199.5H1240V200.5ZM1280 239.5H1240V240.5H1280V239.5ZM1360 200.5H1400V199.5H1360V200.5ZM1399.5 200V240H1400.5V200H1399.5ZM1400 239.5H1360V240.5H1400V239.5ZM1400 200.5H1440V199.5H1400V200.5ZM1440 239.5H1400V240.5H1440V239.5ZM280 520.5H320V519.5H280V520.5ZM320 559.5H280V560.5H320V559.5ZM280 680.5H320V679.5H280V680.5ZM320 719.5H280V720.5H320V719.5ZM920 520.5H960V519.5H920V520.5ZM960 559.5H920V560.5H960V559.5ZM920 680.5H960V679.5H920V680.5ZM960 719.5H920V720.5H960V719.5ZM600 520.5H640V519.5H600V520.5ZM640 559.5H600V560.5H640V559.5ZM600 680.5H640V679.5H600V680.5ZM640 719.5H600V720.5H640V719.5ZM1240 520.5H1280V519.5H1240V520.5ZM1280 559.5H1240V560.5H1280V559.5ZM1240 680.5H1280V679.5H1240V680.5ZM1280 719.5H1240V720.5H1280V719.5ZM1360 520.5H1400V519.5H1360V520.5ZM1399.5 520V560H1400.5V520H1399.5ZM1400 559.5H1360V560.5H1400V559.5ZM1360 680.5H1400V679.5H1360V680.5ZM1399.5 680V720H1400.5V680H1399.5ZM1400 719.5H1360V720.5H1400V719.5ZM1400 520.5H1440V519.5H1400V520.5ZM1440 559.5H1400V560.5H1440V559.5ZM1400 680.5H1440V679.5H1400V680.5ZM1440 719.5H1400V720.5H1440V719.5ZM1279.5 80V120H1280.5V80H1279.5ZM1399.5 80V120H1400.5V80H1399.5ZM1279.5 400V440H1280.5V400H1279.5ZM1399.5 400V440H1400.5V400H1399.5ZM1279.5 240V280H1280.5V240H1279.5ZM1399.5 240V280H1400.5V240H1399.5ZM1279.5 560V600H1280.5V560H1279.5ZM1279.5 720V760H1280.5V720H1279.5ZM1399.5 560V600H1400.5V560H1399.5ZM1399.5 720V760H1400.5V720H1399.5ZM1280.5 40V0H1279.5V40H1280.5ZM1280.5 360V320H1279.5V360H1280.5ZM1280.5 200V160H1279.5V200H1280.5ZM1280.5 520V480H1279.5V520H1280.5ZM1280.5 680V640H1279.5V680H1280.5ZM1399.5 0V40H1400.5V0H1399.5ZM1399.5 320V360H1400.5V320H1399.5ZM1399.5 160V200H1400.5V160H1399.5ZM1399.5 480V520H1400.5V480H1399.5ZM1399.5 640V680H1400.5V640H1399.5ZM0 800H-1V801H0V800ZM0 0V-1H-1V0H0ZM1440 800V801H1441V800H1440ZM1440 0H1441V-1H1440V0ZM120 799H80V801H120V799ZM760 799H720V801H760V799ZM440 799H400V801H440V799ZM1080 799H1040V801H1080V799ZM280 799H240V801H280V799ZM920 799H880V801H920V799ZM600 799H560V801H600V799ZM1240 799H1200V801H1240V799ZM1360 799H1320V801H1360V799ZM1 160V120H-1V160H1ZM1 480V440H-1V480H1ZM1 320V280H-1V320H1ZM1 640V600H-1V640H1ZM40 799H0V801H40V799ZM1 800V760H-1V800H1ZM680 799H640V801H680V799ZM360 799H320V801H360V799ZM1000 799H960V801H1000V799ZM200 799H160V801H200V799ZM840 799H800V801H840V799ZM520 799H480V801H520V799ZM1160 799H1120V801H1160V799ZM1 80V40H-1V80H1ZM1 400V360H-1V400H1ZM1 240V200H-1V240H1ZM1 560V520H-1V560H1ZM1 720V680H-1V720H1ZM1 120V80H-1V120H1ZM1 440V400H-1V440H1ZM1 280V240H-1V280H1ZM1 600V560H-1V600H1ZM1 760V720H-1V760H1ZM0 1H40V-1H0V1ZM1 40V0H-1V40H1ZM640 1H680V-1H640V1ZM320 1H360V-1H320V1ZM960 1H1000V-1H960V1ZM1 360V320H-1V360H1ZM1 200V160H-1V200H1ZM1 520V480H-1V520H1ZM1 680V640H-1V680H1ZM160 1H200V-1H160V1ZM800 1H840V-1H800V1ZM480 1H520V-1H480V1ZM1120 1H1160V-1H1120V1ZM80 1H120V-1H80V1ZM720 1H760V-1H720V1ZM400 1H440V-1H400V1ZM1040 1H1080V-1H1040V1ZM240 1H280V-1H240V1ZM880 1H920V-1H880V1ZM560 1H600V-1H560V1ZM1200 1H1240V-1H1200V1ZM1320 1H1360V-1H1320V1ZM160 799H120V801H160V799ZM800 799H760V801H800V799ZM480 799H440V801H480V799ZM1120 799H1080V801H1120V799ZM1439 120V160H1441V120H1439ZM1439 440V480H1441V440H1439ZM1439 280V320H1441V280H1439ZM320 799H280V801H320V799ZM960 799H920V801H960V799ZM640 799H600V801H640V799ZM1280 799H1240V801H1280V799ZM1400 799H1360V801H1400V799ZM1439 600V640H1441V600H1439ZM1439 760V800H1441V760H1439ZM1440 799H1400V801H1440V799ZM80 799H40V801H80V799ZM720 799H680V801H720V799ZM400 799H360V801H400V799ZM1040 799H1000V801H1040V799ZM240 799H200V801H240V799ZM880 799H840V801H880V799ZM560 799H520V801H560V799ZM1200 799H1160V801H1200V799ZM1320 799H1280V801H1320V799ZM1439 40V80H1441V40H1439ZM1439 360V400H1441V360H1439ZM1439 200V240H1441V200H1439ZM1439 520V560H1441V520H1439ZM1439 680V720H1441V680H1439ZM1439 80V120H1441V80H1439ZM1439 400V440H1441V400H1439ZM1439 240V280H1441V240H1439ZM1439 560V600H1441V560H1439ZM1439 720V760H1441V720H1439ZM40 1H80V-1H40V1ZM680 1H720V-1H680V1ZM360 1H400V-1H360V1ZM1000 1H1040V-1H1000V1ZM200 1H240V-1H200V1ZM840 1H880V-1H840V1ZM520 1H560V-1H520V1ZM1160 1H1200V-1H1160V1ZM1280 1H1320V-1H1280V1ZM120 1H160V-1H120V1ZM760 1H800V-1H760V1ZM440 1H480V-1H440V1ZM1080 1H1120V-1H1080V1ZM280 1H320V-1H280V1ZM920 1H960V-1H920V1ZM600 1H640V-1H600V1ZM1240 1H1280V-1H1240V1ZM1360 1H1400V-1H1360V1ZM1400 1H1440V-1H1400V1ZM1439 0V40H1441V0H1439ZM1439 320V360H1441V320H1439ZM1439 160V200H1441V160H1439ZM1439 480V520H1441V480H1439ZM1439 640V680H1441V640H1439Z" fill="url(#paint0_diamond_54_3723)" mask="url(#path-1-inside-1_54_3723)"/>
<defs>
<radialGradient id="paint0_diamond_54_3723" cx="0" cy="0" r="1" gradientUnits="userSpaceOnUse" gradientTransform="translate(720 400) rotate(90) scale(487.5 877.5)">
<stop stop-color="#E13A44" stop-opacity="0.4"/>
<stop offset="0.481016" stop-color="#320003" stop-opacity="0.16"/>
<stop offset="1" stop-color="#E13A44" stop-opacity="0.0745098"/>
</radialGradient>
</defs>
</svg>
