<svg width="38" height="35" viewBox="0 0 38 35" fill="none" xmlns="http://www.w3.org/2000/svg">
<g filter="url(#filter0_d_54_3826)">
<path d="M6.74256 18.413L7.05029 15.6294L7.38036 15.9611C8.09386 16.6783 9.12244 16.9793 10.1075 16.7593L17.3798 15.135L14.9204 26.5056L7.88304 21.0968C7.06103 20.4651 6.62829 19.4467 6.74256 18.413Z" fill="white"/>
<path d="M16.3961 27L18.3636 15.6294L20.8546 18.446C21.7533 19.4622 23.1083 19.9431 24.4426 19.7196L28.2012 19.09L26.7841 24.075C26.4519 25.2439 25.4436 26.0907 24.2401 26.2116L16.3961 27Z" fill="white"/>
<path d="M30.6607 11.6744L19.3474 14.6407L22.5535 17.863C23.01 18.3218 23.6615 18.5264 24.2967 18.4103L29.5733 17.4461C31.6905 17.0592 32.6972 14.5984 31.4631 12.8266L30.6607 11.6744Z" fill="white"/>
<path d="M16.3961 14.1463L8.52594 7.22505L5.38984 8.19489C3.94194 8.64266 3.51955 10.498 4.62965 11.534L7.91139 14.5968C8.60619 15.2452 9.56865 15.5187 10.4984 15.3318L16.3961 14.1463Z" fill="white"/>
<path d="M17.9715 13.6268C17.909 13.6425 17.8428 13.6265 17.7943 13.5838L10.3145 7.00586C10.1895 6.89593 10.2479 6.68942 10.4117 6.66198L21.7237 4.76709C21.7768 4.75821 21.8311 4.77153 21.8741 4.80395L29.3462 10.4364C29.4787 10.5363 29.4366 10.746 29.2759 10.7864L17.9715 13.6268Z" fill="#E13943"/>
<path d="M21.3149 3.76443L9.01782 5.74193L7.97315 3.85199C7.29624 2.62738 8.06596 1.10317 9.44904 0.929407L16.6641 0.0229546C17.715 -0.109075 18.7558 0.334981 19.3912 1.18655L21.3149 3.76443Z" fill="white"/>
<path d="M31.1525 10.1913L22.7905 4.25881L25.612 2.13203C26.2793 1.62898 27.1898 1.60358 27.8839 2.06865L33.1239 5.57967C34.292 6.36241 34.292 8.08769 33.1239 8.87043L31.1525 10.1913Z" fill="white"/>
<path d="M19.6904 11.0466L15.8425 7.6089C15.7024 7.48374 15.7993 7.25126 15.9863 7.26379L22.3995 7.6935C22.5612 7.70433 22.6413 7.89588 22.5358 8.01951L19.9705 11.0275C19.8989 11.1115 19.7727 11.1201 19.6904 11.0466Z" fill="white"/>
</g>
<defs>
<filter id="filter0_d_54_3826" x="0" y="0" width="38" height="35" filterUnits="userSpaceOnUse" color-interpolation-filters="sRGB">
<feFlood flood-opacity="0" result="BackgroundImageFix"/>
<feColorMatrix in="SourceAlpha" type="matrix" values="0 0 0 0 0 0 0 0 0 0 0 0 0 0 0 0 0 0 127 0" result="hardAlpha"/>
<feOffset dy="4"/>
<feGaussianBlur stdDeviation="2"/>
<feComposite in2="hardAlpha" operator="out"/>
<feColorMatrix type="matrix" values="0 0 0 0 0 0 0 0 0 0 0 0 0 0 0 0 0 0 0.25 0"/>
<feBlend mode="normal" in2="BackgroundImageFix" result="effect1_dropShadow_54_3826"/>
<feBlend mode="normal" in="SourceGraphic" in2="effect1_dropShadow_54_3826" result="shape"/>
</filter>
</defs>
</svg>
