<svg xmlns="http://www.w3.org/2000/svg" width="24" height="25" viewBox="0 0 24 25" fill="none">
  <path d="M3 5.5C3 4.94772 3.44772 4.5 4 4.5H20C20.5523 4.5 21 4.94772 21 5.5C21 6.05228 20.5523 6.5 20 6.5H4C3.44772 6.5 3 6.05228 3 5.5Z" fill="white"/>
  <path d="M3 12.5C3 11.9477 3.44772 11.5 4 11.5H20C20.5523 11.5 21 11.9477 21 12.5C21 13.0523 20.5523 13.5 20 13.5H4C3.44772 13.5 3 13.0523 3 12.5Z" fill="white"/>
  <path d="M4 18.5C3.44772 18.5 3 18.9477 3 19.5C3 20.0523 3.44772 20.5 4 20.5H20C20.5523 20.5 21 20.0523 21 19.5C21 18.9477 20.5523 18.5 20 18.5H4Z" fill="white"/>
</svg>