<svg xmlns="http://www.w3.org/2000/svg" width="64" height="64" viewBox="0 0 64 64" fill="none">
  <g opacity="0.8">
    <path fill-rule="evenodd" clip-rule="evenodd" d="M12.233 0.0888672C10.8809 0.0888672 9.5515 0.433496 8.37015 1.08977C7.16723 1.70298 6.15187 2.62987 5.43177 3.77288C4.70131 4.93232 4.30261 6.26983 4.279 7.63998L4.27866 7.67934V56.4109L4.279 56.4502C4.30261 57.8202 4.70131 59.1578 5.43177 60.3171C6.15187 61.4605 7.16723 62.3871 8.37015 63.0006C9.5515 63.6566 10.8809 64.0013 12.233 64.0013C13.6042 64.0013 14.9521 63.647 16.1459 62.9722C16.1722 62.9576 16.1982 62.9421 16.2238 62.9261L55.6742 38.5263C56.8705 37.9234 57.8804 37.0048 58.5944 35.8689C59.3309 34.6959 59.7222 33.3389 59.7222 31.9536C59.7222 30.5684 59.3309 29.2113 58.5944 28.0384C57.8799 26.9013 56.8683 25.982 55.6705 25.3791L16.2173 1.15995C16.1938 1.14551 16.17 1.13149 16.1459 1.1179C14.9521 0.443346 13.6042 0.0888672 12.233 0.0888672Z" fill="white"/>
  </g>
</svg>