<svg xmlns="http://www.w3.org/2000/svg" width="41" height="41" viewBox="0 0 41 41" fill="none">
  <path d="M28.5929 16.4434L34.8653 11.3101C36.4196 10.0377 38.751 11.1463 38.7491 13.152L38.7263 27.1501C38.7244 29.1558 36.391 30.2548 34.8406 28.9825L28.5929 23.8491M28.5869 27.031C28.741 30.5206 25.9246 33.4715 22.2969 33.6198C22.0297 33.6311 9.00296 33.6048 9.00296 33.6048C5.39277 33.8789 2.23313 31.2846 1.94837 27.8081C1.92691 27.5491 1.93277 13.5717 1.93277 13.5717C1.77283 10.0783 4.58531 7.11989 8.215 6.96596C8.4861 6.95282 21.4953 6.97723 21.4953 6.97723C25.123 6.70691 28.2924 9.31993 28.5733 12.8133C28.5928 13.0649 28.5869 27.031 28.5869 27.031Z" stroke="#CACACA" stroke-width="2.39659" stroke-linecap="round" stroke-linejoin="round"/>
</svg>