<svg width="115" height="13" viewBox="0 0 115 13" fill="none" xmlns="http://www.w3.org/2000/svg">
<path d="M4.21952 7.136L0.539516 0.704H3.67552L5.65952 4.4L7.64352 0.704H10.7795L7.11552 7.136V12H4.21952V7.136ZM13.8696 12.224C12.899 12.224 12.067 12.032 11.3736 11.648C10.691 11.2533 10.1896 10.6987 9.86964 9.984C9.61364 9.408 9.48564 8.74667 9.48564 8C9.48564 7.264 9.61364 6.608 9.86964 6.032C10.1896 5.31733 10.691 4.76267 11.3736 4.368C12.067 3.97333 12.899 3.776 13.8696 3.776C14.8403 3.776 15.667 3.97333 16.3496 4.368C17.0323 4.752 17.5336 5.30133 17.8536 6.016C18.1203 6.58133 18.2536 7.24267 18.2536 8C18.2536 8.768 18.1203 9.43467 17.8536 10C17.5336 10.704 17.0323 11.2533 16.3496 11.648C15.667 12.032 14.8403 12.224 13.8696 12.224ZM13.8696 10.064C14.531 10.064 14.979 9.81333 15.2136 9.312C15.2883 9.152 15.3363 8.97067 15.3576 8.768C15.3896 8.55467 15.4056 8.29867 15.4056 8C15.4056 7.40267 15.3416 6.97067 15.2136 6.704C14.9896 6.20267 14.5416 5.952 13.8696 5.952C13.2083 5.952 12.7603 6.20267 12.5256 6.704C12.3976 7.00267 12.3336 7.43467 12.3336 8C12.3336 8.55467 12.3976 8.992 12.5256 9.312C12.7603 9.81333 13.2083 10.064 13.8696 10.064ZM27.0846 4.016V12H24.4126V11.024C24.1246 11.4187 23.778 11.7227 23.3726 11.936C22.978 12.1387 22.5086 12.24 21.9646 12.24C21.0686 12.24 20.37 11.9733 19.8686 11.44C19.378 10.9067 19.1326 10.144 19.1326 9.152V4.016H21.8046V8.576C21.8046 9.09867 21.906 9.47733 22.1086 9.712C22.3113 9.94667 22.626 10.064 23.0526 10.064C23.9593 10.064 24.4126 9.54133 24.4126 8.496V4.016H27.0846ZM30.0538 3.088H27.6218V0.704H35.3658V3.088H32.9498V12H30.0538V3.088ZM43.2878 4.016V12H40.6158V11.024C40.3278 11.4187 39.9811 11.7227 39.5758 11.936C39.1811 12.1387 38.7118 12.24 38.1678 12.24C37.2718 12.24 36.5731 11.9733 36.0718 11.44C35.5811 10.9067 35.3358 10.144 35.3358 9.152V4.016H38.0078V8.576C38.0078 9.09867 38.1091 9.47733 38.3118 9.712C38.5144 9.94667 38.8291 10.064 39.2558 10.064C40.1624 10.064 40.6158 9.54133 40.6158 8.496V4.016H43.2878ZM52.7793 5.712C53.0673 6.37333 53.2113 7.136 53.2113 8C53.2113 8.87467 53.0673 9.64267 52.7793 10.304C52.4913 10.9227 52.0806 11.3973 51.5473 11.728C51.0246 12.0587 50.4006 12.224 49.6753 12.224C49.1313 12.224 48.6566 12.128 48.2513 11.936C47.8459 11.7333 47.4993 11.4347 47.2113 11.04V12H44.6033V0.704H47.2753V4.88C47.5633 4.50667 47.9046 4.22933 48.2993 4.048C48.6939 3.86667 49.1526 3.776 49.6753 3.776C50.4006 3.776 51.0299 3.94667 51.5633 4.288C52.0966 4.61867 52.5019 5.09333 52.7793 5.712ZM50.1713 9.264C50.2993 8.95467 50.3633 8.53333 50.3633 8C50.3633 7.456 50.2993 7.04 50.1713 6.752C50.0539 6.48533 49.8779 6.288 49.6433 6.16C49.4086 6.02133 49.1259 5.952 48.7953 5.952C48.2939 5.952 47.9099 6.10667 47.6433 6.416C47.3766 6.72533 47.2433 7.17867 47.2433 7.776V8.24C47.2433 8.83733 47.3766 9.29067 47.6433 9.6C47.9099 9.90933 48.2939 10.064 48.7953 10.064C49.1259 10.064 49.4086 10 49.6433 9.872C49.8779 9.73333 50.0539 9.53067 50.1713 9.264ZM59.4275 9.936C59.5235 9.86133 59.5982 9.77067 59.6515 9.664C59.7048 9.54667 59.7422 9.42933 59.7635 9.312H62.4675C62.4035 10.0693 62.0995 10.6933 61.5555 11.184C61.1715 11.536 60.7022 11.7973 60.1475 11.968C59.6035 12.1387 59.0062 12.224 58.3555 12.224C57.3742 12.224 56.5315 12.0373 55.8275 11.664C55.1235 11.28 54.6115 10.7307 54.2915 10.016C54.0355 9.44 53.9075 8.76267 53.9075 7.984C53.9075 7.568 53.9395 7.20533 54.0035 6.896C54.0675 6.576 54.1635 6.272 54.2915 5.984C54.6008 5.28 55.0915 4.736 55.7635 4.352C56.4355 3.968 57.2408 3.776 58.1795 3.776C59.1288 3.776 59.9395 3.97333 60.6115 4.368C61.2942 4.76267 61.7955 5.312 62.1155 6.016C62.2862 6.38933 62.3982 6.768 62.4515 7.152C62.5048 7.536 62.5315 8.03733 62.5315 8.656H56.6115C56.6435 9.04 56.7075 9.32267 56.8035 9.504C57.0275 10.016 57.5288 10.272 58.3075 10.272C58.7982 10.272 59.1715 10.16 59.4275 9.936ZM58.2275 5.664C57.8755 5.664 57.5768 5.73333 57.3315 5.872C57.0968 6 56.9208 6.192 56.8035 6.448C56.7502 6.55467 56.7075 6.66133 56.6755 6.768C56.6542 6.864 56.6382 6.98667 56.6275 7.136H59.8115C59.8008 6.98667 59.7848 6.864 59.7635 6.768C59.7422 6.66133 59.7048 6.55467 59.6515 6.448C59.4168 5.92533 58.9422 5.664 58.2275 5.664ZM70.7369 12.304C69.5956 12.304 68.6516 12.112 67.9049 11.728C67.1582 11.3333 66.6302 10.8 66.3209 10.128C66.1182 9.68 66.0169 9.152 66.0169 8.544H69.2009C69.2009 8.896 69.2489 9.168 69.3449 9.36C69.5689 9.88267 70.0702 10.144 70.8489 10.144C71.2009 10.144 71.4996 10.0853 71.7449 9.968C71.9902 9.85067 72.1662 9.68533 72.2729 9.472C72.3369 9.33333 72.3689 9.16267 72.3689 8.96C72.3689 8.768 72.3369 8.60267 72.2729 8.464C72.1876 8.26133 72.0382 8.09067 71.8249 7.952C71.6116 7.81333 71.3662 7.70133 71.0889 7.616C70.8116 7.52 70.4542 7.41333 70.0169 7.296C69.9209 7.27467 69.6596 7.2 69.2329 7.072C68.5716 6.88 68.0062 6.63467 67.5369 6.336C67.0782 6.02667 66.7422 5.63733 66.5289 5.168C66.3582 4.79467 66.2729 4.36267 66.2729 3.872C66.2729 3.40267 66.3689 2.93867 66.5609 2.48C66.8489 1.82933 67.3556 1.32267 68.0809 0.959999C68.8169 0.586666 69.6969 0.4 70.7209 0.4C71.7129 0.4 72.5609 0.576 73.2649 0.927999C73.9689 1.28 74.4702 1.78667 74.7689 2.448C74.8756 2.69333 74.9502 2.93867 74.9929 3.184C75.0462 3.41867 75.0729 3.69067 75.0729 4H72.0649C72.0649 3.81867 72.0542 3.664 72.0329 3.536C72.0116 3.408 71.9742 3.28533 71.9209 3.168C71.7182 2.72 71.2809 2.496 70.6089 2.496C70.2782 2.496 70.0009 2.54933 69.7769 2.656C69.5529 2.76267 69.3982 2.912 69.3129 3.104C69.2596 3.22133 69.2329 3.36 69.2329 3.52C69.2329 3.69067 69.2596 3.83467 69.3129 3.952C69.3876 4.12267 69.5156 4.26667 69.6969 4.384C69.8889 4.50133 70.1129 4.60267 70.3689 4.688C70.6249 4.76267 70.9609 4.85333 71.3769 4.96C71.7716 5.06667 72.0222 5.136 72.1289 5.168C72.9502 5.392 73.6222 5.65333 74.1449 5.952C74.6782 6.25067 75.0569 6.66133 75.2809 7.184C75.4622 7.6 75.5529 8.07467 75.5529 8.608C75.5529 9.16267 75.4516 9.67467 75.2489 10.144C74.9289 10.8373 74.3742 11.3707 73.5849 11.744C72.8062 12.1173 71.8569 12.304 70.7369 12.304ZM81.6295 3.776C82.5255 3.776 83.2188 4.04267 83.7095 4.576C84.2108 5.10933 84.4615 5.872 84.4615 6.864V12H81.7895V7.44C81.7895 6.91733 81.6882 6.53867 81.4855 6.304C81.2828 6.06933 80.9682 5.952 80.5415 5.952C80.0935 5.952 79.7522 6.08533 79.5175 6.352C79.2935 6.608 79.1815 6.99733 79.1815 7.52V12H76.5095V0.704H79.1815V5.008C79.7468 4.18667 80.5628 3.776 81.6295 3.776ZM89.729 12.224C88.7583 12.224 87.9263 12.032 87.233 11.648C86.5503 11.2533 86.049 10.6987 85.729 9.984C85.473 9.408 85.345 8.74667 85.345 8C85.345 7.264 85.473 6.608 85.729 6.032C86.049 5.31733 86.5503 4.76267 87.233 4.368C87.9263 3.97333 88.7583 3.776 89.729 3.776C90.6997 3.776 91.5263 3.97333 92.209 4.368C92.8917 4.752 93.393 5.30133 93.713 6.016C93.9797 6.58133 94.113 7.24267 94.113 8C94.113 8.768 93.9797 9.43467 93.713 10C93.393 10.704 92.8917 11.2533 92.209 11.648C91.5263 12.032 90.6997 12.224 89.729 12.224ZM89.729 10.064C90.3903 10.064 90.8383 9.81333 91.073 9.312C91.1477 9.152 91.1957 8.97067 91.217 8.768C91.249 8.55467 91.265 8.29867 91.265 8C91.265 7.40267 91.201 6.97067 91.073 6.704C90.849 6.20267 90.401 5.952 89.729 5.952C89.0677 5.952 88.6197 6.20267 88.385 6.704C88.257 7.00267 88.193 7.43467 88.193 8C88.193 8.55467 88.257 8.992 88.385 9.312C88.6197 9.81333 89.0677 10.064 89.729 10.064ZM95.072 4.016H97.728V4.736C97.9307 4.40533 98.1493 4.16533 98.384 4.016C98.6293 3.86667 98.912 3.792 99.232 3.792C99.712 3.792 100.091 3.936 100.368 4.224C100.656 4.50133 100.8 4.87467 100.8 5.344C100.8 5.64267 100.736 5.90933 100.608 6.144C100.48 6.37867 100.299 6.56533 100.064 6.704C99.8293 6.832 99.5627 6.896 99.264 6.896C98.9867 6.896 98.736 6.832 98.512 6.704C98.288 6.56533 98.1227 6.38933 98.016 6.176C97.8987 6.22933 97.824 6.304 97.792 6.4C97.76 6.496 97.744 6.68267 97.744 6.96V12H95.072V4.016ZM105.009 12.144C104.359 12.144 103.836 12.0533 103.441 11.872C103.047 11.6907 102.753 11.4027 102.561 11.008C102.38 10.6133 102.289 10.08 102.289 9.408V6.096H101.217V4.016H102.289V2.112H104.961V4.016H106.833V6.096H104.961V8.944C104.961 9.33867 105.036 9.616 105.185 9.776C105.345 9.936 105.596 10.016 105.937 10.016C106.204 10.016 106.481 9.97867 106.769 9.904V11.968C106.204 12.0853 105.617 12.144 105.009 12.144ZM110.993 12.288C110.14 12.288 109.42 12.1547 108.833 11.888C108.246 11.6107 107.836 11.2053 107.601 10.672C107.43 10.2987 107.345 9.86667 107.345 9.376H109.969C109.969 9.64267 110.006 9.85067 110.081 10C110.156 10.1707 110.268 10.2987 110.417 10.384C110.577 10.4693 110.78 10.512 111.025 10.512C111.238 10.512 111.414 10.48 111.553 10.416C111.702 10.352 111.804 10.256 111.857 10.128C111.9 10.0427 111.921 9.94133 111.921 9.824C111.921 9.70667 111.9 9.61067 111.857 9.536C111.793 9.39733 111.686 9.28533 111.537 9.2C111.388 9.11467 111.19 9.03467 110.945 8.96C110.7 8.88533 110.438 8.816 110.161 8.752C109.585 8.60267 109.094 8.416 108.689 8.192C108.294 7.968 108.001 7.648 107.809 7.232C107.692 6.944 107.633 6.64 107.633 6.32C107.633 5.936 107.702 5.58933 107.841 5.28C108.054 4.78933 108.444 4.416 109.009 4.16C109.574 3.904 110.246 3.776 111.025 3.776C111.804 3.776 112.465 3.89867 113.009 4.144C113.564 4.38933 113.953 4.75733 114.177 5.248C114.326 5.57867 114.401 5.952 114.401 6.368H111.873C111.873 6.144 111.841 5.96267 111.777 5.824C111.638 5.536 111.372 5.392 110.977 5.392C110.796 5.392 110.641 5.424 110.513 5.488C110.396 5.54133 110.31 5.62133 110.257 5.728C110.225 5.80267 110.209 5.888 110.209 5.984C110.209 6.09067 110.225 6.176 110.257 6.24C110.321 6.37867 110.438 6.496 110.609 6.592C110.78 6.67733 110.988 6.75733 111.233 6.832C111.489 6.90667 111.745 6.976 112.001 7.04C112.652 7.21067 113.185 7.41333 113.601 7.648C114.028 7.88267 114.337 8.208 114.529 8.624C114.646 8.86933 114.705 9.184 114.705 9.568C114.705 9.99467 114.636 10.3627 114.497 10.672C114.252 11.216 113.82 11.6213 113.201 11.888C112.582 12.1547 111.846 12.288 110.993 12.288Z" fill="white"/>
</svg>
