<svg xmlns="http://www.w3.org/2000/svg" width="20" height="24" viewBox="0 0 20 24" fill="none">
  <g clip-path="url(#clip0_100_974)">
    <path d="M12.6795 0.528065C14.9432 -0.651623 17.7459 0.207752 18.9373 2.44799C20.1287 4.68822 19.2596 7.45971 16.9959 8.63939L15.1346 9.61791C16.7381 9.6765 18.2674 10.5574 19.0682 12.0632C20.2596 14.3035 19.3924 17.0749 17.1268 18.2546L7.20098 23.4695C4.93731 24.6492 2.13458 23.7898 0.943171 21.5495C-0.248235 19.3093 0.620905 16.5378 2.88458 15.3581L4.74591 14.3796C3.14239 14.321 1.61309 13.4402 0.812312 11.9343C-0.379095 9.69408 0.490046 6.9226 2.75372 5.74291L12.6795 0.528065ZM7.32208 8.30541L13.3299 12.0144L7.32208 15.7058V8.30541Z" fill="#F40407"/>
    <path d="M7.32178 8.30566V15.7061L13.3296 12.0146L7.32178 8.30566Z" fill="white"/>
  </g>
  <defs>
    <clipPath id="clip0_100_974">
      <rect width="19.3242" height="24" fill="white" transform="translate(0.279297)"/>
    </clipPath>
  </defs>
</svg>