<svg width="40" height="17" viewBox="0 0 40 17" fill="none" xmlns="http://www.w3.org/2000/svg">
<path fill-rule="evenodd" clip-rule="evenodd" d="M18.5039 12.6233V7.96243H20.9094C21.8952 7.96243 22.7272 7.63213 23.4055 6.9807L23.5683 6.81555C24.8072 5.46682 24.7258 3.36574 23.4055 2.11794C22.7453 1.45734 21.8409 1.09951 20.9094 1.11786H17.0479V12.6233H18.5039ZM18.5043 6.55037V2.53171H20.9464C21.471 2.53171 21.9685 2.73356 22.3393 3.10056C23.1262 3.87126 23.1443 5.15577 22.3846 5.954C22.0137 6.34852 21.4891 6.56872 20.9464 6.55037H18.5043ZM30.3595 5.36382C29.7355 4.78579 28.8854 4.49219 27.8093 4.49219C26.4256 4.49219 25.3856 5.00599 24.6983 6.02442L25.9825 6.841C26.4527 6.14369 27.0948 5.79504 27.9087 5.79504C28.4242 5.79504 28.9216 5.98772 29.3105 6.33637C29.6903 6.66667 29.9074 7.14377 29.9074 7.6484V7.98788C29.3467 7.67592 28.6413 7.51077 27.7731 7.51077C26.7602 7.51077 25.9463 7.74932 25.3404 8.2356C24.7345 8.72188 24.427 9.36413 24.427 10.1807C24.4089 10.9239 24.7254 11.6304 25.2861 12.1075C25.8559 12.6213 26.5793 12.8782 27.4294 12.8782C28.4333 12.8782 29.2291 12.4286 29.835 11.5294H29.8983V12.6213H31.291V7.76767C31.291 6.74925 30.9835 5.94184 30.3595 5.36382ZM26.407 11.1731C26.1085 10.9529 25.9276 10.5951 25.9276 10.2098C25.9276 9.77854 26.1266 9.42071 26.5155 9.13629C26.9135 8.85186 27.411 8.70506 27.9989 8.70506C28.813 8.69589 29.4461 8.87939 29.8984 9.24639C29.8984 9.87029 29.6542 10.4116 29.1748 10.8704C28.7406 11.3108 28.1527 11.5585 27.5376 11.5585C27.1306 11.5677 26.7326 11.43 26.407 11.1731ZM34.4211 16.0853L39.2866 4.75414H37.7039L35.4521 10.406H35.425L33.1189 4.75414H31.5362L34.7286 12.1217L32.9199 16.0853H34.4211Z" fill="#3C4043"/>
<path d="M13.4786 6.96065C13.4786 6.51107 13.4424 6.0615 13.3701 5.62109H7.22949V8.16258H10.7474C10.6027 8.97916 10.1325 9.71316 9.44516 10.1719V11.8234H11.5433C12.7732 10.6765 13.4786 8.97916 13.4786 6.96065Z" fill="#4285F4"/>
<path d="M7.22906 13.4141C8.98351 13.4141 10.4667 12.8269 11.5428 11.8176L9.44473 10.1661C8.8569 10.5698 8.10629 10.7992 7.22906 10.7992C5.52888 10.7992 4.09095 9.63397 3.57547 8.07422H1.41406V9.78078C2.51738 12.0103 4.76922 13.4141 7.22906 13.4141Z" fill="#34A853"/>
<path d="M3.57532 8.07344C3.30397 7.25686 3.30397 6.36688 3.57532 5.54113V3.84375H1.41357C0.481935 5.70628 0.481935 7.90829 1.41357 9.77082L3.57532 8.07344Z" fill="#FBBC04"/>
<path d="M7.22906 2.81841C8.16055 2.80006 9.05586 3.15789 9.72508 3.80931L11.5881 1.91926C10.4033 0.799901 8.84786 0.185174 7.22906 0.203524C4.76922 0.203524 2.51738 1.61648 1.41406 3.84601L3.57547 5.55257C4.09095 3.98364 5.52888 2.81841 7.22906 2.81841Z" fill="#EA4335"/>
</svg>
