<svg width="36" height="23" viewBox="0 0 36 23" fill="none" xmlns="http://www.w3.org/2000/svg">
<path d="M21.5855 11.5566C21.5855 17.4386 16.8719 22.2069 11.0574 22.2069C5.24289 22.2069 0.529297 17.4386 0.529297 11.5566C0.529297 5.67456 5.24289 0.90625 11.0574 0.90625C16.8719 0.90625 21.5855 5.67456 21.5855 11.5566Z" fill="#ED0006"/>
<path d="M35.2437 11.5566C35.2437 17.4386 30.5301 22.2069 24.7156 22.2069C18.9011 22.2069 14.1875 17.4386 14.1875 11.5566C14.1875 5.67456 18.9011 0.90625 24.7156 0.90625C30.5301 0.90625 35.2437 5.67456 35.2437 11.5566Z" fill="#0099DF"/>
<path fill-rule="evenodd" clip-rule="evenodd" d="M17.8865 19.6652C20.1501 17.7118 21.5855 14.805 21.5855 11.5592C21.5855 8.31331 20.1501 5.40659 17.8865 3.45312C15.6229 5.40659 14.1875 8.31331 14.1875 11.5592C14.1875 14.805 15.6229 17.7118 17.8865 19.6652Z" fill="#6C6BBD"/>
</svg>
