<svg width="37" height="23" viewBox="0 0 37 23" fill="none" xmlns="http://www.w3.org/2000/svg">
<path fill-rule="evenodd" clip-rule="evenodd" d="M18.2844 19.6932C16.4038 21.2785 13.9643 22.2355 11.2986 22.2355C5.35089 22.2355 0.529297 17.4713 0.529297 11.5943C0.529297 5.71734 5.35089 0.953125 11.2986 0.953125C13.9643 0.953125 16.4038 1.91012 18.2844 3.49536C20.165 1.91012 22.6044 0.953125 25.2701 0.953125C31.2179 0.953125 36.0395 5.71734 36.0395 11.5943C36.0395 17.4713 31.2179 22.2355 25.2701 22.2355C22.6044 22.2355 20.165 21.2785 18.2844 19.6932Z" fill="#ED0006"/>
<path fill-rule="evenodd" clip-rule="evenodd" d="M18.2832 19.6939C20.5991 17.7421 22.0676 14.8377 22.0676 11.5943C22.0676 8.35095 20.5991 5.4465 18.2832 3.49471C20.1637 1.90985 22.6029 0.953125 25.2682 0.953125C31.2159 0.953125 36.0375 5.71734 36.0375 11.5943C36.0375 17.4713 31.2159 22.2355 25.2682 22.2355C22.6029 22.2355 20.1637 21.2788 18.2832 19.6939Z" fill="#F9A000"/>
<path fill-rule="evenodd" clip-rule="evenodd" d="M18.2846 19.694C20.6 17.7422 22.0681 14.838 22.0681 11.595C22.0681 8.35204 20.6 5.44788 18.2846 3.49609C15.9691 5.44788 14.501 8.35204 14.501 11.595C14.501 14.838 15.9691 17.7422 18.2846 19.694Z" fill="#FF5E00"/>
</svg>
