<svg width="150" height="39" viewBox="0 0 150 39" fill="none" xmlns="http://www.w3.org/2000/svg">
<path d="M115.952 10H107.857C107.381 10 106.904 10.4762 106.666 10.9524L103.333 31.9048C103.333 32.381 103.571 32.6191 104.047 32.6191H108.333C108.809 32.6191 109.047 32.381 109.047 31.9048L110 25.9524C110 25.4762 110.476 25 111.19 25H113.809C119.285 25 122.381 22.381 123.095 17.1429C123.571 15 123.095 13.0952 122.143 11.9048C120.714 10.7143 118.571 10 115.952 10ZM116.904 17.8571C116.428 20.7143 114.285 20.7143 112.143 20.7143H110.714L111.666 15.2381C111.666 15 111.904 14.7619 112.381 14.7619H112.857C114.285 14.7619 115.714 14.7619 116.428 15.7143C116.904 15.9524 116.904 16.6667 116.904 17.8571Z" fill="#139AD6"/>
<path d="M57.6191 10H49.5238C49.0476 10 48.5714 10.4762 48.3333 10.9524L45 31.9048C45 32.381 45.2381 32.6191 45.7143 32.6191H49.5238C50 32.6191 50.4762 32.1429 50.7143 31.6667L51.6667 25.9524C51.6667 25.4762 52.1429 25 52.8571 25H55.4762C60.9524 25 64.0476 22.381 64.7619 17.1429C65.2381 15 64.7619 13.0952 63.8095 11.9048C62.381 10.7143 60.4762 10 57.6191 10ZM58.5714 17.8571C58.0952 20.7143 55.9524 20.7143 53.8095 20.7143H52.619L53.5714 15.2381C53.5714 15 53.8095 14.7619 54.2857 14.7619H54.7619C56.1905 14.7619 57.619 14.7619 58.3333 15.7143C58.5714 15.9524 58.8095 16.6667 58.5714 17.8571Z" fill="#263B80"/>
<path d="M82.1426 17.6207H78.3331C78.095 17.6207 77.6188 17.8588 77.6188 18.0969L77.3807 19.2874L77.1426 18.8112C76.1903 17.6207 74.5236 17.1445 72.6188 17.1445C68.3331 17.1445 64.5236 20.4779 63.8093 25.0017C63.3331 27.3826 64.0474 29.5255 65.2379 30.9541C66.4284 32.3826 68.095 32.8588 70.2379 32.8588C73.8093 32.8588 75.7141 30.716 75.7141 30.716L75.476 31.9064C75.476 32.3826 75.7141 32.6207 76.1903 32.6207H79.7617C80.2379 32.6207 80.7141 32.1445 80.9522 31.6683L83.095 18.335C82.8569 18.0969 82.3807 17.6207 82.1426 17.6207ZM76.6665 25.2398C76.1903 27.3826 74.5236 29.0493 72.1426 29.0493C70.9522 29.0493 69.9998 28.5731 69.5236 28.0969C69.0474 27.3826 68.8093 26.4302 68.8093 25.2398C69.0474 23.0969 70.9522 21.4302 73.095 21.4302C74.2855 21.4302 74.9998 21.9064 75.7141 22.3826C76.4284 23.0969 76.6665 24.2874 76.6665 25.2398Z" fill="#263B80"/>
<path d="M140.238 17.6207H136.429C136.191 17.6207 135.715 17.8588 135.715 18.0969L135.476 19.2874L135.238 18.8112C134.286 17.6207 132.619 17.1445 130.715 17.1445C126.429 17.1445 122.619 20.4779 121.905 25.0017C121.429 27.3826 122.143 29.5255 123.334 30.9541C124.524 32.3826 126.191 32.8588 128.334 32.8588C131.905 32.8588 133.81 30.716 133.81 30.716L133.572 31.9064C133.572 32.3826 133.81 32.6207 134.286 32.6207H137.857C138.334 32.6207 138.81 32.1445 139.048 31.6683L141.191 18.335C140.953 18.0969 140.715 17.6207 140.238 17.6207ZM134.762 25.2398C134.286 27.3826 132.619 29.0493 130.238 29.0493C129.048 29.0493 128.095 28.5731 127.619 28.0969C127.143 27.3826 126.905 26.4302 126.905 25.2398C127.143 23.0969 129.048 21.4302 131.191 21.4302C132.381 21.4302 133.095 21.9064 133.81 22.3826C134.762 23.0969 135 24.2874 134.762 25.2398Z" fill="#139AD6"/>
<path d="M102.857 17.6211H98.8092C98.333 17.6211 98.0949 17.8592 97.8568 18.0973L92.6187 26.1925L90.2377 18.5735C89.9996 18.0973 89.7615 17.8592 89.0473 17.8592H85.2377C84.7615 17.8592 84.5234 18.3354 84.5234 18.8116L88.8092 31.4306L84.7615 37.1449C84.5234 37.6211 84.7615 38.3354 85.2377 38.3354H89.0473C89.5234 38.3354 89.7615 38.0973 89.9996 37.8592L103.095 19.0497C103.809 18.3354 103.333 17.6211 102.857 17.6211Z" fill="#263B80"/>
<path d="M144.762 10.7141L141.429 32.1427C141.429 32.6189 141.667 32.857 142.143 32.857H145.476C145.953 32.857 146.429 32.3808 146.667 31.9046L150 10.9522C150 10.476 149.762 10.2379 149.286 10.2379H145.476C145.238 9.99984 145 10.2379 144.762 10.7141Z" fill="#139AD6"/>
<path d="M27.381 2.85714C25.7143 0.952378 22.619 0 18.3333 0H6.42857C5.71429 0 5 0.714282 4.7619 1.42857L0 32.619C0 33.3333 0.47619 33.8095 0.952381 33.8095H8.33333L10.2381 22.1429V22.619C10.4762 21.9048 11.1905 21.1905 11.9048 21.1905H15.4762C22.381 21.1905 27.619 18.3333 29.2857 10.4762C29.2857 10.2381 29.2857 10 29.2857 9.7619C29.0476 9.7619 29.0476 9.7619 29.2857 9.7619C29.5238 6.66666 29.0476 4.7619 27.381 2.85714Z" fill="#263B80"/>
<path d="M29.0477 9.76172C29.0477 9.99981 29.0477 10.2379 29.0477 10.476C27.381 18.5712 22.143 21.1903 15.2382 21.1903H11.6668C10.9525 21.1903 10.2382 21.9046 10.0001 22.6189L7.61914 37.1427C7.61914 37.6189 7.85724 38.0951 8.57152 38.0951H14.762C15.4763 38.0951 16.1906 37.6189 16.1906 36.9046V36.6665L17.381 29.2855V28.8093C17.381 28.0951 18.0953 27.6189 18.8096 27.6189H19.762C25.7144 27.6189 30.4763 25.2379 31.6668 18.0951C32.143 15.2379 31.9049 12.6189 30.4763 10.9522C30.2382 10.476 29.762 9.99981 29.0477 9.76172Z" fill="#139AD6"/>
<path d="M27.3811 9.05022C27.143 9.05022 26.9049 8.81212 26.6669 8.81212C26.4288 8.81212 26.1907 8.81212 25.9526 8.57403C25.0002 8.33593 24.0478 8.33594 22.8573 8.33594H13.5716C13.3335 8.33594 13.0954 8.33593 12.8573 8.57403C12.3811 8.81212 12.143 9.28831 12.143 9.7645L10.2383 22.1455V22.6216C10.4764 21.9074 11.1907 21.1931 11.9049 21.1931H15.4764C22.3811 21.1931 27.6192 18.3359 29.2859 10.4788C29.2859 10.2407 29.2859 10.0026 29.524 9.7645C29.0478 9.52641 28.8097 9.28832 28.3335 9.28832C27.6192 9.05022 27.6192 9.05022 27.3811 9.05022Z" fill="#232C65"/>
</svg>
