<svg width="72" height="66" viewBox="0 0 72 66" fill="none" xmlns="http://www.w3.org/2000/svg">
<path d="M62.4401 46.5242C57.4494 56.1754 47.3759 62.7719 35.7615 62.7719C19.1835 62.7719 5.74512 49.3334 5.74512 32.7555L9.04649 30.8086C10.522 46.0085 23.3338 57.8888 38.9211 57.8888C48.4502 57.8888 56.9424 53.4481 62.4401 46.5242Z" fill="white"/>
<path d="M35.69 52.1472C24.4052 52.1472 16.4971 44.0434 16.4971 32.7587C16.4971 28.1778 16.809 23.9436 19.3613 20.5295C23.0965 15.533 29.0578 12.293 35.7618 12.293C47.0466 12.293 56.2276 21.474 56.2276 32.7587C56.2276 38.955 53.4596 44.517 49.0951 48.2731C45.511 51.3577 40.7785 52.1472 35.69 52.1472Z" fill="#C4C4C4"/>
<path d="M35.69 52.1472C24.4052 52.1472 16.4971 44.0434 16.4971 32.7587C16.4971 28.1778 16.809 23.9436 19.3613 20.5295C23.0965 15.533 29.0578 12.293 35.7618 12.293C47.0466 12.293 56.2276 21.474 56.2276 32.7587C56.2276 38.955 53.4596 44.517 49.0951 48.2731C45.511 51.3577 40.7785 52.1472 35.69 52.1472Z" fill="url(#paint0_linear_3153_124547)"/>
<path d="M51.396 45.9483C47.6374 50.3933 42.0234 53.2211 35.7616 53.2211C24.4775 53.2211 15.2959 44.0396 15.2959 32.7555C15.2959 26.4937 18.1238 20.8796 22.5688 17.1211C19.5556 20.6857 17.7374 25.2916 17.7374 30.3139C17.7374 41.5981 26.919 50.7796 38.2031 50.7796C43.2255 50.7796 47.8313 48.9614 51.396 45.9483Z" fill="#F48931"/>
<path d="M70.6454 36.5027H67.8013C67.7287 36.5027 67.6679 36.5572 67.6596 36.6294C66.832 43.8078 63.6321 50.4527 58.4421 55.6385C52.357 61.7194 44.2669 65.0671 35.6627 65.0671C27.057 65.0671 19.4639 61.5117 13.3802 55.4309C10.3678 52.4222 8.43727 49.2305 6.8398 45.4203C6.40578 44.3851 5.935 43.1114 6.89193 42.5987C6.99089 42.5457 7.09544 42.4997 7.20517 42.4616C8.27542 42.0908 9.44433 42.6193 9.88337 43.6634C14.1145 53.7227 24.0764 60.8029 35.6627 60.8029C49.787 60.8029 62.4817 50.6716 64.3374 37.0597C64.3492 36.9732 63.2976 36.5026 63.2103 36.5026H60.4483C59.8308 36.5026 59.4904 35.7989 59.8782 35.3278L63.6137 30.7952L64.9766 29.1421C65.2696 28.786 65.8225 28.786 66.1155 29.1421L67.9122 31.3223L71.214 35.3278C71.6033 35.799 71.2615 36.5027 70.6454 36.5027Z" fill="#F9AF38"/>
<path d="M65.4347 37.1689C63.3637 50.5369 51.7679 60.8043 37.8168 60.8043C37.4549 60.8043 37.0944 60.7971 36.7354 60.7841C36.7612 60.7827 36.7871 60.7827 36.8129 60.7813C36.8948 60.7784 36.9752 60.7741 37.0556 60.7698C37.8067 60.7324 38.5493 60.6664 39.2803 60.5716C39.3808 60.5572 39.4799 60.5443 39.579 60.5299C51.9044 58.7965 61.6733 48.9988 63.3537 36.6676C63.3652 36.5815 63.2977 36.5039 63.2101 36.5039H64.866C65.2193 36.5039 65.4893 36.8199 65.4347 37.1689Z" fill="#F9AF38"/>
<path d="M62.0328 35.3278C61.645 35.7989 61.9854 36.5026 62.603 36.5026H60.4487C59.8311 36.5026 59.4908 35.7989 59.8785 35.3278L63.6141 30.7952L64.977 29.1421C65.27 28.786 65.8229 28.786 66.1159 29.1421L66.6229 29.7583L65.7683 30.7952L62.0328 35.3278Z" fill="#F48931"/>
<path d="M36.74 65.0496C36.3824 65.0611 36.0233 65.0668 35.6629 65.0668C27.0572 65.0668 18.9671 61.7191 12.8834 55.6383C9.87175 52.6294 7.52932 49.1294 5.93228 45.3192C5.49711 44.2852 5.93515 43.1118 6.89165 42.5977L8.08656 45.3192C9.6836 49.1294 12.026 52.6294 15.0377 55.6383C20.8672 61.4649 28.5379 64.7825 36.74 65.0496Z" fill="#F48931"/>
<path d="M65.4347 37.1689C63.3637 50.5369 51.7679 60.8042 37.8168 60.8042C37.4549 60.8042 37.0944 60.797 36.7354 60.7841C37.6923 60.7463 38.6429 60.6645 39.579 60.5299C51.9044 58.7964 61.6733 48.9987 63.3537 36.6676C63.3652 36.5815 63.2977 36.5039 63.2101 36.5039H64.866C65.2193 36.5039 65.4893 36.8199 65.4347 37.1689Z" fill="#F48931"/>
<path d="M64.1036 22.7332L64.1033 22.7333C63.0378 23.1029 62.336 21.7444 61.8923 20.7076C58.1836 12.04 49.746 6.44951 40.158 4.91322C38.7114 4.68142 37.2279 4.56092 35.7169 4.56092C21.5925 4.56092 9.88171 15.0856 8.02601 28.6975C8.01424 28.784 8.08202 28.8614 8.1692 28.8614H10.9311C11.5487 28.8614 11.8891 29.5651 11.5013 30.0362L6.83886 35.6929L6.3326 35.9619C6.03962 36.3181 5.48669 36.3181 5.1937 35.9619L0.857272 30.058C0.468064 29.587 0.241146 29.0863 0.857272 29.0863L2.43406 28.8613H3.57813C3.6508 28.8613 4.77261 28.2418 4.78094 28.1696C5.60847 20.9912 8.26298 15.3326 13.4531 10.147C19.5382 4.06616 27.1127 0.296875 35.7169 0.296875C44.3225 0.296875 52.4126 3.64463 58.4963 9.72546C61.4616 12.6872 63.7767 16.1251 65.3723 19.8663C65.8596 21.009 65.2776 22.326 64.1036 22.7332Z" fill="#C4C4C4"/>
<path d="M64.1036 22.7332L64.1033 22.7333C63.0378 23.1029 62.336 21.7444 61.8923 20.7076C58.1836 12.04 49.746 6.44951 40.158 4.91322C38.7114 4.68142 37.2279 4.56092 35.7169 4.56092C21.5925 4.56092 9.88171 15.0856 8.02601 28.6975C8.01424 28.784 8.08202 28.8614 8.1692 28.8614H10.9311C11.5487 28.8614 11.8891 29.5651 11.5013 30.0362L6.83886 35.6929L6.3326 35.9619C6.03962 36.3181 5.48669 36.3181 5.1937 35.9619L0.857272 30.058C0.468064 29.587 0.241146 29.0863 0.857272 29.0863L2.43406 28.8613H3.57813C3.6508 28.8613 4.77261 28.2418 4.78094 28.1696C5.60847 20.9912 8.26298 15.3326 13.4531 10.147C19.5382 4.06616 27.1127 0.296875 35.7169 0.296875C44.3225 0.296875 52.4126 3.64463 58.4963 9.72546C61.4616 12.6872 63.7767 16.1251 65.3723 19.8663C65.8596 21.009 65.2776 22.326 64.1036 22.7332Z" fill="url(#paint1_linear_3153_124547)"/>
<path d="M36.7215 0.312673C28.4936 0.56257 20.7942 3.8816 14.9475 9.72546C9.81883 14.8498 6.63336 21.4002 5.76016 28.4821C5.73287 28.6975 5.55191 28.8613 5.33361 28.8613H3.57715C3.65039 28.8613 3.71071 28.8067 3.71933 28.7349C4.54658 21.5568 7.74641 14.9115 12.9368 9.72546C19.0219 3.64463 27.112 0.296875 35.7162 0.296875C35.9058 0.296875 36.0953 0.298311 36.2849 0.30262C36.4314 0.304056 36.5765 0.308365 36.7215 0.312673Z" fill="#F48931"/>
<path d="M64.4089 22.5971C64.3127 22.6488 64.2107 22.6934 64.103 22.7307C63.0373 23.1012 61.8726 22.5785 61.4288 21.5415C57.2854 11.8544 47.8123 4.96791 36.7148 4.57726C37.0509 4.56434 37.3884 4.55859 37.7274 4.55859C49.2528 4.55859 59.1726 11.5658 63.4395 21.5415C63.6405 22.0112 63.9881 22.3745 64.4089 22.5971Z" fill="#F48931"/>
<path d="M6.8393 35.6952L6.4027 36.2237C6.10972 36.5799 5.55678 36.5799 5.2638 36.2237L0.165329 30.0381C-0.223878 29.567 0.117935 28.8633 0.73406 28.8633H2.74473C2.1286 28.8633 1.78679 29.567 2.17599 30.0381L6.8393 35.6952Z" fill="#F48931"/>
<path d="M38.5993 30.5944C36.9651 30.0168 35.207 29.4341 33.7632 28.4511C33.5227 28.2873 33.288 28.0998 33.1434 27.8471C32.6608 27.0041 33.131 25.7632 33.7971 25.1628C34.4364 24.5866 35.2764 24.4701 36.1041 24.5063C36.9137 24.5418 37.7425 24.7754 38.3789 25.2933C39.2844 26.0302 40.6383 25.9428 41.4016 25.0594C42.1935 24.1428 42.0745 22.7593 41.1463 21.9906C40.3433 21.3258 39.22 20.7272 37.8864 20.416C37.8215 20.4009 37.7751 20.3438 37.7751 20.2771V18.5235C37.7751 17.3628 36.8824 16.3644 35.7228 16.3109C34.4856 16.2539 33.4665 17.2399 33.4665 18.4629V20.4324C33.4665 20.4961 33.4242 20.5513 33.363 20.5693C31.0158 21.2556 29.2563 23.2529 28.7843 25.7605C28.3515 28.0568 29.1027 30.2832 30.7447 31.571C32.0909 32.6269 33.9505 33.5208 37.1636 34.6567C39.269 35.4009 39.2235 37.1037 39.1062 37.8014C38.8676 39.2202 37.6741 40.7535 35.6174 40.767C33.5862 40.7802 32.9541 40.6802 31.3957 39.6608C30.3757 38.9933 28.9988 39.3031 28.3668 40.3591C27.765 41.3643 28.1183 42.6706 29.1011 43.3082C30.7023 44.3468 31.9104 44.7946 33.3401 44.9717C33.4121 44.9806 33.4667 45.0411 33.4667 45.1134V47.0431C33.4667 48.266 34.4859 49.252 35.7229 49.1951C36.8825 49.1417 37.7752 48.1432 37.7752 46.9825V44.8898C37.7752 44.8262 37.8175 44.7711 37.8785 44.7531C38.9999 44.4244 40.0229 43.848 40.902 43.0403C42.1928 41.8542 43.0641 40.2473 43.3553 38.5156C43.9473 34.9926 42.0363 31.8093 38.5993 30.5944Z" fill="white"/>
<defs>
<linearGradient id="paint0_linear_3153_124547" x1="36.3623" y1="12.293" x2="36.3623" y2="52.1472" gradientUnits="userSpaceOnUse">
<stop stop-color="#FECA2F"/>
<stop offset="1" stop-color="#FB8927"/>
</linearGradient>
<linearGradient id="paint1_linear_3153_124547" x1="33.0103" y1="0.296875" x2="33.0103" y2="36.2291" gradientUnits="userSpaceOnUse">
<stop stop-color="#FECA2F"/>
<stop offset="1" stop-color="#FB8927"/>
</linearGradient>
</defs>
</svg>
