<svg width="39" height="14" viewBox="0 0 39 14" fill="none" xmlns="http://www.w3.org/2000/svg">
<path fill-rule="evenodd" clip-rule="evenodd" d="M10.0734 13.1554H6.80209L4.34898 3.52133C4.23254 3.07816 3.98532 2.68638 3.62165 2.50173C2.7141 2.03769 1.71403 1.66838 0.623047 1.48212V1.11121H5.89294C6.62026 1.11121 7.16575 1.66838 7.25667 2.31547L8.52948 9.26482L11.7992 1.11121H14.9797L10.0734 13.1554ZM16.7985 13.1554H13.7089L16.253 1.11121H19.3425L16.7985 13.1554ZM23.3388 4.4464C23.4297 3.79771 23.9752 3.4268 24.6116 3.4268C25.6117 3.33367 26.7011 3.51993 27.6102 3.98236L28.1557 1.3892C27.2466 1.01829 26.2465 0.832031 25.339 0.832031C22.3403 0.832031 20.1584 2.50033 20.1584 4.8157C20.1584 6.57713 21.7039 7.50199 22.7949 8.05916C23.9752 8.61473 24.4298 8.98564 24.3389 9.5412C24.3389 10.3745 23.4297 10.7455 22.5222 10.7455C21.4312 10.7455 20.3402 10.4677 19.3417 10.0036L18.7962 12.5984C19.8872 13.0608 21.0675 13.2471 22.1585 13.2471C25.5208 13.3386 27.6102 11.6719 27.6102 9.17029C27.6102 6.01996 23.3388 5.83531 23.3388 4.4464ZM38.4226 13.1554L35.9695 1.11121H33.3345C32.789 1.11121 32.2435 1.48212 32.0617 2.03769L27.5191 13.1554H30.6996L31.3344 11.3955H35.2421L35.6058 13.1554H38.4226ZM33.79 4.35593L34.6976 8.89517H32.1536L33.79 4.35593Z" fill="#172B85"/>
</svg>
