<svg width="18" height="18" viewBox="0 0 18 18" fill="none" xmlns="http://www.w3.org/2000/svg">
    <path d="M9 16.9952C6.87827 16.9952 4.84344 16.1526 3.34315 14.6528C1.84285 13.1529 1 11.1187 1 8.9976C1 6.8765 1.84285 4.84228 3.34315 3.34244C4.84344 1.8426 6.87827 1 9 1C13.4178 1 17 4.18304 17 8.10898C17 9.05092 16.5787 9.95553 15.8284 10.622C15.0782 11.2885 14.0604 11.6635 13 11.6635H10.7778C10.3812 11.6571 9.99389 11.7834 9.67744 12.0225C9.36099 12.2615 9.13358 12.5994 9.03138 12.9825C8.92919 13.3657 8.95808 13.7719 9.11346 14.1367C9.26885 14.5015 9.54179 14.8039 9.88889 14.9958C10.0664 15.1595 10.1881 15.3747 10.2369 15.6111C10.2858 15.8476 10.2593 16.0934 10.1612 16.314C10.0631 16.5346 9.89838 16.7189 9.6901 16.8411C9.48182 16.9633 9.24049 17.0172 9 16.9952Z" stroke="#8C8C8C" stroke-linecap="round" stroke-linejoin="round"/>
    <path d="M5 7.66467C5 7.90034 5.09365 8.12637 5.26035 8.29302C5.42705 8.45966 5.65314 8.55329 5.88889 8.55329C6.12464 8.55329 6.35073 8.45966 6.51743 8.29302C6.68413 8.12637 6.77778 7.90034 6.77778 7.66467C6.77778 7.42899 6.68413 7.20296 6.51743 7.03631C6.35073 6.86967 6.12464 6.77604 5.88889 6.77604C5.65314 6.77604 5.42705 6.86967 5.26035 7.03631C5.09365 7.20296 5 7.42899 5 7.66467Z" stroke="#8C8C8C" stroke-linecap="round" stroke-linejoin="round"/>
    <path d="M8.55556 4.9988C8.55556 5.23448 8.64921 5.4605 8.81591 5.62715C8.9826 5.7938 9.2087 5.88742 9.44444 5.88742C9.68019 5.88742 9.90628 5.7938 10.073 5.62715C10.2397 5.4605 10.3333 5.23448 10.3333 4.9988C10.3333 4.76312 10.2397 4.5371 10.073 4.37045C9.90628 4.2038 9.68019 4.11018 9.44444 4.11018C9.2087 4.11018 8.9826 4.2038 8.81591 4.37045C8.64921 4.5371 8.55556 4.76312 8.55556 4.9988Z" stroke="#8C8C8C" stroke-linecap="round" stroke-linejoin="round"/>
    <path d="M12.1111 7.66467C12.1111 7.90034 12.2048 8.12637 12.3715 8.29302C12.5382 8.45966 12.7643 8.55329 13 8.55329C13.2357 8.55329 13.4618 8.45966 13.6285 8.29302C13.7952 8.12637 13.8889 7.90034 13.8889 7.66467C13.8889 7.42899 13.7952 7.20296 13.6285 7.03631C13.4618 6.86967 13.2357 6.77604 13 6.77604C12.7643 6.77604 12.5382 6.86967 12.3715 7.03631C12.2048 7.20296 12.1111 7.42899 12.1111 7.66467Z" stroke="#8C8C8C" stroke-linecap="round" stroke-linejoin="round"/>
</svg>
