<svg width="156" height="156" viewBox="0 0 156 156" fill="none" xmlns="http://www.w3.org/2000/svg">
<g id="Illustration/Food">
<g id="Group">
<path id="Blob" fill-rule="evenodd" clip-rule="evenodd" d="M85.5212 13.52C121.992 13.52 129.67 64.0635 129.819 64.4794C129.973 64.9079 130.118 65.3489 130.258 65.777C130.543 66.6463 130.908 67.4833 131.193 68.3469C131.367 68.8738 131.687 69.3102 131.901 69.8077C132.317 70.7583 132.827 71.6653 133.423 72.5152C133.669 72.8518 133.862 73.2238 133.996 73.6184C134.09 73.9203 134.402 74.0009 134.536 74.2674C134.754 74.6988 135.045 75.0931 135.296 75.5073C135.353 75.653 135.485 75.7565 135.64 75.7782L135.591 76.1895C135.682 76.3376 135.713 76.1373 135.808 76.1726C135.927 76.333 136.097 76.4756 136.114 76.72C136.13 76.9496 136.398 76.9713 136.49 77.1716C136.691 77.6065 137.251 77.8282 137.242 78.3988C137.644 78.6512 137.842 79.0847 138.146 79.4248C138.302 79.5814 138.397 79.7876 138.415 80.0065L138.417 80.0572C138.415 80.2749 138.835 80.226 138.722 80.523C139.366 81.006 139.533 81.795 139.873 82.4486C140.418 83.4976 141.046 84.5109 141.416 85.6595C141.601 86.234 141.961 86.7774 142.16 87.3592C142.61 88.6669 143.149 89.9461 143.441 91.308C143.562 91.8706 143.808 92.4064 143.923 92.9706L144.056 93.6226C144.254 94.601 144.442 95.5818 144.566 96.5733C144.63 96.797 144.63 97.0341 144.566 97.2578C144.459 97.5123 144.744 97.6754 144.767 97.9307C144.795 98.2337 144.674 98.5206 144.761 98.8422C144.809 99.0194 144.761 99.304 144.817 99.5096C144.996 100.178 144.769 100.868 144.964 101.532C144.994 101.788 144.967 102.049 144.885 102.294C144.75 103.111 144.997 103.946 144.75 104.744C144.635 105.138 144.613 105.552 144.686 105.955L144.716 106.11C144.738 106.225 144.752 106.337 144.696 106.415C144.472 106.722 144.529 107.083 144.485 107.418L144.476 107.474C144.412 107.849 144.478 108.243 144.365 108.625C144.21 109 144.123 109.399 144.108 109.803C144.166 110.49 143.934 111.106 143.793 111.743C143.722 112.062 143.781 112.44 143.43 112.677C143.252 112.797 143.673 113.031 143.418 113.208L143.388 113.226C143.2 113.332 143.209 113.502 143.261 113.707C143.31 113.893 142.983 114.022 143.077 114.213C143.17 114.404 143.212 114.682 143.103 114.717C142.831 114.807 143.108 115.103 142.879 115.159C142.857 115.171 142.841 115.193 142.837 115.218C142.759 115.935 142.297 116.524 142.183 117.241C142.097 117.668 141.93 118.076 141.692 118.442C141.495 118.796 141.327 119.165 141.191 119.546C140.935 120.187 140.497 120.722 140.25 121.359C140.183 121.532 139.736 121.474 139.963 121.828C139.702 121.92 139.781 122.191 139.677 122.359C139.561 122.487 139.426 122.596 139.278 122.682C139.181 123.062 138.997 123.413 138.739 123.708C138.288 124.367 137.797 124.997 137.267 125.594L136.829 126.084C136.243 126.738 135.639 127.378 134.868 127.828C134.67 127.944 134.76 128.164 134.597 128.283C133.651 128.981 132.78 129.773 131.704 130.302C131.254 130.524 130.868 130.917 130.408 131.148C129.535 131.586 128.725 132.131 127.792 132.472L127.626 132.53C127.032 132.728 126.447 133.027 125.844 133.245C124.605 133.732 123.312 134.068 121.992 134.246L121.178 134.336C120.454 134.416 119.73 134.49 118.999 134.51C118.653 134.519 118.321 134.409 118.004 134.449C117.696 134.488 117.383 134.463 117.085 134.375C116.849 134.309 116.65 134.512 116.396 134.403C116.201 134.281 115.96 134.263 115.75 134.352L115.709 134.371C115.588 134.44 115.352 134.312 115.168 134.27C114.901 134.233 114.638 134.168 114.385 134.077C114.188 133.986 113.937 134.278 113.8 133.967C113.552 134.16 96.6551 130.145 81.1339 138.299C79.8699 139.136 78.3909 139.504 77.0403 140.154C76.4124 140.457 75.7066 140.596 75.0307 140.802L74.8864 140.848C73.6934 141.233 72.4698 141.497 71.2481 141.771C70.1257 142.015 68.9884 142.184 67.8436 142.277C67.0206 142.352 66.1937 142.386 65.3727 142.476C65.0397 142.512 64.7133 142.278 64.3876 142.479C63.6556 142.28 62.8871 142.522 62.1571 142.297C61.6716 142.44 61.2155 142.262 60.7692 142.131C60.4287 142.03 60.1077 142.239 59.7636 142.091C59.4504 141.927 59.0995 141.849 58.7464 141.865C58.1603 141.955 57.6502 141.74 57.1163 141.626C55.8758 141.362 54.6398 141.076 53.4083 140.769C53.0049 140.668 52.5519 140.707 52.2063 140.399C51.9032 140.128 51.4248 140.298 51.1269 139.978C51.0182 139.862 50.8795 140.087 50.7157 139.999C50.3964 139.828 49.9859 139.941 49.6875 139.632C49.4664 139.403 49.0492 139.558 48.8045 139.281L48.7722 139.241C48.6278 139.04 48.2466 139.513 48.1338 139.066C47.6784 139.031 47.3009 138.783 46.8953 138.613C46.5593 138.472 46.1628 138.552 45.8595 138.259C45.6012 138.01 45.1128 138.193 44.889 137.819C44.3415 137.815 43.9377 137.405 43.4159 137.297C43.0197 137.193 42.6394 137.037 42.2849 136.832C41.723 136.543 41.1524 136.271 40.5776 136.012C40.3713 135.917 40.1706 135.809 39.9762 135.691C39.8672 135.628 39.8407 135.486 39.685 135.452C38.6993 135.234 37.8703 134.659 37.0283 134.157C36.5482 133.909 36.0888 133.623 35.6545 133.301L35.5107 133.193C35.3836 133.084 35.1196 133.03 35.0079 132.878C34.6963 132.455 34.2303 132.248 33.8078 131.994L33.7378 131.951C33.4997 131.811 33.2833 131.637 33.0954 131.434C33.0598 131.395 33.0453 131.312 33.0076 131.303C32.3061 131.129 31.8876 130.55 31.3513 130.145C30.89 129.797 30.4865 129.373 30.0322 129.018L29.8593 128.888C28.7963 128.128 17.1645 115.329 15.8465 113.12L15.4693 112.488C15.0926 111.855 14.7203 111.217 14.3775 110.566L14.0856 110.012C13.7941 109.457 13.5072 108.898 13.2536 108.33L12.9143 107.571C12.2372 106.051 11.5747 104.525 11.0101 102.957C10.5066 101.557 10.0897 100.135 9.6689 98.7116C9.39935 97.7976 9.17159 96.8796 8.97917 95.9484C8.67175 94.4603 8.39763 92.9661 8.15679 91.4659C7.93217 90.0533 8.01526 88.6201 7.71529 87.2236C7.91182 86.3659 7.5505 85.4956 7.77485 84.6389C7.60842 84.216 7.75476 83.7769 7.77041 83.3601C7.78645 82.9296 7.68989 82.4787 7.86179 82.0425C7.94053 81.8444 7.75851 81.6062 7.85713 81.3642C7.9654 81.1628 7.97789 80.9237 7.8912 80.7122C8.18346 80.5779 7.8351 80.371 7.95647 80.1796C8.08732 79.9719 8.14513 79.7266 8.12075 79.4825C8.03564 78.9359 8.35044 78.4313 8.29517 77.9376C8.23755 77.4327 8.4869 77.0047 8.48611 76.5522L8.4829 76.467C8.43986 75.873 8.86454 75.4257 8.8787 74.8637C8.88004 74.8144 8.99628 74.7691 9.06 74.7202C9.03956 74.5938 8.89976 74.6224 8.80059 74.5241C8.9589 74.3867 9.09743 74.2281 9.21222 74.0528C9.29911 73.8124 9.36082 73.5637 9.39636 73.3106L8.99379 72.7913C9.14235 72.4942 9.09055 72.224 9.28889 71.9911C9.37522 71.8893 9.32708 71.5782 9.33774 71.3634C9.35179 71.0813 9.71432 70.9132 9.62686 70.6905C9.5594 70.4342 9.58126 70.1627 9.68883 69.9204C10.2075 67.6339 10.7358 65.3496 11.2737 63.0675C11.3303 62.8229 11.2811 62.5152 11.5821 62.3719C11.2532 62.0324 11.7697 61.9138 11.7778 61.6446C11.8197 61.393 11.9167 61.1537 12.0618 60.9437C12.2672 60.5508 12.2861 60.0632 12.4031 59.6205C12.434 59.3075 12.5525 59.0095 12.7452 58.7607C12.9456 58.5532 12.9167 58.1918 13.0676 57.9004C13.2808 57.5484 13.446 57.1695 13.5589 56.7739C13.5929 56.4896 13.7062 56.2206 13.8859 55.9975C14.0455 55.8213 13.9145 55.4564 14.2247 55.3235C14.3117 54.8121 14.617 54.4014 14.8431 53.9534L14.8844 53.8689C15.4397 52.7159 16.0638 51.5972 16.7533 50.5189C17.3262 49.6114 17.8836 48.6942 18.4652 47.7923C18.6544 47.5013 18.8556 47.2112 19.0637 46.9348C19.7865 45.9184 20.565 44.9426 21.3958 44.0119C22.1555 43.2068 22.8798 42.3655 23.6775 41.5913C24.1016 41.1795 24.4486 40.6738 24.8604 40.2363C25.8306 39.2037 26.827 38.1991 27.875 37.2456C28.76 36.3713 29.7278 35.5846 30.7649 34.8967C31.0468 34.7253 31.2787 34.4739 31.5509 34.2841C31.8813 34.1021 32.1983 33.8969 32.4996 33.6701C32.8501 33.3404 33.2802 33.1308 33.6342 32.8254C33.9091 32.5884 34.3487 32.7235 34.5454 32.2973C34.6887 31.9872 35.2254 32.1008 35.4061 31.7384C35.9014 31.722 36.1328 31.2423 36.5826 31.0847L36.6426 31.066C37.1165 30.9367 37.5211 30.5541 37.9559 30.2829C38.3753 29.9859 38.8142 29.7172 39.2695 29.4788C40.1244 29.0938 40.8623 28.5073 41.6979 28.1096C42.4946 27.731 43.2116 27.1768 44.0806 26.9657C44.2859 26.916 44.2476 26.735 44.3889 26.6577C44.5359 26.5769 44.6969 26.6304 44.8297 26.5372C45.3792 26.1787 49.0504 13.52 85.5212 13.52Z" fill="#FF9797"/>
<path id="Shape" fill-rule="evenodd" clip-rule="evenodd" d="M44.3817 40.6533C43.1618 41.3416 41.3755 40.4636 41.1752 39.0773C41.9533 39.0357 42.7851 38.9751 43.4002 38.4967C44.0153 38.0184 44.2306 36.9592 43.614 36.4828C38.5942 35.8663 33.7108 34.1607 29.3987 31.5178C32.3431 30.6306 34.8767 28.7592 37.6423 27.4145C40.4079 26.0699 43.753 25.2746 46.5113 26.6343C49.2197 27.9694 52.3376 26.2664 55.1639 25.2033C60.0784 23.3548 65.7138 23.5097 70.5193 25.6256C74.0252 27.1693 79.9662 24.6637 83.7536 24.089C89.9403 23.1503 95.9797 27.4864 102.192 26.7355C101.525 27.1761 100.859 27.6168 100.193 28.0574C100.849 27.9975 101.509 27.9732 102.168 27.9848C97.0123 30.4519 91.8568 32.9189 86.7012 35.386C88.0073 35.9143 89.3133 36.4426 90.6194 36.9709C90.3124 37.9551 89.2117 38.6199 88.1976 38.4336C89.0136 39.0829 89.8296 39.7323 90.6456 40.3817C89.7746 41.0003 88.6722 41.2845 87.6107 41.1641C88.7412 41.894 89.6743 42.9267 90.2862 44.1252C92.9793 43.228 95.9294 43.1176 98.682 43.8108C96.195 44.1369 93.708 44.463 91.221 44.789C91.5965 45.8116 91.9721 46.8342 92.3476 47.8568C95.5967 47.1132 99.0495 47.2822 102.21 48.3396C99.0761 48.4194 95.9417 48.4991 92.8074 48.5789C92.7341 52.7373 90.6639 56.978 87.0288 58.9988C83.3937 61.0197 76.1298 62.8165 73.7238 56.9326C71.8818 58.1415 72.0123 61.0474 73.3256 62.8165C74.6389 64.5856 76.7253 65.5647 78.6124 66.702C84.8806 70.4796 89.6083 76.7356 91.5314 83.7969C93.4544 90.8583 92.5516 98.6476 89.0645 105.082C93.7659 105.813 98.1347 108.488 100.922 112.344C106.926 109.551 110.25 103.177 114.849 98.4134C120.08 92.9941 127.301 89.5399 134.802 88.8681C139.241 88.4707 144.303 89.3265 146.892 92.9536C150.257 97.668 147.154 104.998 141.783 107.165C137.525 108.883 132.722 108.019 128.142 108.344C118.932 108.997 110.846 114.427 103.252 119.679C102.942 121.379 103.564 123.22 104.841 124.384C107.557 121.576 110.984 119.461 114.712 118.29C116.089 117.858 118.155 117.971 118.308 119.407C118.366 119.95 118.08 120.466 117.79 120.929C115.305 124.913 111.801 128.256 107.704 130.55C105.542 131.761 103.125 132.7 100.65 132.561C98.1758 132.423 95.6558 130.994 94.8153 128.663C94.4258 127.582 94.3836 126.332 93.646 125.451C92.3981 123.962 90.0009 124.408 88.2517 125.254C86.5024 126.1 84.6377 127.25 82.7606 126.748C78.0681 125.493 73.1846 124.955 68.3314 125.158C62.1508 125.417 55.8533 126.856 49.8652 125.304C47.8648 124.785 45.6262 123.967 43.8541 125.03C40.3618 127.125 42.7173 133.832 39.1345 135.768C37.8654 136.454 36.3101 136.201 34.91 135.853C28.7229 134.318 22.9195 131.26 18.1548 127.025C17.6956 126.617 17.2225 126.158 17.0938 125.557C16.7077 123.755 19.3675 123.006 21.1798 123.339C24.2585 123.906 27.2029 125.189 29.7137 127.059C30.5939 127.714 31.9331 126.95 32.306 125.918C32.6789 124.886 32.4223 123.749 32.2768 122.661C31.3576 115.792 35.6675 108.569 42.1498 106.116C38.2251 100.388 36.7327 93.05 38.1087 86.2446C39.4846 79.4393 43.7106 73.2571 49.5521 69.5043C51.8857 68.0052 54.5668 66.779 56.054 64.4378C57.5412 62.0966 56.8884 58.1688 54.1678 57.629C51.6044 60.4052 47.435 61.5795 43.7995 60.549C40.1641 59.5186 37.2309 56.3312 36.5055 52.6228C34.0925 53.4377 31.6796 54.2526 29.2666 55.0675C31.4083 53.417 33.9447 52.2821 36.6025 51.7851C36.8576 50.6798 37.1127 49.5746 37.3678 48.4693C32.7636 48.1723 28.0945 48.93 23.8205 50.6679C26.4505 48.6882 29.7968 47.6822 33.0825 47.8834C36.4244 48.0882 39.8216 46.453 41.7463 43.7133C40.5421 43.2899 39.4598 42.5256 38.6581 41.5324C39.8862 40.8658 41.3736 40.693 42.7218 41.0604M68.0014 113.143C67.7822 113.356 67.5464 113.609 67.5619 113.915C67.5773 114.22 68.0356 114.448 68.1937 114.186C69.0565 112.757 70.5571 111.729 72.2016 111.442C73.8462 111.154 75.6066 111.611 76.9037 112.662C77.3562 113.029 77.7602 113.467 78.2772 113.735C78.4633 113.832 78.7818 113.834 78.7895 113.625C78.7921 113.556 78.7527 113.493 78.714 113.436C77.7827 112.064 76.3899 111.01 74.8156 110.487C73.4357 110.028 71.8366 109.999 70.6024 110.768C70.1542 111.047 69.772 111.419 69.3936 111.787C68.9295 112.239 68.4654 112.691 68.0014 113.143ZM61.3092 110.645C59.5225 110.409 57.599 111.008 56.4092 112.362C56.1994 112.6 56.0089 112.869 55.9367 113.178C55.8645 113.488 55.9324 113.846 56.1721 114.054C57.0924 112.624 58.7279 111.681 60.4264 111.601C62.1249 111.521 63.8419 112.306 64.8928 113.643C65.0571 113.852 65.2138 114.08 65.4471 114.208C65.6803 114.336 66.0198 114.319 66.1618 114.094C66.3313 113.826 66.1263 113.482 65.9171 113.244C64.73 111.888 63.0958 110.881 61.3092 110.645ZM73.9119 108.816C73.8842 109.118 74.2833 109.306 74.5701 109.207C74.8569 109.108 75.047 108.844 75.239 108.609C76.8363 106.655 79.8776 106.067 82.0883 107.283C82.3782 107.039 82.3948 106.569 82.2007 106.243C82.0067 105.917 81.6524 105.716 81.2909 105.601C80.5078 105.35 79.6577 105.436 78.8519 105.599C76.9449 105.985 75.0185 106.889 74.016 108.556C73.9675 108.637 73.9204 108.722 73.9119 108.816ZM66.4145 115.153C65.6308 115.208 64.8637 115.415 64.13 115.696C63.1159 116.084 62.1175 116.649 61.5239 117.559C62.3944 117.805 63.2289 117.156 64.0241 116.725C65.8079 115.756 68.1217 115.857 69.8153 116.975C70.3467 117.326 71.0294 117.779 71.5475 117.409C70.3354 115.889 68.3536 115.019 66.4145 115.153ZM69.6345 114.663C70.2289 114.353 70.7042 113.85 71.2938 113.531C72.106 113.092 73.1176 113.042 73.9695 113.397C74.4322 113.591 74.8417 113.893 75.2976 114.102C75.7535 114.31 76.2964 114.419 76.7505 114.206C76.801 114.183 76.8531 114.152 76.8744 114.1C76.9089 114.017 76.8476 113.927 76.788 113.859C75.7718 112.699 74.1794 112.07 72.6449 112.223C71.1103 112.376 69.6736 113.307 68.9067 114.645C69.0667 114.856 69.3998 114.786 69.6345 114.663ZM57.729 114.719C58.0475 114.537 58.2966 114.258 58.5879 114.035C59.1702 113.59 59.9288 113.386 60.6566 113.47C61.4677 113.564 62.1991 113.994 62.8699 114.459C63.0661 114.596 63.2662 114.739 63.4989 114.793C63.7315 114.847 64.0086 114.788 64.1402 114.589C64.2704 114.392 64.2181 114.117 64.0788 113.926C63.9395 113.735 63.7303 113.61 63.5265 113.49C62.6975 113.004 61.8213 112.518 60.8614 112.468C59.6616 112.406 58.5463 113.032 57.5086 113.637C57.0878 113.883 56.6045 114.255 56.6936 114.734C56.9817 114.961 57.4105 114.9 57.729 114.719ZM63.1327 110.068C63.3492 110.348 63.7734 110.047 64.0125 109.786C64.7491 108.981 65.8109 108.483 66.9007 108.431C67.9905 108.378 69.0952 108.773 69.9055 109.503C70.1099 109.687 70.3255 109.905 70.6006 109.913C70.8756 109.92 71.1235 109.536 70.9053 109.368C69.7371 108.471 68.3778 107.737 66.9079 107.641C65.4379 107.544 63.8536 108.203 63.173 109.51C63.0818 109.685 63.012 109.911 63.1327 110.068ZM76.1298 109.822C76.3238 109.74 76.466 109.573 76.6145 109.424C77.7456 108.286 79.6617 108.031 81.0504 108.835C81.3978 109.036 81.9201 109.257 82.1219 108.91C82.2902 108.621 81.9902 108.285 81.7041 108.111C79.8363 106.979 77.1737 107.41 75.759 109.075C75.6149 109.244 75.4767 109.477 75.5757 109.676C75.6694 109.864 75.9358 109.904 76.1298 109.822ZM77.1624 109.929C77.0822 109.996 77.0021 110.071 76.9683 110.17C76.8739 110.447 77.21 110.705 77.5013 110.682C77.7926 110.659 78.0402 110.472 78.3045 110.347C78.9489 110.043 79.7233 110.116 80.3774 110.398C80.6361 110.51 80.8868 110.654 81.1656 110.696C81.4443 110.738 81.7695 110.646 81.8964 110.394C80.788 109.02 78.5171 108.797 77.1624 109.929ZM59.6366 109.402C59.802 109.479 60.0277 109.464 60.1341 109.316C60.2789 109.114 60.1238 108.839 59.9702 108.643C59.4499 107.982 58.8903 107.331 58.1753 106.887C57.4602 106.443 56.5596 106.23 55.7632 106.502C55.6823 106.796 56.0483 106.996 56.3364 107.096C57.4457 107.483 58.4525 108.16 59.2295 109.041C59.3503 109.178 59.4711 109.324 59.6366 109.402ZM69.4392 110.14C68.1301 109.305 66.3433 109.29 65.0207 110.103C64.7908 110.245 64.5546 110.443 64.5368 110.713C64.5189 110.982 64.8845 111.232 65.0658 111.032C65.7965 110.227 67.1315 110.059 68.0382 110.66C68.4833 110.955 69.1226 110.915 69.5273 110.566C69.7184 110.546 69.6012 110.243 69.4392 110.14ZM78.9621 114.657C77.102 114.531 75.3712 115.626 74.021 116.911C74.1193 117.139 74.4545 117.078 74.6817 116.98C76.2192 116.315 77.7568 115.649 79.2943 114.984C79.4099 114.831 79.1533 114.67 78.9621 114.657ZM61.2592 115.485C61.4879 115.615 61.712 115.791 61.9749 115.792C62.2379 115.792 62.4986 115.475 62.3318 115.272C61.8066 114.632 60.9811 114.249 60.1529 114.261C59.3248 114.274 58.5114 114.682 58.006 115.338C58.0683 115.577 58.3601 115.686 58.604 115.651C58.8479 115.615 59.0627 115.478 59.2888 115.38C59.9144 115.109 60.6662 115.149 61.2592 115.485ZM70.4828 115.311C70.462 115.494 70.6695 115.634 70.8535 115.624C71.0376 115.614 71.1993 115.506 71.3607 115.417C72.0382 115.044 72.8727 114.967 73.6068 115.211C74.0773 115.367 74.6643 115.623 75.0038 115.262C75.0336 115.055 74.8265 114.9 74.6425 114.802C73.9831 114.451 73.2572 114.186 72.5102 114.193C71.7633 114.2 70.9926 114.513 70.5662 115.127C70.5273 115.182 70.4906 115.243 70.4828 115.311ZM69.0945 107.274C69.8634 107.549 70.5795 107.971 71.193 108.51C71.4459 108.732 71.6881 108.978 71.9949 109.117C72.3017 109.256 72.7 109.259 72.9401 109.023C72.4088 108.616 71.9723 108.085 71.6746 107.485C71.5142 107.162 71.0868 107.103 70.7265 107.086C70.1999 107.06 69.6733 107.034 69.1467 107.008C69.0911 107.083 69.0714 107.183 69.0945 107.274ZM62.2264 109.123C62.4982 108.869 62.6988 108.549 62.95 108.274C63.3396 107.849 63.8526 107.538 64.41 107.389C64.6505 107.325 64.9667 107.202 64.9303 106.956C64.2491 106.837 63.4717 106.742 62.9344 107.177C62.1819 107.787 61.5853 108.587 61.2162 109.483C61.5795 109.563 61.9545 109.377 62.2264 109.123ZM56.1704 108.814C56.6586 109.132 57.1469 109.451 57.6351 109.769C57.8418 109.903 58.1057 110.041 58.3201 109.919C58.5191 109.806 58.5495 109.514 58.4458 109.31C58.3421 109.106 58.1443 108.97 57.9544 108.842C57.5569 108.574 57.1594 108.306 56.7619 108.039C56.429 107.815 55.8867 107.636 55.7057 107.994C55.5495 108.303 55.8805 108.625 56.1704 108.814ZM66.4504 112.639C66.6372 112.824 66.8989 113.024 67.1363 112.911C67.2445 112.859 67.3142 112.752 67.3784 112.651C67.59 112.316 67.8017 111.982 68.0133 111.647C67.4592 111.031 66.3713 111.015 65.7988 111.614C65.7548 111.66 65.7119 111.713 65.7041 111.776C65.6916 111.876 65.769 111.962 65.8406 112.034C66.0438 112.235 66.2471 112.437 66.4504 112.639ZM57.9065 117.422C58.3036 117.561 58.7722 117.603 59.1224 117.369C58.5952 116.763 57.9773 116.236 57.2957 115.81C57.1023 115.69 56.8843 115.573 56.6586 115.605C56.433 115.637 56.2332 115.894 56.3425 116.094C56.6779 116.708 57.2464 117.191 57.9065 117.422ZM79.6908 112.549C79.8784 112.322 80.0661 112.095 80.2537 111.869C80.3184 111.79 80.3866 111.702 80.3826 111.601C80.3775 111.472 80.2597 111.38 80.1476 111.317C79.7576 111.098 79.2972 111.006 78.8531 111.059C78.6832 111.08 78.5062 111.126 78.3868 111.249C78.2674 111.371 78.233 111.589 78.3531 111.71C78.6255 111.986 78.8979 112.262 79.1703 112.538C79.2594 112.628 79.3722 112.726 79.496 112.699C79.5778 112.682 79.6374 112.613 79.6908 112.549ZM60.1108 107.65C60.2791 107.831 60.4905 108.017 60.737 107.997C61.2655 107.953 61.4358 107.041 61.9638 107.091C62.1055 106.857 61.7187 106.67 61.4455 106.666C60.7383 106.655 60.0312 106.644 59.324 106.632C59.5548 106.994 59.8185 107.336 60.1108 107.65ZM64.4782 117.59C65.9492 117.583 67.4202 117.577 68.8912 117.57C68.7622 117.28 68.4171 117.162 68.1057 117.097C67.085 116.885 66.0145 116.918 65.0084 117.19C64.7831 117.252 64.526 117.361 64.4782 117.59ZM73.5608 116.042C73.0742 116.064 72.5875 116.086 72.1008 116.108C71.9436 116.115 71.742 116.16 71.7226 116.316C71.714 116.386 71.749 116.453 71.7829 116.515C71.9116 116.748 72.0485 116.991 72.271 117.139C72.4935 117.286 72.8284 117.3 73.0016 117.097C73.1343 116.942 73.1447 116.699 73.3029 116.569C73.4049 116.486 73.5463 116.469 73.6591 116.401C73.7719 116.333 73.8437 116.156 73.7391 116.075C73.6901 116.038 73.6226 116.039 73.5608 116.042ZM60.9585 116.856C61.0886 116.653 60.9656 116.366 60.763 116.235C60.5604 116.105 60.3071 116.089 60.0664 116.077C59.8006 116.064 59.4505 116.113 59.4028 116.375C59.3801 116.499 59.4436 116.622 59.505 116.733C59.6854 117.059 59.9508 117.432 60.3213 117.395C60.6085 117.367 60.8029 117.099 60.9585 116.856ZM80.185 113.937C80.4034 113.955 80.5993 113.807 80.7525 113.65C81.2199 113.173 81.5172 112.531 81.58 111.866C81.4253 111.767 81.2361 111.92 81.1176 112.061C80.7196 112.531 80.3216 113.002 79.9236 113.472C79.7821 113.64 79.9666 113.919 80.185 113.937ZM55.8384 110.603C56.0603 110.881 56.4884 110.968 56.8012 110.799C56.9614 110.712 57.0965 110.541 57.0647 110.361C57.0364 110.202 56.8911 110.094 56.7571 110.002C56.5636 109.87 56.37 109.738 56.1765 109.606C56.1174 109.566 56.0494 109.524 55.9794 109.538C55.9311 109.548 55.8923 109.584 55.8599 109.621C55.626 109.889 55.6164 110.325 55.8384 110.603ZM73.0271 107.672C73.2595 107.867 73.6039 107.665 73.8346 107.468C74.0848 107.254 74.3351 107.04 74.5854 106.826C74.4437 106.691 74.2174 106.722 74.0256 106.761C73.4683 106.876 72.9111 106.992 72.3539 107.107C72.5783 107.295 72.8027 107.483 73.0271 107.672ZM81.7776 104.938C81.9179 105.113 82.2133 105.075 82.3741 104.919C82.5349 104.763 82.5943 104.533 82.6404 104.313C82.6515 104.261 82.6619 104.204 82.6397 104.154C82.5836 104.03 82.3982 104.067 82.2741 104.125C81.9401 104.281 81.5469 104.651 81.7776 104.938Z" fill="white"/>
<path id="Shape_2" fill-rule="evenodd" clip-rule="evenodd" d="M38.1087 86.2448C39.4846 79.4394 44.1892 73.7425 50.0306 69.9897C47.0772 74.0385 38.0137 80.6778 40.9269 88.0748C45.5835 99.8986 63.6986 101.758 63.0684 101.887C52.3541 104.071 37.0842 91.3117 38.1087 86.2448Z" fill="#E7EAEE"/>
<g id="Food">
<path id="Combined Shape" fill-rule="evenodd" clip-rule="evenodd" d="M72.3802 27.1885C71.6349 27.2789 70.9782 27.8758 70.8172 28.6092C76.8508 25.3651 84.1384 24.5311 90.749 26.3282C90.7546 29.662 88.416 32.8684 85.2399 33.8817L78.3543 36.0784C80.1707 36.2798 82.0371 36.0135 83.7247 35.312C84.3242 36.2567 85.3119 36.9467 86.4053 37.1846L84.2887 37.6488C84.6007 38.5996 85.2379 39.4404 86.0689 39.998C85.3637 39.7564 84.579 39.754 83.8723 39.991L84.3461 41.7119C81.2252 41.279 77.8904 41.704 75.2618 43.4412C72.6331 45.1783 70.8679 48.3717 71.3416 51.4867C71.8959 48.1 74.2168 45.0529 77.3346 43.6187C80.4523 42.1845 84.2762 42.4048 87.2086 44.1875L85.2195 45.661C85.9834 45.9648 86.8886 45.8872 87.5897 45.4577C89.1208 46.1351 88.6968 48.9364 87.034 49.1304L89.2336 49.2833C89.6149 53.0238 87.3043 56.8811 83.8265 58.3098C80.3487 59.7386 75.9937 58.6197 73.6354 55.6915C70.708 57.1865 70.9132 61.7173 72.9995 64.2574C74.456 66.0305 76.4617 67.1825 78.4707 68.3363L78.4708 68.3363L78.4709 68.3364L78.471 68.3364L78.471 68.3365L78.4711 68.3365L78.4712 68.3366L78.4713 68.3366L78.4714 68.3367L78.4714 68.3367L78.4715 68.3367L78.4716 68.3368L78.4717 68.3368L78.4718 68.3369L78.4718 68.3369L78.4719 68.337L78.472 68.337L78.4721 68.3371L78.4722 68.3371L78.4722 68.3372L78.4723 68.3372L78.4724 68.3372L78.4725 68.3373L78.4726 68.3373L78.4726 68.3374L78.4727 68.3374L78.4728 68.3375L78.4729 68.3375L78.473 68.3376L78.473 68.3376L78.4731 68.3377L78.4732 68.3377L78.4733 68.3378L78.4734 68.3378L78.4734 68.3378C79.3414 68.8364 80.2101 69.3353 81.0352 69.8849C85.423 72.8075 88.6938 77.3652 90.0581 82.4577C87.6754 84.0531 85.5559 86.0407 83.8109 88.3162C86.3926 88.1958 88.921 87.1426 90.8247 85.3947L91.2312 89.327C89.1411 89.9707 87.2631 91.2845 85.942 93.0273C87.8047 93.217 89.7256 92.7819 91.3247 91.8081C90.7519 96.3327 89.7182 100.799 88.2447 105.115L83.4406 105.076C84.5804 101.926 85.7348 98.5373 84.8951 95.2946C84.0555 92.0519 80.2892 89.3752 77.3249 90.9349C80.7342 88.187 83.3159 84.4253 84.6539 80.2558L76.0686 91.3378L69.4804 91.3936C69.2732 88.2895 69.0739 85.108 69.9564 82.1248C70.8388 79.1416 73.0421 76.3489 76.0778 75.6686C76.4069 75.5949 76.7572 75.5349 77.1121 75.4741L77.1124 75.474L77.1125 75.474L77.1127 75.474L77.1127 75.474L77.1128 75.474L77.1128 75.474L77.1129 75.4739L77.1129 75.4739L77.113 75.4739L77.113 75.4739L77.1131 75.4739L77.1131 75.4739C78.5969 75.2197 80.1613 74.9517 80.597 73.6108C75.6758 73.3246 70.7429 76.4749 68.9328 81.06C67.643 84.3272 67.8703 87.9689 68.1174 91.4728C63.568 90.8167 58.9096 90.9222 54.3946 91.7835C53.6107 89.1117 52.7979 86.38 51.1537 84.1329C49.5096 81.8857 46.8404 80.1814 44.0698 80.4588C48.5317 81.1219 50.7419 86.08 52.4244 90.2654C54.1069 94.4508 57.1612 99.2314 61.653 98.8173C62.9323 98.6994 63.3395 100.801 62.3591 101.631C61.3786 102.461 59.9218 102.303 58.6668 102.028C52.2022 100.614 46.1666 97.2941 41.5098 92.5923C40.6031 91.6768 39.7263 90.6751 39.3073 89.4566C38.7904 87.9531 39.0312 86.2929 39.4757 84.7665C41.7465 76.9688 48.7347 71.6261 55.3759 66.9511C58.9489 64.4359 58.8207 58.2032 55.1474 55.8371C52.4282 58.308 48.8026 60.0358 45.1507 59.6327C41.4987 59.2296 38.0424 56.2394 37.9246 52.5672C39.0716 52.4661 40.1958 52.114 41.1955 51.5427C40.2142 51.194 39.1083 51.2089 38.1368 51.5839C37.8726 50.5942 38.0656 49.4921 38.6502 48.6511L40.7324 48.4286C40.3138 47.9553 39.73 47.6311 39.107 47.526C40.6096 45.022 44.0973 44.3367 46.8923 45.1828C49.6873 46.029 51.9509 48.0449 54.1165 50.004C51.8584 45.053 45.7352 43.4571 40.389 42.4425L42.7219 41.0604C41.3737 40.693 39.8862 40.8657 38.6581 41.5324C39.4599 42.5256 40.5421 43.2899 41.7463 43.7133C39.8216 46.453 36.4245 48.0882 33.0825 47.8834C29.7968 47.6822 26.4505 48.6882 23.8205 50.6679C28.0945 48.93 32.7636 48.1723 37.3678 48.4693L36.6026 51.7851C33.9447 52.2821 31.4083 53.417 29.2666 55.0675L36.5055 52.6228C37.2309 56.3312 40.1641 59.5186 43.7996 60.549C47.435 61.5795 51.6045 60.4052 54.1679 57.629C56.8885 58.1688 57.5412 62.0966 56.054 64.4378C54.8764 66.2916 52.9503 67.4463 51.0409 68.591C50.5388 68.892 50.038 69.1922 49.5521 69.5043C43.7107 73.2571 39.4846 79.4393 38.1087 86.2446C36.7328 93.05 38.2252 100.388 42.1499 106.116C35.6675 108.569 31.3576 115.792 32.2768 122.661C32.2979 122.819 32.3212 122.977 32.3447 123.136C32.4834 124.076 32.625 125.035 32.306 125.918C31.9332 126.95 30.594 127.714 29.7138 127.059C27.203 125.189 24.2585 123.906 21.1799 123.339C19.3675 123.006 16.7077 123.755 17.0938 125.557C17.2225 126.158 17.6956 126.617 18.1548 127.025C22.9195 131.26 28.7229 134.318 34.9101 135.853C36.3101 136.201 37.8655 136.454 39.1345 135.768C40.9413 134.792 41.2379 132.602 41.5359 130.403C41.8288 128.241 42.123 126.069 43.8541 125.03C45.4174 124.092 47.3437 124.618 49.1493 125.111C49.3905 125.177 49.6295 125.242 49.8652 125.304C54.1585 126.416 58.6109 125.992 63.0652 125.567H63.0653L63.0654 125.567C64.8236 125.399 66.5822 125.231 68.3314 125.158C73.1846 124.955 78.0681 125.493 82.7607 126.748C84.395 127.185 86.0199 126.37 87.5674 125.593L87.5679 125.593C87.7976 125.478 88.0256 125.363 88.2517 125.254C90.0009 124.408 92.3981 123.962 93.646 125.451C94.1395 126.04 94.3217 126.795 94.5049 127.553C94.5955 127.929 94.6864 128.305 94.8153 128.663C95.6558 130.994 98.1759 132.423 100.651 132.561C103.125 132.7 105.542 131.761 107.704 130.55C111.801 128.256 115.305 124.913 117.791 120.929C118.08 120.466 118.366 119.95 118.308 119.407C118.155 117.971 116.089 117.858 114.712 118.29C110.984 119.461 107.557 121.576 104.841 124.384C103.564 123.22 102.942 121.379 103.252 119.679C110.846 114.427 118.932 108.997 128.142 108.344C129.585 108.242 131.051 108.257 132.514 108.273H132.514H132.514H132.514H132.514H132.514H132.514H132.515H132.515H132.515H132.515H132.515H132.515H132.515H132.515H132.515H132.515H132.515H132.515H132.515H132.515H132.516H132.516H132.516H132.516H132.516H132.516H132.516H132.516H132.516H132.516H132.516H132.516H132.516H132.516C135.696 108.308 138.867 108.342 141.783 107.165C147.154 104.998 150.257 97.668 146.892 92.9536C144.303 89.3265 139.241 88.4707 134.802 88.8681C127.301 89.5399 120.08 92.9941 114.849 98.4134C113.395 99.9191 112.069 101.586 110.746 103.249L110.745 103.249C107.881 106.849 105.028 110.434 100.922 112.344C98.1347 108.488 93.766 105.813 89.0645 105.082C92.5517 98.6476 93.4544 90.8583 91.5314 83.7969C89.6084 76.7356 84.8806 70.4796 78.6124 66.702C78.2708 66.4961 77.9227 66.2954 77.5738 66.0943C75.9953 65.1843 74.4011 64.2653 73.3256 62.8165C72.0123 61.0474 71.8819 58.1415 73.7239 56.9326C76.1734 60.2938 81.3137 61.0197 84.9488 58.9988C88.5839 56.978 90.6541 52.7373 90.7274 48.5789L100.13 48.3396C96.9696 47.2822 93.5167 47.1132 90.2676 47.8568L89.141 44.789L96.602 43.8108C93.8494 43.1176 90.8993 43.228 88.2063 44.1252C87.5943 42.9267 86.6612 41.894 85.5307 41.1641C86.5922 41.2845 87.6946 41.0003 88.5656 40.3817L86.1177 38.4336C87.1318 38.6199 88.2324 37.9551 88.5394 36.9709L84.6213 35.386L100.088 27.9848C99.4288 27.9732 98.7691 27.9975 98.1126 28.0574L100.112 26.7355C97.0595 27.1044 94.0487 26.2452 91.0417 25.387C87.929 24.4987 84.8204 23.6116 81.6736 24.089C80.4374 24.2766 79.1934 24.6699 77.9564 25.0609C75.4036 25.8679 72.8809 26.6654 70.5193 25.6256C65.7138 23.5097 60.0784 23.3548 55.1639 25.2033C54.7293 25.3668 54.2879 25.5453 53.8421 25.7257L53.842 25.7257C51.3884 26.7183 48.8032 27.7641 46.5113 26.6343C43.753 25.2746 40.408 26.0699 37.6424 27.4145C36.6715 27.8865 35.7293 28.4235 34.7878 28.96C33.0473 29.9518 31.3095 30.9421 29.3987 31.5178C33.7109 34.1607 38.5942 35.8663 43.6141 36.4828C44.2307 36.9592 44.0153 38.0184 43.4002 38.4967C42.7851 38.9751 41.9533 39.0357 41.1752 39.0773C41.3755 40.4636 43.1618 41.3416 44.3818 40.6533C43.8691 40.7486 43.8308 39.9157 44.0438 39.4397L45.3729 36.4696C46.4051 36.8486 47.6898 36.2404 48.051 35.2018C45.4948 35.5095 42.8426 35.8088 40.3939 35.0136C37.9452 34.2183 35.7573 31.9999 35.8721 29.4279C41.3252 26.2684 48.6456 26.6962 53.6936 30.4693C53.3038 29.3318 52.3458 28.4051 51.1959 28.0533C52.5235 26.7463 54.2859 25.8885 56.1336 25.6501C55.0359 26.5185 54.5329 28.0712 54.9127 29.4184L59.8412 24.8854C59.0327 26.3348 58.5799 27.9809 58.5332 29.6399C60.3611 28.4454 61.8173 26.6907 62.6543 24.6739L64.8468 24.9818C63.5046 26.1158 62.7568 27.9178 62.9017 29.669C64.5723 28.6305 65.8675 27.0015 66.5028 25.1399C68.5615 25.4725 70.5608 26.1693 72.3802 27.1885ZM132.942 107.433H132.942H132.942H132.941H132.941H132.941H132.941H132.941H132.941H132.941H132.941H132.941H132.94H132.94H132.94H132.94H132.94H132.94H132.94H132.94H132.94H132.939H132.939H132.939H132.939H132.939H132.939H132.939H132.939H132.938H132.938H132.938H132.938H132.938H132.938C131.837 107.397 130.735 107.36 129.64 107.391C121.478 107.623 113.89 111.598 107.155 116.216L106.878 116.407L106.876 116.408L106.874 116.409L106.872 116.411L106.872 116.411C105.594 117.29 104.303 118.177 102.844 118.696L101.131 113.701C101.039 113.433 100.982 113.065 101.231 112.93C103.852 111.513 106.245 109.676 108.291 107.51C109.654 106.067 110.863 104.482 112.071 102.898C113.781 100.655 115.489 98.4164 117.627 96.5916C121.042 93.6777 125.34 92.0098 129.653 90.7659C132.845 89.8453 136.19 89.1232 139.473 89.6288C142.757 90.1344 145.989 92.0939 147.193 95.1901C148.15 97.6492 147.682 100.55 146.208 102.739C144.735 104.928 142.343 106.417 139.78 107.042C137.55 107.586 135.248 107.51 132.942 107.433ZM39.029 118.014C39.2016 118.425 39.3104 118.973 38.9659 119.255C38.5221 119.618 37.8926 119.15 37.5197 118.714L34.3415 115C33.5806 116.978 33.2315 119.113 33.3229 121.231C33.3413 121.656 33.3759 122.087 33.4107 122.52C33.5435 124.174 33.6781 125.849 32.9121 127.283C32.5762 127.912 32.0045 128.49 31.2928 128.536C30.8895 128.562 30.4967 128.415 30.1244 128.257C29.104 127.826 28.0985 127.295 27.0934 126.765C24.5061 125.4 21.9207 124.037 19.0875 124.362C18.7006 124.407 18.2188 124.597 18.2339 124.987C18.2407 125.161 18.3544 125.311 18.4649 125.446C22.5497 130.434 28.9375 132.853 35.121 134.68C36.1322 134.979 37.1981 135.269 38.2279 135.043C39.2577 134.816 40.2136 133.887 40.0893 132.84C39.7603 130.07 40.6284 127.177 42.4286 125.046C43.1473 124.195 44.056 123.438 45.1465 123.211C46.486 122.933 47.7951 123.485 49.0844 124.028L49.0844 124.028C49.4157 124.168 49.7456 124.307 50.0744 124.431C52.5946 125.384 55.4274 125.488 58.0108 124.723C57.0008 124.71 56.5157 123.499 56.3064 122.51C54.9502 116.109 54.2292 109.573 54.1574 103.03C54.1496 102.318 53.6505 101.689 53.0485 101.31C52.5389 100.989 51.9579 100.81 51.3801 100.632C51.2753 100.6 51.1707 100.568 51.0666 100.535C48.9626 99.8685 46.9801 98.8207 45.2442 97.4578C45.0255 97.2861 44.8102 97.1091 44.5948 96.9321L44.5947 96.932L44.5946 96.9319L44.5945 96.9318C43.9301 96.3858 43.2651 95.8393 42.5024 95.448C41.4923 94.9297 40.2422 94.7184 39.2298 95.2322C39.0039 95.7703 39.4123 96.3956 39.9349 96.6555C40.3306 96.8523 40.774 96.9056 41.2163 96.9589L41.2166 96.9589C41.3582 96.976 41.4998 96.993 41.6396 97.0147C42.305 97.1181 42.9526 97.3348 43.5462 97.6527C44.1698 97.9866 44.7603 98.8683 44.2046 99.306C43.9767 99.4855 43.6573 99.4729 43.368 99.4516L40.1046 99.2118C40.9001 101.376 41.9144 103.46 43.1269 105.422C43.2358 105.598 43.3811 105.794 43.5881 105.795C46.7853 105.824 50.3556 106.272 52.3817 108.745C52.7658 109.214 53.0808 109.892 52.7515 110.4C50.8943 108.158 47.9892 106.822 45.0778 106.872C42.1665 106.923 39.3092 108.358 37.5305 110.663C39.1004 111.714 40.3484 113.239 41.0679 114.986C41.2852 115.513 41.2452 116.376 40.6748 116.364L37.249 112.17C37.0959 111.982 36.912 111.779 36.6701 111.771C36.4761 111.766 36.3051 111.89 36.1513 112.008C35.818 112.264 35.4722 112.535 35.2983 112.918C35.1244 113.301 35.1891 113.827 35.5514 114.04C37.0957 114.947 38.3351 116.363 39.029 118.014ZM78.085 124.578C80.285 122.743 81.0026 119.722 81.5934 116.918L83.7582 106.646C83.7813 106.536 83.8078 106.42 83.8868 106.34C83.9911 106.235 84.1545 106.223 84.3025 106.219C88.2486 106.1 92.4497 106.476 95.6281 108.817C94.3312 109.46 93.1976 110.43 92.3607 111.611C92.126 111.942 91.9298 112.441 92.2321 112.712C92.3454 112.813 92.5033 112.849 92.6553 112.86C93.4129 112.914 94.1049 112.441 94.6586 111.921C94.7774 111.809 94.894 111.694 95.0107 111.579L95.0111 111.578L95.0114 111.578L95.0118 111.578L95.0122 111.577L95.0125 111.577L95.0126 111.577C95.4395 111.154 95.8684 110.73 96.4101 110.482C97.1007 110.166 98.06 110.255 98.4412 110.912C97.2094 111.539 96.1945 112.583 95.6018 113.832C95.4475 114.157 95.3201 114.533 95.445 114.87C95.57 115.208 96.0617 115.406 96.3034 115.139L98.6831 112.512C98.7982 112.385 98.958 112.245 99.1191 112.304C99.206 112.336 99.2627 112.418 99.3125 112.496C100.574 114.475 101.075 116.779 101.578 119.093C101.873 120.449 102.169 121.807 102.618 123.106C102.978 124.146 103.673 125.315 104.774 125.316C105.382 125.316 105.921 124.942 106.402 124.57C106.917 124.173 107.429 123.756 107.944 123.337C110.364 121.367 112.839 119.353 115.887 119.112C116.368 119.074 116.984 119.18 117.097 119.649C117.162 119.921 117.016 120.195 116.87 120.433C114.604 124.142 111.206 127.065 107.452 129.254C105.53 130.375 103.423 131.337 101.198 131.354C98.973 131.371 96.6172 130.234 95.7766 128.174C95.6051 127.754 95.5002 127.31 95.3954 126.867C95.2742 126.355 95.1531 125.842 94.9292 125.368C94.3524 124.144 93.0738 123.283 91.7232 123.208C90.4371 123.137 89.2544 123.71 88.0743 124.281L88.0742 124.281L88.0741 124.281L88.074 124.282L88.0738 124.282L88.0737 124.282L88.0736 124.282L88.0735 124.282L88.0734 124.282L88.0733 124.282L88.0732 124.282L88.073 124.282L88.0729 124.282L88.0728 124.282L88.0727 124.282L88.0726 124.282L88.0725 124.282L88.0724 124.282L88.0722 124.282L88.0721 124.282L88.072 124.282L88.0719 124.282L88.0718 124.282L88.0717 124.282L88.0716 124.283L88.0714 124.283L88.0713 124.283L88.0712 124.283L88.0711 124.283L88.071 124.283L88.0709 124.283L88.0708 124.283L88.0706 124.283C87.6573 124.483 87.2443 124.683 86.8272 124.855C84.0499 126.001 80.7843 125.897 78.085 124.578ZM63.3998 102.464C62.5717 103.17 61.4578 103.453 60.3721 103.532C58.4161 103.676 56.42 103.218 54.7221 102.236L55.4226 104.888C55.4528 105.002 55.4888 105.125 55.5837 105.196C55.6661 105.257 55.7752 105.264 55.8777 105.27L65.9442 105.799C67.4118 105.876 68.8813 105.953 70.3503 105.911C74.4705 105.792 78.5602 104.716 82.2059 102.792C82.4162 102.681 82.6305 102.563 82.7819 102.38C82.9625 102.161 83.0338 101.875 83.0942 101.598C83.6048 99.2561 83.6931 96.8225 83.3536 94.4496C83.2702 93.8667 83.154 93.269 82.8264 92.7798C82.4987 92.2906 81.9094 91.933 81.331 92.0432C75.4068 93.1712 69.3594 92.8227 63.3124 92.4743H63.3122L63.3119 92.4743C61.033 92.343 58.7541 92.2117 56.4819 92.1594C56.0762 92.1501 55.6495 92.1482 55.2931 92.3423C54.9368 92.5363 54.6915 92.9972 54.8745 93.3593C55.9107 95.4092 58.0516 96.7175 60.2715 97.3076C60.4309 97.35 60.5941 97.3915 60.7592 97.4335C62.1951 97.7987 63.7765 98.201 64.2979 99.5376C64.6935 100.552 64.2279 101.757 63.3998 102.464ZM79.5508 119.838C79.1447 121.451 78.2911 123.123 76.7422 123.728C76.2004 123.939 75.6137 124.002 75.0345 124.056C69.6646 124.556 64.2373 124.436 58.8948 123.698C58.5767 123.654 58.2414 123.601 57.9934 123.397C57.6915 123.148 57.5891 122.737 57.51 122.354C57.2675 121.18 57.0795 119.995 56.947 118.803C56.9235 118.592 56.9821 118.291 57.1937 118.308C60.6123 118.574 64.0407 118.713 67.4696 118.727C69.8349 118.736 72.2189 118.682 74.529 118.174C76.8391 117.666 79.0915 116.673 80.7804 115.017C80.3002 116.025 80.0936 117.127 79.8866 118.23C79.7854 118.769 79.6841 119.309 79.5508 119.838ZM68.0014 113.143C67.7823 113.356 67.5464 113.609 67.5619 113.915C67.5773 114.22 68.0356 114.448 68.1937 114.186C69.0566 112.757 70.5571 111.729 72.2017 111.442C73.8462 111.154 75.6066 111.611 76.9037 112.662C77.0384 112.771 77.1688 112.887 77.2992 113.002L77.2993 113.002C77.6068 113.275 77.9141 113.547 78.2772 113.735C78.4633 113.832 78.7818 113.834 78.7896 113.625C78.7921 113.556 78.7527 113.493 78.7141 113.436C77.7827 112.064 76.39 111.01 74.8157 110.487C73.4357 110.028 71.8367 109.999 70.6025 110.768C70.1542 111.047 69.772 111.419 69.3936 111.787L68.0014 113.143ZM56.4092 112.362C57.599 111.008 59.5225 110.409 61.3092 110.645C63.0959 110.881 64.73 111.888 65.9172 113.244C66.1263 113.482 66.3313 113.826 66.1618 114.094C66.0198 114.319 65.6803 114.336 65.4471 114.208C65.2436 114.096 65.0984 113.908 64.9555 113.723L64.9551 113.723C64.9343 113.696 64.9136 113.669 64.8928 113.643C63.8419 112.306 62.1249 111.521 60.4264 111.601C58.7279 111.681 57.0924 112.624 56.1721 114.054C55.9324 113.846 55.8646 113.488 55.9367 113.178C56.0089 112.869 56.1995 112.6 56.4092 112.362ZM73.9119 108.816C73.8842 109.118 74.2833 109.306 74.5701 109.207C74.8282 109.118 75.0081 108.895 75.1814 108.68C75.2007 108.656 75.2199 108.632 75.2391 108.609C76.8363 106.655 79.8777 106.067 82.0883 107.283C82.3783 107.038 82.3948 106.569 82.2007 106.243C82.0067 105.917 81.6524 105.716 81.2909 105.601C80.5079 105.35 79.6577 105.436 78.8519 105.599C76.9449 105.985 75.0185 106.889 74.016 108.556C73.9676 108.637 73.9205 108.722 73.9119 108.816ZM64.13 115.696C64.8637 115.415 65.6309 115.208 66.4146 115.153C68.3536 115.019 70.3354 115.889 71.5476 117.409C71.0311 117.778 70.3512 117.329 69.8205 116.978L69.8153 116.975C68.1218 115.857 65.8079 115.756 64.0241 116.725C63.885 116.8 63.7447 116.882 63.6031 116.965L63.6029 116.965C62.9357 117.356 62.2421 117.762 61.524 117.559C62.1176 116.649 63.116 116.084 64.13 115.696ZM69.6345 114.663C69.9386 114.505 70.2114 114.296 70.4844 114.087C70.7451 113.887 71.0058 113.687 71.2939 113.531C72.106 113.092 73.1176 113.041 73.9696 113.397C74.2182 113.501 74.4514 113.636 74.6848 113.772C74.8857 113.888 75.0867 114.005 75.2976 114.102C75.7535 114.31 76.2964 114.419 76.7506 114.206C76.801 114.183 76.8531 114.152 76.8744 114.1C76.909 114.017 76.8476 113.927 76.7881 113.859C75.7718 112.699 74.1795 112.07 72.6449 112.223C71.1103 112.376 69.6736 113.307 68.9067 114.645C69.0667 114.856 69.3998 114.786 69.6345 114.663ZM58.2749 114.299C58.1019 114.452 57.9291 114.605 57.729 114.719C57.4105 114.9 56.9817 114.961 56.6936 114.734C56.6045 114.255 57.0878 113.883 57.5086 113.637C58.5463 113.032 59.6616 112.406 60.8614 112.468C61.8213 112.518 62.6975 113.004 63.5266 113.49C63.7304 113.61 63.9395 113.735 64.0788 113.926C64.2182 114.117 64.2704 114.392 64.1402 114.589C64.0086 114.788 63.7316 114.847 63.4989 114.793C63.275 114.741 63.0811 114.606 62.8919 114.475L62.8699 114.459C62.1991 113.994 61.4677 113.564 60.6566 113.47C59.9288 113.386 59.1702 113.59 58.5879 114.035C58.4797 114.118 58.3773 114.208 58.275 114.299L58.2749 114.299ZM63.1327 110.068C63.3493 110.348 63.7734 110.047 64.0125 109.786C64.7492 108.981 65.8109 108.483 66.9007 108.431C67.9906 108.378 69.0952 108.773 69.9055 109.503L69.9553 109.548C70.1451 109.721 70.3477 109.906 70.6006 109.913C70.8757 109.92 71.1235 109.536 70.9053 109.368C69.7371 108.471 68.3779 107.737 66.9079 107.641C65.4379 107.544 63.8536 108.203 63.173 109.51C63.0819 109.685 63.012 109.911 63.1327 110.068ZM76.5489 109.491C76.4228 109.62 76.2952 109.752 76.1299 109.822C75.9359 109.904 75.6694 109.864 75.5757 109.676C75.4767 109.477 75.615 109.244 75.7591 109.075C77.1737 107.41 79.8363 106.979 81.7042 108.111C81.9903 108.285 82.2902 108.621 82.122 108.91C81.9201 109.257 81.3978 109.036 81.0504 108.835C79.6617 108.031 77.7456 108.286 76.6146 109.424C76.5927 109.446 76.5709 109.468 76.549 109.49L76.5489 109.491ZM77.1624 109.929C77.0822 109.996 77.0021 110.071 76.9683 110.17C76.8739 110.447 77.21 110.705 77.5013 110.682C77.7121 110.666 77.9001 110.563 78.0881 110.46C78.1598 110.421 78.2315 110.382 78.3045 110.347C78.9489 110.043 79.7233 110.116 80.3774 110.398C80.4393 110.425 80.5008 110.454 80.5623 110.482L80.5624 110.482L80.5624 110.482L80.5625 110.482C80.7579 110.573 80.9536 110.664 81.1656 110.696C81.4443 110.738 81.7695 110.646 81.8964 110.394C80.788 109.02 78.5172 108.797 77.1624 109.929ZM60.1342 109.316C60.0277 109.464 59.802 109.479 59.6366 109.402C59.4829 109.329 59.3677 109.198 59.2552 109.07L59.2295 109.041C58.4525 108.16 57.4457 107.483 56.3365 107.096C56.0484 106.996 55.6823 106.796 55.7633 106.502C56.5597 106.23 57.4603 106.443 58.1753 106.887C58.8904 107.331 59.45 107.982 59.9702 108.643C60.1238 108.839 60.2789 109.114 60.1342 109.316ZM69.4393 110.14C68.1302 109.305 66.3433 109.29 65.0207 110.103C64.7909 110.245 64.5546 110.443 64.5368 110.713C64.519 110.982 64.8846 111.232 65.0659 111.032C65.7966 110.227 67.1316 110.059 68.0382 110.66C68.4834 110.955 69.1227 110.915 69.5273 110.566C69.7184 110.546 69.6012 110.243 69.4393 110.14ZM74.021 116.911C75.3712 115.626 77.102 114.531 78.9621 114.657C79.1534 114.67 79.4099 114.831 79.2944 114.984L74.6817 116.98C74.4546 117.078 74.1193 117.139 74.021 116.911ZM61.2592 115.485C61.3046 115.511 61.3498 115.539 61.3951 115.566C61.5784 115.678 61.7642 115.792 61.9749 115.792C62.2379 115.792 62.4986 115.475 62.3318 115.272C61.8066 114.632 60.9811 114.249 60.153 114.261C59.3248 114.274 58.5114 114.682 58.006 115.338C58.0683 115.577 58.3602 115.686 58.604 115.651C58.7798 115.625 58.9405 115.547 59.1012 115.468L59.1014 115.468L59.1017 115.468C59.1638 115.438 59.2259 115.407 59.2889 115.38C59.9144 115.109 60.6662 115.149 61.2592 115.485ZM70.8536 115.624C70.6696 115.634 70.462 115.494 70.4829 115.311C70.4906 115.243 70.5274 115.182 70.5662 115.127C70.9926 114.513 71.7633 114.2 72.5103 114.193C73.2572 114.186 73.9831 114.451 74.6426 114.802C74.8266 114.9 75.0336 115.055 75.0039 115.262C74.6982 115.587 74.1921 115.412 73.7509 115.26L73.6762 115.235C73.6528 115.227 73.6297 115.219 73.6068 115.211C72.8727 114.967 72.0383 115.044 71.3607 115.417L71.3205 115.44L71.2907 115.456C71.1521 115.535 71.011 115.615 70.8536 115.624ZM69.0945 107.274C69.8634 107.549 70.5795 107.971 71.1931 108.51C71.2358 108.548 71.2783 108.586 71.3208 108.624C71.5297 108.812 71.74 109.002 71.9949 109.117C72.3017 109.256 72.7 109.259 72.9402 109.023C72.4088 108.616 71.9723 108.085 71.6746 107.485C71.5143 107.162 71.0868 107.103 70.7265 107.086L69.1467 107.008C69.0911 107.083 69.0714 107.183 69.0945 107.274ZM62.6566 108.629C62.5214 108.801 62.3862 108.973 62.2264 109.123C61.9545 109.377 61.5795 109.563 61.2162 109.483C61.5854 108.587 62.1819 107.787 62.9344 107.177C63.4717 106.742 64.2491 106.837 64.9304 106.956C64.9667 107.202 64.6505 107.325 64.41 107.389C63.8526 107.538 63.3396 107.849 62.9501 108.274C62.8465 108.387 62.7515 108.508 62.6566 108.629ZM56.1704 108.814L57.6351 109.769C57.8418 109.903 58.1057 110.041 58.3201 109.919C58.5191 109.806 58.5496 109.514 58.4458 109.31C58.3421 109.106 58.1444 108.97 57.9545 108.842L56.7619 108.039C56.429 107.815 55.8868 107.636 55.7057 107.994C55.5496 108.303 55.8805 108.625 56.1704 108.814ZM67.1363 112.911C66.8989 113.024 66.6372 112.824 66.4504 112.639L65.8406 112.033C65.769 111.962 65.6916 111.876 65.7041 111.776C65.7119 111.713 65.7548 111.66 65.7988 111.614C66.3714 111.015 67.4592 111.031 68.0134 111.647L67.3784 112.651C67.3142 112.752 67.2445 112.859 67.1363 112.911ZM57.9066 117.422C58.3036 117.561 58.7722 117.603 59.1224 117.369C58.5952 116.763 57.9774 116.236 57.2957 115.81C57.1023 115.69 56.8843 115.573 56.6587 115.605C56.433 115.637 56.2332 115.894 56.3425 116.094C56.6779 116.708 57.2464 117.191 57.9066 117.422ZM80.2538 111.868L79.6908 112.549C79.6374 112.613 79.5778 112.682 79.496 112.699C79.3722 112.726 79.2594 112.628 79.1704 112.538L78.3532 111.71C78.233 111.589 78.2674 111.371 78.3868 111.249C78.5063 111.126 78.6832 111.08 78.8531 111.059C79.2972 111.006 79.7577 111.098 80.1476 111.317C80.2597 111.38 80.3775 111.472 80.3826 111.601C80.3867 111.702 80.3184 111.79 80.2538 111.868ZM60.1108 107.65C60.2791 107.831 60.4905 108.017 60.737 107.997C60.9923 107.975 61.1641 107.752 61.333 107.532C61.5136 107.296 61.691 107.065 61.9638 107.091C62.1056 106.857 61.7187 106.67 61.4455 106.666L59.324 106.632C59.5549 106.994 59.8186 107.336 60.1108 107.65ZM68.8912 117.57L64.4782 117.59C64.526 117.361 64.7832 117.251 65.0084 117.19C66.0146 116.918 67.085 116.885 68.1057 117.097C68.4172 117.162 68.7623 117.28 68.8912 117.57ZM73.5609 116.042L72.1008 116.108C71.9436 116.115 71.742 116.16 71.7226 116.316C71.714 116.386 71.749 116.453 71.7829 116.515C71.9116 116.748 72.0485 116.991 72.271 117.139C72.4935 117.286 72.8284 117.3 73.0016 117.097C73.0612 117.027 73.0961 116.94 73.1308 116.853C73.1735 116.747 73.2158 116.641 73.3029 116.569C73.3607 116.522 73.4312 116.496 73.502 116.47C73.5561 116.45 73.6103 116.431 73.6591 116.401C73.7719 116.333 73.8437 116.156 73.7392 116.075C73.6901 116.038 73.6226 116.039 73.5609 116.042ZM60.763 116.235C60.9656 116.366 61.0886 116.653 60.9586 116.856C60.8029 117.099 60.6085 117.367 60.3213 117.395C59.9508 117.432 59.6855 117.059 59.5051 116.733C59.4436 116.622 59.3801 116.499 59.4028 116.375C59.4505 116.113 59.8006 116.064 60.0664 116.077C60.3072 116.089 60.5604 116.105 60.763 116.235ZM80.1851 113.937C80.4035 113.955 80.5993 113.807 80.7525 113.65C81.22 113.173 81.5172 112.531 81.58 111.866C81.4253 111.767 81.2361 111.92 81.1176 112.061L79.9236 113.472C79.7821 113.64 79.9666 113.919 80.1851 113.937ZM56.8012 110.799C56.4884 110.968 56.0603 110.881 55.8384 110.603C55.6165 110.325 55.626 109.889 55.8599 109.621C55.8923 109.584 55.9311 109.548 55.9794 109.538C56.0495 109.524 56.1174 109.566 56.1765 109.606L56.7571 110.002C56.8911 110.093 57.0364 110.202 57.0647 110.361C57.0965 110.541 56.9614 110.712 56.8012 110.799ZM73.0271 107.672C73.2595 107.867 73.604 107.665 73.8346 107.468L74.5854 106.826C74.4438 106.691 74.2174 106.722 74.0256 106.761L72.3539 107.107L73.0271 107.672ZM39.2311 92.9682C39.0604 92.8165 39.0167 92.5683 39.0116 92.34C39.0058 92.0822 39.036 91.8237 39.101 91.5743L40.209 93.0168C40.2752 93.1029 40.3294 93.2508 40.2317 93.2982C40.0932 93.2052 39.9229 93.1788 39.7537 93.1527C39.5622 93.123 39.3722 93.0936 39.2311 92.9682ZM81.7776 104.938C81.9179 105.113 82.2133 105.075 82.3741 104.919C82.535 104.763 82.5944 104.533 82.6405 104.313C82.6516 104.26 82.6619 104.204 82.6398 104.154C82.5836 104.03 82.3983 104.067 82.2741 104.125C81.9402 104.281 81.5469 104.651 81.7776 104.938ZM69.2389 41.1618C69.3745 40.8231 69.6901 40.5943 70.001 40.4034C70.9391 39.8272 71.9809 39.4203 73.0612 39.2081C73.3197 39.1574 73.6277 39.1326 73.8072 39.3255C74.009 39.5425 73.9081 39.9177 73.684 40.1117C73.4844 40.2845 73.2216 40.3554 72.9647 40.4248C72.9332 40.4333 72.9018 40.4417 72.8707 40.4504C72.0067 40.6896 71.1939 41.112 70.5016 41.6816C70.2354 41.9006 69.9199 42.1585 69.5878 42.0662C69.2363 41.9686 69.1032 41.5004 69.2389 41.1618ZM49.8059 41.2409C49.5551 41.1052 49.3858 40.7663 49.5418 40.5276C49.6326 40.3887 49.8019 40.3254 49.9627 40.2846C51.2652 39.954 52.6137 40.5377 53.7918 41.1841C54.0571 41.3296 54.3301 41.4881 54.4972 41.7402C54.6644 41.9923 54.6889 42.3659 54.4707 42.5755C54.1056 42.9263 53.5268 42.5655 53.1146 42.2714C52.3928 41.7565 51.5255 41.4478 50.6406 41.3911C50.6011 41.3885 50.5614 41.3864 50.5215 41.3843C50.2739 41.3712 50.0219 41.3579 49.8059 41.2409ZM63.4604 59.9156L62.6036 57.472C61.8411 58.0224 61.271 58.8342 61.0123 59.7383C60.7782 59.548 60.7695 59.2261 60.761 58.91C60.7585 58.8155 60.756 58.7215 60.7475 58.6317C60.6968 58.099 60.3623 57.6017 59.888 57.354C59.4137 57.1063 58.8143 57.116 58.3483 57.3789C58.4719 57.6494 58.7631 57.7353 59.063 57.8237C59.2621 57.8824 59.4649 57.9422 59.625 58.0579C59.963 58.3024 60.0599 58.7631 60.0651 59.1802C60.0664 59.2848 60.0637 59.3902 60.0611 59.4957C60.053 59.8108 60.045 60.1264 60.1434 60.4231C60.1752 60.5189 60.2203 60.6144 60.2979 60.6789C60.5176 60.8618 60.8504 60.7099 61.0729 60.5304C61.5757 60.1251 61.9711 59.5877 62.2084 58.987C62.4177 59.1961 62.4951 59.4897 62.5718 59.7811L62.5718 59.7812L62.5718 59.7813C62.5944 59.8668 62.6168 59.9521 62.6426 60.035C62.756 60.4005 63.0273 60.7912 63.4096 60.7734C63.6644 60.7616 63.8697 60.5699 64.0501 60.3896L65.0867 59.3541C65.2116 59.2293 65.3471 59.0707 65.3069 58.8987C65.2682 58.7337 65.0727 58.6452 64.9048 58.669C64.737 58.6927 64.5934 58.7985 64.4621 58.9056C64.094 59.2059 63.7576 59.545 63.4604 59.9156ZM61.0927 50.1139C61.1479 49.666 61.1784 49.1442 60.8493 48.8354C60.2353 48.2591 59.6976 47.6017 59.2546 46.8857C59.0613 46.5734 58.8799 46.2086 58.972 45.8531C59.1111 45.3162 59.7638 45.122 60.3144 45.055C61.1953 44.9477 62.087 44.9295 62.9715 45.0007C63.3516 45.0313 63.7544 45.0884 64.0453 45.3349C64.3362 45.5815 64.4411 46.0814 64.1604 46.3394C62.7842 47.6045 61.9784 49.468 61.9993 51.3372C62.5095 51.6684 63.0282 52.0037 63.6095 52.1828C64.1909 52.362 64.8535 52.3678 65.3779 52.0595C65.5987 51.9296 65.7839 51.7519 65.9696 51.5739C66.0977 51.4509 66.2261 51.3278 66.3664 51.2202C66.7101 50.9566 67.202 50.7933 67.5703 51.0213L66.1693 52.3112C65.611 52.8252 64.9176 53.3781 64.1787 53.2051C63.934 53.1477 63.7191 53.0154 63.5035 52.8825C63.3751 52.8035 63.2465 52.7242 63.1112 52.6605C62.3876 52.3201 61.5386 52.4473 60.7567 52.6151L60.6135 52.646C59.8756 52.8059 59.112 52.9714 58.3877 52.7727C57.6165 52.5611 56.94 51.7595 57.1814 50.9971C57.6669 51.7077 58.5122 52.158 59.3728 52.1646C59.7032 52.1672 60.0439 52.1039 60.3177 51.9188C60.8781 51.54 61.0098 50.7852 61.0927 50.1139Z" fill="#00160A"/>
</g>
</g>
</g>
</svg>
