<svg width="24" height="25" viewBox="0 0 24 25" fill="none" xmlns="http://www.w3.org/2000/svg">
<path d="M7 2.4707C6.44772 2.4707 6 2.91842 6 3.4707V4.4707H5C3.89543 4.4707 3 5.36613 3 6.4707V8.4707H21V6.4707C21 5.36613 20.1046 4.4707 19 4.4707H18V3.4707C18 2.91842 17.5523 2.4707 17 2.4707H16C15.4477 2.4707 15 2.91842 15 3.4707V4.4707H9V3.4707C9 2.91842 8.55228 2.4707 8 2.4707H7Z" fill="#667483"/>
<path fill-rule="evenodd" clip-rule="evenodd" d="M21 10.4707H3V19.4707C3 20.5753 3.89543 21.4707 5 21.4707H19C20.1046 21.4707 21 20.5753 21 19.4707V10.4707ZM6 13.4707C6 12.9184 6.44772 12.4707 7 12.4707H9C9.55228 12.4707 10 12.9184 10 13.4707V14.4707C10 15.023 9.55228 15.4707 9 15.4707H7C6.44772 15.4707 6 15.023 6 14.4707V13.4707Z" fill="#667483"/>
</svg>
