<svg width="24" height="25" viewBox="0 0 24 25" fill="none" xmlns="http://www.w3.org/2000/svg">
<path fill-rule="evenodd" clip-rule="evenodd" d="M15.74 17.2921H10.24C9.826 17.2921 9.49 16.9572 9.49 16.5447C9.49 16.1321 9.826 15.7973 10.24 15.7973H15.74C16.154 15.7973 16.49 16.1321 16.49 16.5447C16.49 16.9572 16.154 17.2921 15.74 17.2921ZM8.5 10.0064C8.5 10.2824 8.275 10.5046 8 10.5046H4C3.723 10.5046 3.5 10.2824 3.5 10.0064V7.51501C3.5 7.24096 3.723 7.01674 4 7.01674H8C8.275 7.01674 8.5 7.24096 8.5 7.51501V10.0064ZM7.24 17.2921H4.24C3.826 17.2921 3.49 16.9572 3.49 16.5447C3.49 16.1321 3.826 15.7973 4.24 15.7973H7.24C7.654 15.7973 7.99 16.1321 7.99 16.5447C7.99 16.9572 7.654 17.2921 7.24 17.2921ZM21.5 4.52539H2.5C1.672 4.52539 1 5.19507 1 6.0202V18.9752C1 19.8013 1.672 20.47 2.5 20.47H21.5C22.329 20.47 23 19.8013 23 18.9752V6.0202C23 5.19507 22.329 4.52539 21.5 4.52539Z" fill="#667483"/>
</svg>
