<svg width="24" height="25" viewBox="0 0 24 25" fill="none" xmlns="http://www.w3.org/2000/svg">
<path fill-rule="evenodd" clip-rule="evenodd" d="M8.37477 8.40199C8.37477 6.40518 10.0005 4.78113 11.9996 4.78113C13.9987 4.78113 15.6244 6.40518 15.6244 8.40199V10.2025H8.37477V8.40199ZM18.343 10.2025H17.4368V8.40199C17.4368 5.40723 14.9982 2.9707 11.9996 2.9707C9.00096 2.9707 6.56238 5.40723 6.56238 8.40199V10.2025H5.65618C4.90584 10.2025 4.29688 10.8105 4.29688 11.5605V20.6127C4.29688 21.3627 4.90584 21.9707 5.65618 21.9707H18.343C19.0933 21.9707 19.7023 21.3627 19.7023 20.6127V11.5605C19.7023 10.8105 19.0933 10.2025 18.343 10.2025ZM12.9058 16.2879V18.3498C12.9058 18.8493 12.4998 19.2546 11.9996 19.2546C11.4984 19.2546 11.0934 18.8493 11.0934 18.3498V16.2879C10.5533 15.9748 10.1872 15.3976 10.1872 14.729C10.1872 13.7292 10.9982 12.9186 11.9996 12.9186C13 12.9186 13.812 13.7292 13.812 14.729C13.812 15.3976 13.445 15.9748 12.9058 16.2879Z" fill="#667483"/>
</svg>
