<svg width="24" height="24" viewBox="0 0 24 24" fill="none" xmlns="http://www.w3.org/2000/svg">
<path d="M23.3141 3.28032C22.9611 2.92665 22.3882 2.92604 22.0351 3.27882L11.1839 14.1014L7.2688 9.84924C6.9305 9.48202 6.35854 9.45821 5.99071 9.79646C5.62316 10.1348 5.59963 10.707 5.93793 11.0746L10.4907 16.019C10.6574 16.2002 10.8908 16.3054 11.1368 16.3105C11.1434 16.3108 11.1498 16.3108 11.1561 16.3108C11.3953 16.3108 11.6253 16.2159 11.7947 16.047L23.3123 4.55958C23.6663 4.20685 23.6669 3.63399 23.3141 3.28032Z" fill="#2BAD8F"/>
<path d="M23.0955 11.0955C22.5959 11.0955 22.191 11.5004 22.191 12C22.191 17.6195 17.6195 22.191 12 22.191C6.38081 22.191 1.80905 17.6195 1.80905 12C1.80905 6.38081 6.38081 1.80905 12 1.80905C12.4996 1.80905 12.9045 1.40414 12.9045 0.904547C12.9045 0.404906 12.4996 0 12 0C5.38312 0 0 5.38312 0 12C0 18.6166 5.38312 24 12 24C18.6166 24 24 18.6166 24 12C24 11.5004 23.5951 11.0955 23.0955 11.0955Z" fill="#2BAD8F"/>
</svg>
